<svg width="16" height="20" viewBox="0 0 16 20" fill="none" xmlns="http://www.w3.org/2000/svg">
<path d="M7.12218 3.102C6.97423 2.69922 6.67777 2.36832 6.2936 2.17716C5.90944 1.98601 5.46669 1.9491 5.05618 2.074C3.11018 2.674 1.75018 4.344 2.04218 6.276C2.36874 8.42028 3.09535 10.4841 4.18418 12.36C5.26135 14.2316 6.6735 15.8892 8.35018 17.25C9.85818 18.47 11.9742 18.134 13.4662 16.734C13.78 16.4394 13.9704 16.0368 13.999 15.6073C14.0276 15.1779 13.8922 14.7536 13.6202 14.42L12.5522 13.114C12.3383 12.8514 12.0504 12.6591 11.7258 12.5621C11.4013 12.4651 11.0551 12.4679 10.7322 12.57L8.26818 13.35L7.83818 12.906C7.29639 12.3441 6.82247 11.7205 6.42618 11.048C6.04154 10.3679 5.74196 9.64317 5.53418 8.89L5.36818 8.3L7.26818 6.55C7.51889 6.31721 7.69477 6.01515 7.77346 5.6822C7.85216 5.34924 7.83013 5.00041 7.71018 4.68L7.12418 3.104L7.12218 3.102ZM4.46818 0.162003C5.36648 -0.112842 6.33589 -0.0337383 7.17775 0.383104C8.01962 0.799946 8.6702 1.52296 8.99618 2.404L9.58218 3.98C9.84068 4.67239 9.88743 5.42602 9.71649 6.14505C9.54555 6.86408 9.16463 7.51604 8.62218 8.018L7.64218 8.92C7.76818 9.268 7.93818 9.666 8.15818 10.052C8.37818 10.432 8.63418 10.778 8.86818 11.06L10.1282 10.66C10.8326 10.4376 11.5876 10.4317 12.2954 10.6432C13.0031 10.8546 13.6312 11.2737 14.0982 11.846L15.1662 13.152C15.7597 13.8778 16.0556 14.8019 15.9939 15.7375C15.9323 16.673 15.5178 17.5503 14.8342 18.192C12.8462 20.058 9.60018 20.832 7.09418 18.804C5.22686 17.2891 3.65403 15.4438 2.45418 13.36C1.23948 11.2677 0.428743 8.96574 0.0641763 6.574C-0.415824 3.388 1.87018 0.962003 4.46818 0.164003V0.162003Z" fill="white"/>
</svg>
