<svg width="53" height="38" viewBox="0 0 53 38" fill="none" xmlns="http://www.w3.org/2000/svg">
<g clip-path="url(#clip0_62_13356)">
<path d="M2.45703 0.645065C3.7151 0.978083 4.97052 0.978083 6.2233 0.645065" stroke="#D12824" stroke-opacity="0.996" stroke-width="1.5858"/>
<path d="M6.42188 0.645065C18.5162 0.978083 30.6079 0.978083 42.697 0.645065" stroke="#D12824" stroke-opacity="0.996" stroke-width="1.5858"/>
<path d="M52.5623 9.2164C52.2292 15.2319 52.2292 21.2447 52.5623 27.2549" stroke="#D12824" stroke-opacity="0.996" stroke-width="1.5858"/>
<path d="M52.5634 37.5625L51.9688 38.5378" stroke="#C92623" stroke-opacity="0.522" stroke-width="1.5858"/>
<path d="M51.9687 38.5379C49.2517 38.3106 46.532 38.2234 43.8098 38.2762C35.0799 38.4427 26.3977 38.2128 17.6758 38.4745" stroke="#BC201A" stroke-opacity="0.71" stroke-width="1.5858"/>
<path d="M50.9457 3.00517C50.9455 2.87397 50.9194 2.7441 50.869 2.62298C50.8186 2.50186 50.7448 2.39185 50.6519 2.29924C50.5589 2.20663 50.4487 2.13324 50.3274 2.08324C50.2061 2.03324 50.0761 2.00763 49.9449 2.00786L2.98951 2.08977C2.85831 2.09 2.72843 2.11606 2.60731 2.16648C2.48619 2.2169 2.37618 2.29068 2.28357 2.38362C2.19097 2.47655 2.11757 2.58681 2.06758 2.70811C2.01758 2.82941 1.99196 2.95937 1.99219 3.09056L2.04984 36.1068C2.05007 36.238 2.07614 36.3679 2.12656 36.489C2.17698 36.6101 2.25076 36.7201 2.34369 36.8127C2.43662 36.9054 2.54688 36.9788 2.66818 37.0287C2.78948 37.0787 2.91943 37.1044 3.05063 37.1041L50.0061 37.0222C50.1373 37.022 50.2671 36.9959 50.3882 36.9455C50.5094 36.8951 50.6194 36.8213 50.712 36.7284C50.8046 36.6354 50.878 36.5252 50.928 36.4039C50.978 36.2826 51.0036 36.1526 51.0034 36.0214L50.9457 3.00517Z" stroke="#C92623" stroke-opacity="0.522" stroke-width="1.5858"/>
<path d="M49.9768 3.47555C49.9768 3.35358 49.9284 3.23661 49.8422 3.15037C49.7559 3.06412 49.6389 3.01567 49.517 3.01567H3.62395C3.50198 3.01567 3.385 3.06412 3.29876 3.15037C3.21251 3.23661 3.16406 3.35358 3.16406 3.47555V35.6673C3.16406 35.7892 3.21251 35.9062 3.29876 35.9924C3.385 36.0787 3.50198 36.1271 3.62395 36.1271H49.517C49.6389 36.1271 49.7559 36.0787 49.8422 35.9924C49.9284 35.9062 49.9768 35.7892 49.9768 35.6673V3.47555Z" stroke="#D22C26" stroke-opacity="0.522" stroke-width="1.5858"/>
<path d="M9.34245 26.0498L20.3003 26.0973C20.4165 26.0974 20.5331 26.0638 20.6387 25.9999C20.7442 25.936 20.8353 25.8439 20.9029 25.7326C24.6666 19.6749 28.6311 13.7572 32.7964 7.97959C33.0079 7.68357 33.3144 7.35848 33.7162 7.00432C35.968 5.01414 32.0035 5.60089 30.9648 5.58503C27.8514 5.5216 24.7432 5.64582 21.6403 5.95769C21.3773 5.98364 21.1307 6.08892 20.9346 6.25899C15.8759 10.7072 11.5546 19.1991 7.83593 25.13C7.36812 25.8595 7.31262 26.6841 8.58918 26.1766C8.82177 26.0868 9.07286 26.0445 9.34245 26.0498Z" stroke="#ED9693" stroke-width="1.5858"/>
<path d="M43.0883 10.9054C41.6215 7.06773 37.1574 3.81684 33.8907 8.7011C33.8023 8.8337 33.7469 8.98617 33.729 9.14603C33.7111 9.30589 33.7312 9.46861 33.7876 9.62086C35.4316 14.1034 35.5135 18.2397 34.0334 22.0297C33.9371 22.2786 33.9371 22.5436 34.0334 22.7671C35.6985 26.5017 39.1397 26.351 41.5342 23.338C44.3728 19.7805 44.8908 15.6363 43.0883 10.9054Z" stroke="#ED9693" stroke-width="1.5858"/>
<path d="M33.8736 26.2796C34.9256 26.2902 35.0604 25.9466 34.278 25.2489C31.6509 22.9124 30.4113 19.6616 30.5593 15.4962C30.6016 14.2751 30.2792 14.1641 29.592 15.1632L23.7642 23.5996C22.5748 25.3229 23.0453 26.1924 25.1755 26.2083L33.8736 26.2796Z" stroke="#ED9693" stroke-width="1.5858"/>
<path d="M14.8998 32.1311C15.6451 32.887 16.5121 33.0826 17.5005 32.7178C17.7585 32.625 18.0242 32.6084 18.2617 32.6703C21.1902 33.4632 22.1073 32.6201 21.0131 30.1409C20.9627 30.0262 20.8837 29.9274 20.7846 29.8548C20.6856 29.7822 20.57 29.7386 20.4501 29.7286C18.0159 29.5145 20.6404 33.8993 18.7692 31.8139C18.6941 31.7314 18.6364 31.6277 18.5996 31.5091C18.5628 31.3905 18.5477 31.2595 18.5551 31.1241C18.6238 29.8555 17.9921 29.43 16.6601 29.8476C16.5605 29.8789 16.478 29.9505 16.4305 30.047C16.383 30.1435 16.3743 30.257 16.4063 30.3629C17.0406 32.3928 16.7896 32.6412 15.6531 31.1083C15.2883 30.6167 14.9315 28.9595 14.2734 30.7752" stroke="#E36460" stroke-width="1.5858"/>
<path d="M14.2747 30.7753C12.081 28.9252 11.0899 29.3904 11.3013 32.1708C11.3107 32.3256 11.3472 32.4695 11.4063 32.5849C11.4655 32.7004 11.5447 32.7824 11.6343 32.821C12.2766 33.0985 12.5145 31.6951 12.9823 31.6555C13.0755 31.65 13.1684 31.6951 13.2411 31.7811C13.3137 31.8671 13.3603 31.9871 13.3708 32.1153C13.4395 32.9875 13.9496 32.9928 14.9011 32.1312" stroke="#E36460" stroke-width="1.5858"/>
<path d="M14.2734 30.7754L14.8998 32.1313" stroke="#EB9A98" stroke-width="1.5858"/>
<path d="M29.1396 31.9646C30.1651 33.1486 30.5906 33.2808 30.4162 32.361C30.3105 31.8218 30.099 31.3276 29.7819 30.8783C28.9731 29.7365 28.5159 29.7682 28.4102 30.9734" stroke="#DB867F" stroke-opacity="0.98" stroke-width="1.5858"/>
<path d="M28.4113 30.9734C26.6616 32.6491 25.9216 32.4297 26.1912 30.3153C26.1992 30.2594 26.1969 30.2025 26.1844 30.1484C26.1719 30.0942 26.1495 30.0441 26.1187 30.0013C26.088 29.9585 26.0495 29.9241 26.0059 29.9003C25.9624 29.8765 25.9147 29.8639 25.8661 29.8633H22.972C22.9161 29.8629 22.8608 29.8748 22.8096 29.8981C22.7584 29.9215 22.7123 29.9558 22.6743 29.999C22.6363 30.0423 22.6072 30.0934 22.5888 30.1492C22.5705 30.205 22.5633 30.2642 22.5676 30.3232L22.7104 32.4165C22.7173 32.542 22.7671 32.6605 22.8503 32.7496C22.9336 32.8387 23.0445 32.8922 23.1623 32.9001C23.9394 32.9636 24.32 30.1488 25.1366 32.3372C25.1801 32.4558 25.2497 32.5604 25.3386 32.641C25.4276 32.7216 25.5328 32.7754 25.6441 32.7971C26.918 33.0349 28.0836 32.7574 29.1408 31.9645" stroke="#E36460" stroke-width="1.5858"/>
<path d="M28.4102 30.9735C28.796 31.2008 29.0392 31.5312 29.1396 31.9646" stroke="#E4BDB8" stroke-opacity="0.98" stroke-width="1.5858"/>
<path d="M31.8035 29.8716C30.7041 30.3949 30.5851 31.2063 31.4467 32.3058C31.5231 32.4048 31.6264 32.478 31.7417 32.515C31.857 32.552 31.9786 32.551 32.089 32.512C32.8872 32.2213 32.9612 31.5103 32.311 30.3791" stroke="#E36460" stroke-width="1.5858"/>
<path d="M32.3121 30.3788C33.5015 30.4369 33.9614 31.021 33.6918 32.1311C33.6654 32.2427 33.6779 32.3587 33.7267 32.4548C33.7755 32.5509 33.8567 32.6196 33.9534 32.6465C34.7358 32.8896 34.971 32.5223 34.6591 31.5443C34.621 31.4225 34.6135 31.2963 34.6373 31.18C34.6611 31.0637 34.7154 30.962 34.7939 30.8862C36.8237 28.9754 34.7463 33.4156 36.7286 32.7099C36.844 32.6697 36.9672 32.6532 37.0911 32.6614C37.2149 32.6695 37.3369 32.7022 37.4501 32.7575C38.1796 33.1064 38.7796 33.0139 39.25 32.48C39.2795 32.4471 39.2992 32.4072 39.3075 32.3637C39.3157 32.3202 39.3122 32.2746 39.2972 32.2312C39.2822 32.1878 39.2562 32.1478 39.2216 32.1151C39.187 32.0824 39.145 32.0579 39.0994 32.0439C37.7673 31.6051 37.6378 31.2166 38.7108 30.8783C38.8271 30.8413 39.0729 30.8413 39.4482 30.8783C39.739 30.9047 39.8156 30.7118 39.6782 30.2995C39.639 30.1821 39.5718 30.0755 39.4822 29.9886C39.3925 29.9017 39.283 29.8371 39.1628 29.8C38.3752 29.5727 37.7514 29.7498 37.2916 30.3312C37.2784 30.3478 37.261 30.3603 37.241 30.3675C37.221 30.3747 37.1989 30.3764 37.1769 30.3724C37.1549 30.3685 37.1335 30.3591 37.1148 30.3449C37.096 30.3308 37.0805 30.3125 37.0695 30.2916C36.6334 29.4352 32.8196 29.7683 31.8047 29.8713" stroke="#E36460" stroke-width="1.5858"/>
<path d="M32.3121 30.3791C32.2011 30.3791 32.032 30.2099 31.8047 29.8716" stroke="#EB9A98" stroke-width="1.5858"/>
<path d="M0.920628 0.637207L2.45885 0.645136C3.71692 0.978154 4.97235 0.978154 6.22513 0.645136H6.42335C18.5177 0.978154 30.6094 0.978154 42.6985 0.645136H52.5622V9.21638C52.2291 15.2318 52.2291 21.2447 52.5622 27.2548V37.5625L51.9675 38.5378C49.2505 38.3105 46.5308 38.2233 43.8086 38.2761C35.0787 38.4426 26.3965 38.2127 17.6746 38.4744L1.20607 38.3237C1.1096 38.3237 1.01409 38.3053 0.925068 38.2698C0.836043 38.2342 0.75528 38.1821 0.687437 38.1164C0.619595 38.0508 0.566028 37.973 0.52984 37.8874C0.493652 37.8019 0.475555 37.7103 0.476606 37.618L0.920628 0.637207ZM50.9475 3.00496C50.9473 2.87377 50.9212 2.7439 50.8708 2.62277C50.8204 2.50165 50.7466 2.39165 50.6537 2.29904C50.5607 2.20643 50.4505 2.13303 50.3292 2.08303C50.2079 2.03304 50.0779 2.00743 49.9467 2.00765L2.99129 2.08956C2.8601 2.08979 2.73022 2.11586 2.6091 2.16628C2.48797 2.2167 2.37797 2.29048 2.28536 2.38341C2.19275 2.47634 2.11936 2.58661 2.06936 2.7079C2.01937 2.8292 1.99375 2.95916 1.99397 3.09036L2.05162 36.1066C2.05185 36.2378 2.07792 36.3677 2.12834 36.4888C2.17876 36.6099 2.25254 36.7199 2.34548 36.8125C2.43841 36.9051 2.54867 36.9785 2.66996 37.0285C2.79126 37.0785 2.92122 37.1041 3.05242 37.1039L50.0078 37.022C50.139 37.0218 50.2689 36.9957 50.39 36.9453C50.5112 36.8949 50.6212 36.8211 50.7138 36.7282C50.8064 36.6352 50.8798 36.525 50.9298 36.4037C50.9798 36.2824 51.0054 36.1524 51.0051 36.0212L50.9475 3.00496Z" fill="#D12824" fill-opacity="0.996"/>
<path d="M2.45703 0.64502H6.2233C4.97052 0.978037 3.7151 0.978037 2.45703 0.64502Z" fill="#D12824" fill-opacity="0.996"/>
<path d="M6.42188 0.64502H42.697C30.6079 0.978037 18.5162 0.978037 6.42188 0.64502Z" fill="#D12824" fill-opacity="0.996"/>
<path d="M51.0034 36.0209C51.0036 36.1521 50.978 36.282 50.928 36.4033C50.878 36.5246 50.8046 36.6349 50.712 36.7278C50.6194 36.8208 50.5094 36.8946 50.3882 36.945C50.2671 36.9954 50.1373 37.0215 50.0061 37.0217L3.05063 37.1036C2.91943 37.1038 2.78948 37.0782 2.66818 37.0282C2.54688 36.9782 2.43662 36.9048 2.34369 36.8122C2.25076 36.7196 2.17698 36.6096 2.12656 36.4885C2.07614 36.3673 2.05007 36.2375 2.04984 36.1063L1.99219 3.09003C1.99196 2.95883 2.01758 2.82887 2.06758 2.70758C2.11757 2.58628 2.19097 2.47601 2.28357 2.38308C2.37618 2.29015 2.48619 2.21637 2.60731 2.16595C2.72843 2.11553 2.85831 2.08946 2.98951 2.08923L49.9449 2.00733C50.0761 2.0071 50.2061 2.03271 50.3274 2.08271C50.4487 2.1327 50.5589 2.2061 50.6519 2.29871C50.7448 2.39132 50.8186 2.50132 50.869 2.62245C50.9194 2.74357 50.9455 2.87344 50.9457 3.00463L51.0034 36.0209ZM49.9755 3.47546C49.9755 3.35349 49.9271 3.23652 49.8408 3.15027C49.7546 3.06403 49.6376 3.01558 49.5157 3.01558H3.62263C3.50066 3.01558 3.38369 3.06403 3.29744 3.15027C3.2112 3.23652 3.16275 3.35349 3.16275 3.47546V35.6672C3.16275 35.7891 3.2112 35.9061 3.29744 35.9924C3.38369 36.0786 3.50066 36.1271 3.62263 36.1271H49.5157C49.6376 36.1271 49.7546 36.0786 49.8408 35.9924C49.9271 35.9061 49.9755 35.7891 49.9755 35.6672V3.47546Z" fill="#0D0101" fill-opacity="0.043"/>
<path d="M49.9768 35.6676C49.9768 35.7896 49.9284 35.9066 49.8422 35.9928C49.7559 36.079 49.6389 36.1275 49.517 36.1275H3.62395C3.50198 36.1275 3.385 36.079 3.29876 35.9928C3.21251 35.9066 3.16406 35.7896 3.16406 35.6676V3.4759C3.16406 3.35394 3.21251 3.23696 3.29876 3.15072C3.385 3.06447 3.50198 3.01602 3.62395 3.01602H49.517C49.6389 3.01602 49.7559 3.06447 49.8422 3.15072C49.9284 3.23696 49.9768 3.35394 49.9768 3.4759V35.6676ZM9.34076 26.0497L20.2986 26.0973C20.4148 26.0974 20.5314 26.0638 20.637 25.9999C20.7426 25.936 20.8336 25.8439 20.9012 25.7326C24.6649 19.6748 28.6294 13.7572 32.7947 7.97957C33.0062 7.68356 33.3127 7.35847 33.7145 7.00431C35.9663 5.01413 32.0018 5.60087 30.9631 5.58502C27.8497 5.52158 24.7415 5.6458 21.6386 5.95768C21.3756 5.98363 21.129 6.08891 20.9329 6.25898C15.8742 10.7071 11.5529 19.1991 7.83424 25.13C7.36643 25.8595 7.31092 26.6841 8.58749 26.1766C8.82008 26.0868 9.07117 26.0445 9.34076 26.0497ZM43.0866 10.9054C41.6197 7.06774 37.1557 3.81685 33.8889 8.70111C33.8006 8.83371 33.7452 8.98618 33.7273 9.14604C33.7093 9.3059 33.7294 9.46862 33.7858 9.62087C35.4298 14.1034 35.5117 18.2397 34.0316 22.0297C33.9353 22.2786 33.9353 22.5436 34.0316 22.7671C35.6967 26.5017 39.1379 26.3511 41.5325 23.338C44.371 19.7806 44.8891 15.6363 43.0866 10.9054ZM33.8731 26.2797C34.925 26.2903 35.0598 25.9467 34.2774 25.2489C31.6503 22.9125 30.4107 19.6616 30.5587 15.4963C30.601 14.2752 30.2786 14.1642 29.5914 15.1632L23.7636 23.5997C22.5742 25.3229 23.0447 26.1925 25.175 26.2083L33.8731 26.2797ZM14.899 32.1313C15.6443 32.8872 16.5112 33.0828 17.4997 32.718C17.7577 32.6251 18.0234 32.6085 18.2609 32.6705C21.1893 33.4634 22.1064 32.6202 21.0122 30.1411C20.9618 30.0264 20.8829 29.9275 20.7838 29.855C20.6847 29.7824 20.5691 29.7388 20.4493 29.7288C18.0151 29.5147 20.6396 33.8995 18.7683 31.8141C18.6933 31.7316 18.6356 31.6279 18.5988 31.5093C18.562 31.3907 18.5468 31.2597 18.5542 31.1243C18.623 29.8557 17.9913 29.4301 16.6592 29.8477C16.5596 29.879 16.4771 29.9507 16.4296 30.0472C16.3821 30.1437 16.3735 30.2572 16.4055 30.3631C17.0398 32.3929 16.7887 32.6414 15.6522 31.1084C15.2875 30.6168 14.9307 28.9597 14.2726 30.7754C12.0789 28.9253 11.0878 29.3905 11.2992 32.1709C11.3086 32.3257 11.3451 32.4696 11.4042 32.585C11.4634 32.7005 11.5426 32.7825 11.6322 32.8211C12.2745 33.0986 12.5124 31.6952 12.9802 31.6555C13.0734 31.6501 13.1663 31.6952 13.239 31.7812C13.3116 31.8671 13.3582 31.9872 13.3687 32.1154C13.4374 32.9876 13.9475 32.9929 14.899 32.1313ZM29.1395 31.9648C30.1649 33.1488 30.5905 33.281 30.416 32.3612C30.3103 31.8221 30.0989 31.3278 29.7817 30.8785C28.9729 29.7367 28.5157 29.7684 28.41 30.9737C26.6603 32.6493 25.9203 32.4299 26.1899 30.3155C26.1979 30.2597 26.1956 30.2028 26.1831 30.1486C26.1706 30.0945 26.1482 30.0443 26.1174 30.0015C26.0866 29.9588 26.0482 29.9243 26.0046 29.9005C25.961 29.8767 25.9134 29.8641 25.8648 29.8636H22.9707C22.9148 29.8632 22.8595 29.875 22.8083 29.8984C22.757 29.9217 22.7109 29.9561 22.6729 29.9993C22.6349 30.0425 22.6058 30.0936 22.5875 30.1494C22.5691 30.2052 22.5619 30.2645 22.5663 30.3235L22.709 32.4167C22.716 32.5423 22.7657 32.6608 22.849 32.7498C22.9322 32.8389 23.0432 32.8925 23.161 32.9004C23.938 32.9638 24.3186 30.149 25.1353 32.3374C25.1788 32.456 25.2484 32.5607 25.3373 32.6413C25.4262 32.7219 25.5315 32.7756 25.6428 32.7973C26.9167 33.0352 28.0823 32.7577 29.1395 31.9648ZM31.8036 29.8715C30.7041 30.3948 30.5852 31.2062 31.4468 32.3057C31.5232 32.4047 31.6264 32.4779 31.7418 32.5149C31.8571 32.5519 31.9786 32.5509 32.089 32.5119C32.8872 32.2211 32.9612 31.5102 32.3111 30.379C33.5004 30.4371 33.9603 31.0212 33.6907 32.1313C33.6643 32.2429 33.6768 32.3589 33.7256 32.455C33.7744 32.5511 33.8556 32.6198 33.9523 32.6467C34.7347 32.8898 34.9699 32.5224 34.658 31.5445C34.6199 31.4227 34.6124 31.2965 34.6362 31.1802C34.66 31.0639 34.7143 30.9621 34.7928 30.8864C36.8226 28.9755 34.7452 33.4158 36.7275 32.7101C36.8429 32.6699 36.9661 32.6534 37.09 32.6616C37.2138 32.6697 37.3359 32.7024 37.449 32.7577C38.1785 33.1066 38.7785 33.014 39.2489 32.4802C39.2784 32.4473 39.2981 32.4073 39.3064 32.3639C39.3146 32.3204 39.3111 32.2748 39.2961 32.2314C39.2811 32.188 39.2551 32.148 39.2205 32.1153C39.1859 32.0825 39.1439 32.0581 39.0983 32.0441C37.7662 31.6053 37.6367 31.2168 38.7097 30.8785C38.826 30.8415 39.0718 30.8415 39.4471 30.8785C39.7379 30.9049 39.8145 30.712 39.6771 30.2997C39.6379 30.1823 39.5707 30.0757 39.4811 29.9888C39.3914 29.9019 39.282 29.8373 39.1617 29.8002C38.3741 29.5729 37.7503 29.7499 37.2905 30.3314C37.2773 30.348 37.2599 30.3605 37.2399 30.3677C37.2199 30.3749 37.1979 30.3766 37.1758 30.3726C37.1538 30.3687 37.1324 30.3592 37.1137 30.3451C37.0949 30.331 37.0794 30.3127 37.0684 30.2918C36.6324 29.4354 32.8185 29.7684 31.8036 29.8715Z" fill="#DB2E28"/>
<path d="M8.58918 26.1766C7.31262 26.684 7.36812 25.8594 7.83593 25.13C11.5546 19.1991 15.8759 10.7071 20.9346 6.25895C21.1307 6.08888 21.3773 5.9836 21.6403 5.95765C24.7432 5.64577 27.8514 5.52155 30.9648 5.58498C32.0035 5.60084 35.968 5.0141 33.7162 7.00427C33.3144 7.35844 33.0079 7.68352 32.7964 7.97954C28.6311 13.7571 24.6666 19.6748 20.9029 25.7326C20.8353 25.8439 20.7442 25.936 20.6387 25.9999C20.5331 26.0638 20.4165 26.0974 20.3003 26.0973L9.34245 26.0497C9.07286 26.0444 8.82177 26.0867 8.58918 26.1766Z" fill="#FEFEFE"/>
<path d="M33.8907 8.70105C37.1574 3.81679 41.6215 7.06768 43.0883 10.9053C44.8908 15.6363 44.3728 19.7805 41.5342 23.338C39.1397 26.351 35.6985 26.5016 34.0334 22.7671C33.9371 22.5436 33.9371 22.2786 34.0334 22.0297C35.5135 18.2396 35.4316 14.1033 33.7876 9.62082C33.7312 9.46856 33.7111 9.30585 33.729 9.14598C33.7469 8.98612 33.8023 8.83365 33.8907 8.70105Z" fill="#FEFEFE"/>
<path d="M52.5623 9.21631V27.2548C52.2292 21.2446 52.2292 15.2318 52.5623 9.21631Z" fill="#D12824" fill-opacity="0.996"/>
<path d="M33.8736 26.2796L25.1755 26.2082C23.0453 26.1924 22.5748 25.3228 23.7642 23.5996L29.592 15.1631C30.2792 14.1641 30.6016 14.2751 30.5593 15.4961C30.4113 19.6615 31.6509 22.9124 34.278 25.2488C35.0604 25.9466 34.9256 26.2902 33.8736 26.2796Z" fill="#FEFEFE"/>
<path d="M14.2747 30.7753L14.9011 32.1312C13.9496 32.9928 13.4395 32.9875 13.3708 32.1153C13.3603 31.987 13.3137 31.867 13.2411 31.781C13.1684 31.695 13.0755 31.6499 12.9823 31.6554C12.5145 31.6951 12.2766 33.0985 11.6343 32.821C11.5447 32.7824 11.4655 32.7003 11.4063 32.5849C11.3472 32.4694 11.3107 32.3255 11.3013 32.1708C11.0899 29.3904 12.081 28.9252 14.2747 30.7753Z" fill="#EB9A98"/>
<path d="M14.8998 32.1311L14.2734 30.7752C14.9315 28.9595 15.2883 30.6166 15.6531 31.1082C16.7896 32.6412 17.0406 32.3927 16.4063 30.3629C16.3743 30.257 16.383 30.1435 16.4305 30.047C16.478 29.9505 16.5605 29.8788 16.6601 29.8475C17.9921 29.4299 18.6238 29.8554 18.5551 31.1241C18.5477 31.2595 18.5628 31.3905 18.5996 31.509C18.6364 31.6276 18.6941 31.7314 18.7692 31.8139C20.6404 33.8992 18.0159 29.5145 20.4501 29.7286C20.57 29.7386 20.6856 29.7822 20.7846 29.8547C20.8837 29.9273 20.9627 30.0262 21.0131 30.1409C22.1073 32.62 21.1902 33.4631 18.2617 32.6702C18.0242 32.6083 17.7585 32.6249 17.5005 32.7178C16.5121 33.0825 15.6451 32.887 14.8998 32.1311Z" fill="#EB9A98"/>
<path d="M28.4113 30.9734C28.7972 31.2007 29.0404 31.531 29.1408 31.9645C28.0836 32.7574 26.918 33.0349 25.6441 32.797C25.5328 32.7753 25.4276 32.7216 25.3386 32.641C25.2497 32.5604 25.1801 32.4557 25.1366 32.3371C24.32 30.1487 23.9394 32.9635 23.1623 32.9001C23.0445 32.8922 22.9336 32.8386 22.8503 32.7495C22.7671 32.6605 22.7173 32.542 22.7104 32.4164L22.5676 30.3232C22.5633 30.2642 22.5705 30.2049 22.5888 30.1491C22.6072 30.0933 22.6363 30.0422 22.6743 29.999C22.7123 29.9558 22.7584 29.9214 22.8096 29.8981C22.8608 29.8747 22.9161 29.8629 22.972 29.8633H25.8661C25.9147 29.8638 25.9624 29.8764 26.0059 29.9002C26.0495 29.924 26.088 29.9585 26.1187 30.0012C26.1495 30.044 26.1719 30.0942 26.1844 30.1483C26.1969 30.2025 26.1992 30.2594 26.1912 30.3152C25.9216 32.4296 26.6616 32.649 28.4113 30.9734Z" fill="#EB9A98"/>
<path d="M32.3121 30.3787C32.2011 30.3787 32.032 30.2096 31.8047 29.8713C32.8196 29.7682 36.6334 29.4352 37.0695 30.2915C37.0805 30.3124 37.096 30.3308 37.1148 30.3449C37.1335 30.359 37.1549 30.3685 37.1769 30.3724C37.1989 30.3763 37.221 30.3746 37.241 30.3674C37.261 30.3602 37.2784 30.3478 37.2916 30.3312C37.7514 29.7497 38.3752 29.5726 39.1628 29.7999C39.283 29.837 39.3925 29.9017 39.4822 29.9886C39.5718 30.0754 39.639 30.182 39.6782 30.2995C39.8156 30.7118 39.739 30.9047 39.4482 30.8783C39.0729 30.8413 38.8271 30.8413 38.7108 30.8783C37.6378 31.2166 37.7673 31.6051 39.0994 32.0438C39.145 32.0578 39.187 32.0823 39.2216 32.115C39.2562 32.1478 39.2822 32.1877 39.2972 32.2312C39.3122 32.2746 39.3157 32.3202 39.3075 32.3636C39.2992 32.4071 39.2795 32.4471 39.25 32.4799C38.7796 33.0138 38.1796 33.1063 37.4501 32.7574C37.3369 32.7022 37.2149 32.6695 37.0911 32.6613C36.9672 32.6532 36.844 32.6697 36.7286 32.7099C34.7463 33.4155 36.8237 28.9753 34.7939 30.8862C34.7154 30.9619 34.6611 31.0637 34.6373 31.18C34.6135 31.2963 34.621 31.4225 34.6591 31.5443C34.971 32.5222 34.7358 32.8896 33.9534 32.6464C33.8567 32.6195 33.7755 32.5508 33.7267 32.4548C33.6779 32.3587 33.6654 32.2427 33.6918 32.131C33.9614 31.021 33.5015 30.4369 32.3121 30.3787Z" fill="#EB9A98"/>
<path d="M29.1396 31.9645C29.0392 31.5311 28.796 31.2007 28.4102 30.9734C28.5159 29.7682 28.9731 29.7365 29.7819 30.8783C30.099 31.3276 30.3105 31.8218 30.4162 32.361C30.5906 33.2807 30.1651 33.1486 29.1396 31.9645Z" fill="#DCE1DA" fill-opacity="0.961"/>
<path d="M31.8035 29.8712C32.0308 30.2095 32.2 30.3787 32.311 30.3787C32.9612 31.5099 32.8872 32.2209 32.089 32.5116C31.9786 32.5506 31.857 32.5516 31.7417 32.5146C31.6264 32.4776 31.5231 32.4044 31.4467 32.3054C30.5851 31.2059 30.7041 30.3945 31.8035 29.8712Z" fill="#EB9A98"/>
<path d="M52.5634 37.5625V39.9412L52.3969 39.8936C52.4762 39.4126 52.3335 39.0717 51.9688 38.8708V38.5378L52.5634 37.5625Z" fill="#0D0101" fill-opacity="0.043"/>
</g>
<defs>
<clipPath id="clip0_62_13356">
<rect width="52.3314" height="37.2663" fill="white" transform="translate(0.230469 0.64502)"/>
</clipPath>
</defs>
</svg>
