<svg width="138" height="138" viewBox="0 0 138 138" fill="none" xmlns="http://www.w3.org/2000/svg">
<path d="M82.6648 109.781C84.4772 109.781 86.2152 109.062 87.4967 107.78C88.7782 106.499 89.4982 104.76 89.4982 102.948V89.2815C89.4982 87.4692 88.7782 85.7311 87.4967 84.4496C86.2152 83.1681 84.4772 82.4481 82.6648 82.4481C80.8525 82.4481 79.1144 83.1681 77.8329 84.4496C76.5514 85.7311 75.8315 87.4692 75.8315 89.2815V102.948C75.8315 104.76 76.5514 106.499 77.8329 107.78C79.1144 109.062 80.8525 109.781 82.6648 109.781ZM55.3315 109.781C57.1438 109.781 58.8819 109.062 60.1634 107.78C61.4449 106.499 62.1648 104.76 62.1648 102.948V89.2815C62.1648 87.4692 61.4449 85.7311 60.1634 84.4496C58.8819 83.1681 57.1438 82.4481 55.3315 82.4481C53.5192 82.4481 51.7811 83.1681 50.4996 84.4496C49.2181 85.7311 48.4982 87.4692 48.4982 89.2815V102.948C48.4982 104.76 49.2181 106.499 50.4996 107.78C51.7811 109.062 53.5192 109.781 55.3315 109.781ZM116.831 27.7815H107.402L95.5798 4.20646C95.2186 3.33899 94.6824 2.55534 94.0046 1.9045C93.3268 1.25365 92.522 0.749588 91.6407 0.42381C90.7593 0.0980325 89.8201 -0.042459 88.882 0.0111158C87.9439 0.0646905 87.0268 0.311181 86.1883 0.735181C85.3497 1.15918 84.6076 1.75158 84.0083 2.47536C83.409 3.19913 82.9654 4.03873 82.7053 4.94168C82.4452 5.84463 82.3741 6.79153 82.4965 7.72321C82.6188 8.65488 82.932 9.5513 83.4165 10.3565L92.0948 27.7815H45.9015L54.5798 10.3565C55.2431 8.76365 55.2793 6.97889 54.6811 5.36052C54.0829 3.74214 52.8947 2.40995 51.3549 1.63142C49.8152 0.852892 48.0379 0.685658 46.3799 1.16329C44.722 1.64093 43.3061 2.72807 42.4165 4.20646L30.5948 27.7815H21.1648C16.335 27.8549 11.6862 29.6316 8.03835 32.798C4.39053 35.9645 1.97803 40.3174 1.22634 45.089C0.474653 49.8606 1.43206 54.7443 3.92971 58.8789C6.42736 63.0135 10.3048 66.1333 14.8782 67.6881L19.9348 118.665C20.4448 123.739 22.8277 128.441 26.6183 131.853C30.409 135.264 35.3351 137.14 40.4348 137.115H97.6982C102.798 137.14 107.724 135.264 111.515 131.853C115.305 128.441 117.688 123.739 118.198 118.665L123.255 67.6881C127.838 66.1287 131.722 62.9975 134.218 58.8491C136.713 54.7007 137.661 49.8028 136.891 45.0229C136.122 40.2431 133.686 35.8898 130.014 32.7341C126.343 29.5784 121.673 27.8239 116.831 27.7815ZM104.463 117.298C104.293 118.99 103.499 120.557 102.235 121.694C100.972 122.831 99.3298 123.457 97.6298 123.448H40.3665C38.6666 123.457 37.0246 122.831 35.761 121.694C34.4975 120.557 33.7031 118.99 33.5332 117.298L28.6815 68.7815H109.315L104.463 117.298ZM116.831 55.1148H21.1648C19.3525 55.1148 17.6144 54.3949 16.3329 53.1134C15.0514 51.8319 14.3315 50.0938 14.3315 48.2815C14.3315 46.4692 15.0514 44.7311 16.3329 43.4496C17.6144 42.1681 19.3525 41.4481 21.1648 41.4481H116.831C118.644 41.4481 120.382 42.1681 121.663 43.4496C122.945 44.7311 123.665 46.4692 123.665 48.2815C123.665 50.0938 122.945 51.8319 121.663 53.1134C120.382 54.3949 118.644 55.1148 116.831 55.1148Z" fill="#F6F6F6"/>
</svg>
