<svg width="185" height="191" viewBox="0 0 185 191" fill="none" xmlns="http://www.w3.org/2000/svg">
<g opacity="0.15">
<circle cx="8.61817" cy="8.61817" r="8.61817" transform="matrix(-1 0 0 1 172.359 0)" fill="#D9D9D9"/>
<circle cx="8.61817" cy="8.61817" r="8.61817" transform="matrix(-1 0 0 1 172.359 57.9141)" fill="#D9D9D9"/>
<circle cx="8.61817" cy="8.61817" r="8.61817" transform="matrix(-1 0 0 1 172.359 115.828)" fill="#D9D9D9"/>
<circle cx="8.61817" cy="8.61817" r="8.61817" transform="matrix(-1 0 0 1 172.359 173.742)" fill="#D9D9D9"/>
<circle cx="8.61817" cy="8.61817" r="8.61817" transform="matrix(-1 0 0 1 120.652 0)" fill="#D9D9D9"/>
<circle cx="8.61817" cy="8.61817" r="8.61817" transform="matrix(-1 0 0 1 120.652 57.914)" fill="#D9D9D9"/>
<circle cx="8.61817" cy="8.61817" r="8.61817" transform="matrix(-1 0 0 1 120.652 115.828)" fill="#D9D9D9"/>
<circle cx="8.61817" cy="8.61817" r="8.61817" transform="matrix(-1 0 0 1 120.652 173.742)" fill="#D9D9D9"/>
<circle cx="8.61817" cy="8.61817" r="8.61817" transform="matrix(-1 0 0 1 68.9453 0)" fill="#D9D9D9"/>
<circle cx="8.61817" cy="8.61817" r="8.61817" transform="matrix(-1 0 0 1 68.9453 57.9141)" fill="#D9D9D9"/>
<circle cx="8.61817" cy="8.61817" r="8.61817" transform="matrix(-1 0 0 1 17.2344 0)" fill="#D9D9D9"/>
<circle cx="8.61817" cy="8.61817" r="8.61817" transform="matrix(-1 0 0 1 17.2344 57.914)" fill="#D9D9D9"/>
</g>
</svg>
