<svg width="136" height="150" viewBox="0 0 136 150" fill="none" xmlns="http://www.w3.org/2000/svg">
<path d="M86.9477 69.75C90.3563 65.4896 92.232 60.206 92.2727 54.75C92.2727 48.2058 89.673 41.9296 85.0455 37.3021C80.4181 32.6747 74.1419 30.075 67.5977 30.075C61.0534 30.075 54.7773 32.6747 50.1498 37.3021C45.5223 41.9296 42.9227 48.2058 42.9227 54.75C42.9633 60.206 44.839 65.4896 48.2477 69.75C41.5624 73.8183 36.3174 79.8763 33.2477 87.075C32.818 87.9883 32.5771 88.979 32.5395 89.9877C32.5019 90.9964 32.6682 92.0023 33.0286 92.9451C33.3889 93.8879 33.9359 94.7484 34.6367 95.4748C35.3375 96.2012 36.1778 96.7787 37.1071 97.1726C38.0364 97.5666 39.0357 97.7689 40.045 97.7674C41.0544 97.766 42.0531 97.5608 42.9813 97.1642C43.9095 96.7676 44.748 96.1877 45.4468 95.4593C46.1455 94.7308 46.69 93.8689 47.0477 92.925C48.7714 88.8956 51.6344 85.4573 55.2851 83.0324C58.9357 80.6075 63.2151 79.3016 67.5977 79.275C71.993 79.287 76.2886 80.5861 79.9539 83.0119C83.6193 85.4377 86.4938 88.8839 88.2227 92.925C88.7968 94.2806 89.7572 95.4373 90.9842 96.2508C92.2112 97.0643 93.6505 97.4988 95.1227 97.5C96.1262 97.4813 97.1178 97.2779 98.0477 96.9C99.8766 96.123 101.323 94.652 102.068 92.8099C102.813 90.9678 102.797 88.9051 102.023 87.075C98.9332 79.8656 93.6609 73.8063 86.9477 69.75ZM67.5977 64.275C65.6809 64.2749 63.8074 63.7056 62.2148 62.6391C60.6222 61.5727 59.3822 60.0572 58.6522 58.2849C57.9221 56.5127 57.735 54.5635 58.1144 52.6847C58.4938 50.806 59.4228 49.0822 60.7834 47.7322C62.1439 46.3821 63.8749 45.4666 65.7566 45.1018C67.6382 44.737 69.5859 44.9394 71.3524 45.6832C73.1189 46.427 74.6247 47.6787 75.6787 49.2796C76.7327 50.8805 77.2875 52.7583 77.2727 54.675C77.2529 57.2279 76.2248 59.6696 74.4125 61.4678C72.6003 63.266 70.1507 64.2751 67.5977 64.275ZM112.598 0H22.5977C16.6303 0 10.9073 2.37053 6.68775 6.5901C2.46819 10.8097 0.0976563 16.5326 0.0976562 22.5V105C0.0976563 110.967 2.46819 116.69 6.68775 120.91C10.9073 125.129 16.6303 127.5 22.5977 127.5H42.0227L62.2727 147.825C62.9735 148.52 63.8046 149.07 64.7184 149.443C65.6321 149.817 66.6106 150.006 67.5977 150C69.3852 150 71.1141 149.362 72.4727 148.2L96.6227 127.5H112.598C118.565 127.5 124.288 125.129 128.508 120.91C132.727 116.69 135.098 110.967 135.098 105V22.5C135.098 16.5326 132.727 10.8097 128.508 6.5901C124.288 2.37053 118.565 0 112.598 0ZM120.098 105C120.098 106.989 119.307 108.897 117.901 110.303C116.494 111.71 114.587 112.5 112.598 112.5H93.8477C92.0601 112.5 90.3312 113.138 88.9727 114.3L67.9727 132.3L50.4227 114.675C49.7219 113.98 48.8907 113.43 47.977 113.057C47.0632 112.683 46.0847 112.494 45.0977 112.5H22.5977C20.6085 112.5 18.7009 111.71 17.2944 110.303C15.8878 108.897 15.0977 106.989 15.0977 105V22.5C15.0977 20.5109 15.8878 18.6032 17.2944 17.1967C18.7009 15.7902 20.6085 15 22.5977 15H112.598C114.587 15 116.494 15.7902 117.901 17.1967C119.307 18.6032 120.098 20.5109 120.098 22.5V105Z" fill="#F6F6F6"/>
</svg>
