<svg width="329" height="306" viewBox="0 0 329 306" fill="none" xmlns="http://www.w3.org/2000/svg">
<g opacity="0.15">
<circle cx="13.8077" cy="13.8077" r="13.8077" transform="matrix(-1 0 0 1 276.152 0)" fill="#D9D9D9"/>
<circle cx="13.8077" cy="13.8077" r="13.8077" transform="matrix(-1 0 0 1 276.152 92.7876)" fill="#D9D9D9"/>
<circle cx="13.8077" cy="13.8077" r="13.8077" transform="matrix(-1 0 0 1 276.152 185.575)" fill="#D9D9D9"/>
<circle cx="13.8077" cy="13.8077" r="13.8077" transform="matrix(-1 0 0 1 276.152 278.363)" fill="#D9D9D9"/>
<circle cx="13.8077" cy="13.8077" r="13.8077" transform="matrix(-1 0 0 1 193.309 0)" fill="#D9D9D9"/>
<circle cx="13.8077" cy="13.8077" r="13.8077" transform="matrix(-1 0 0 1 193.309 92.7876)" fill="#D9D9D9"/>
<circle cx="13.8077" cy="13.8077" r="13.8077" transform="matrix(-1 0 0 1 193.309 185.575)" fill="#D9D9D9"/>
<circle cx="13.8077" cy="13.8077" r="13.8077" transform="matrix(-1 0 0 1 193.309 278.363)" fill="#D9D9D9"/>
<circle cx="13.8077" cy="13.8077" r="13.8077" transform="matrix(-1 0 0 1 110.461 0)" fill="#D9D9D9"/>
<circle cx="13.8077" cy="13.8077" r="13.8077" transform="matrix(-1 0 0 1 110.461 92.7876)" fill="#D9D9D9"/>
<circle cx="13.8077" cy="13.8077" r="13.8077" transform="matrix(-1 0 0 1 27.6172 0)" fill="#D9D9D9"/>
<circle cx="13.8077" cy="13.8077" r="13.8077" transform="matrix(-1 0 0 1 27.6172 92.7876)" fill="#D9D9D9"/>
</g>
</svg>
