<svg width="24" height="22" viewBox="0 0 24 22" fill="none" xmlns="http://www.w3.org/2000/svg">
<g opacity="0.2">
<path fill-rule="evenodd" clip-rule="evenodd" d="M12.86 19.0159C13.1249 19.2369 13.4307 19.4036 13.7601 19.5064C14.0894 19.6091 14.4358 19.646 14.7794 19.6148C15.123 19.5836 15.4571 19.4849 15.7625 19.3245C16.068 19.1641 16.3388 18.945 16.5595 18.6799L22.3923 11.6799C22.8182 11.143 23.0173 10.4609 22.9471 9.77925C22.8769 9.09757 22.5429 8.47039 22.0164 8.03168C21.49 7.59297 20.8128 7.37753 20.1297 7.43138C19.4465 7.48522 18.8115 7.80409 18.3603 8.31986L12.5258 15.3199C12.0804 15.8546 11.8656 16.5443 11.9286 17.2374C11.9916 17.9305 12.3255 18.5702 12.86 19.0159Z" fill="#ED4545"/>
<path fill-rule="evenodd" clip-rule="evenodd" d="M12.8592 0.983863C12.3247 1.42954 11.9891 2.06923 11.9261 2.76231C11.8631 3.45538 12.0779 4.14511 12.5232 4.67986L18.3577 11.6799C18.5753 11.9541 18.8455 12.182 19.1524 12.3502C19.4594 12.5184 19.7969 12.6236 20.1451 12.6594C20.4932 12.6953 20.8451 12.6612 21.1799 12.5591C21.5147 12.457 21.8257 12.2889 22.0945 12.0648C22.3634 11.8408 22.5848 11.5652 22.7456 11.2543C22.9064 10.9434 23.0034 10.6035 23.0309 10.2545C23.0584 9.90559 23.0159 9.55467 22.9058 9.22242C22.7957 8.89018 22.6202 8.5833 22.3897 8.31987L16.557 1.31987C16.3363 1.05495 16.0656 0.836112 15.7603 0.67585C15.455 0.515587 15.1211 0.417041 14.7777 0.385839C14.4343 0.354637 14.0882 0.391391 13.759 0.494003C13.4298 0.596613 13.1241 0.763069 12.8592 0.983863Z" fill="#ED4545"/>
<path fill-rule="evenodd" clip-rule="evenodd" d="M19.5 10C19.5 9.30384 19.2234 8.63616 18.7312 8.14388C18.2389 7.65159 17.5712 7.37503 16.875 7.37503L2.875 7.37503C2.17881 7.37503 1.51113 7.65159 1.01884 8.14387C0.526562 8.63616 0.249998 9.30384 0.249998 10C0.249998 10.6962 0.526562 11.3639 1.01884 11.8562C1.51113 12.3485 2.17881 12.625 2.875 12.625L16.875 12.625C17.5712 12.625 18.2389 12.3485 18.7312 11.8562C19.2234 11.3639 19.5 10.6962 19.5 10Z" fill="#ED4545"/>
</g>
<path fill-rule="evenodd" clip-rule="evenodd" d="M14.8555 21.1719C15.0338 21.3203 15.2637 21.3919 15.4947 21.3709C15.7257 21.3499 15.939 21.238 16.0875 21.0599L21.9203 14.0599C21.9971 13.9721 22.0556 13.8698 22.0923 13.759C22.129 13.6483 22.1432 13.5313 22.134 13.415C22.1248 13.2987 22.0925 13.1854 22.0389 13.0817C21.9853 12.9781 21.9115 12.8862 21.8219 12.8115C21.7322 12.7368 21.6286 12.6808 21.517 12.6468C21.4054 12.6128 21.2881 12.6014 21.172 12.6133C21.056 12.6253 20.9435 12.6603 20.8412 12.7164C20.7389 12.7725 20.6488 12.8485 20.5763 12.9399L14.7435 19.9399C14.5951 20.1181 14.5235 20.348 14.5445 20.5791C14.5655 20.8101 14.6774 21.0233 14.8555 21.1719Z" fill="#ED4545"/>
<path fill-rule="evenodd" clip-rule="evenodd" d="M14.8555 5.82798C14.6774 5.97654 14.5655 6.18977 14.5445 6.42079C14.5235 6.65182 14.5951 6.88173 14.7435 7.05998L20.5763 14.06C20.6488 14.1514 20.7389 14.2274 20.8412 14.2834C20.9435 14.3395 21.056 14.3745 21.172 14.3865C21.2881 14.3985 21.4054 14.3871 21.517 14.3531C21.6286 14.319 21.7322 14.263 21.8219 14.1883C21.9115 14.1136 21.9853 14.0217 22.0389 13.9181C22.0925 13.8145 22.1248 13.7012 22.134 13.5849C22.1432 13.4686 22.129 13.3516 22.0923 13.2408C22.0556 13.1301 21.9971 13.0278 21.9203 12.94L16.0875 5.93998C15.939 5.76181 15.7257 5.64993 15.4947 5.62893C15.2637 5.60793 15.0338 5.67952 14.8555 5.82798Z" fill="#ED4545"/>
<path fill-rule="evenodd" clip-rule="evenodd" d="M21.25 13.5C21.25 13.2679 21.1578 13.0454 20.9937 12.8813C20.8296 12.7172 20.6071 12.625 20.375 12.625L3.75 12.625C3.51793 12.625 3.29538 12.7172 3.13128 12.8813C2.96719 13.0454 2.875 13.2679 2.875 13.5C2.875 13.7321 2.96719 13.9546 3.13128 14.1187C3.29538 14.2828 3.51793 14.375 3.75 14.375L20.375 14.375C20.6071 14.375 20.8296 14.2828 20.9937 14.1187C21.1578 13.9546 21.25 13.7321 21.25 13.5Z" fill="#ED4545"/>
</svg>
