<svg width="66" height="47" viewBox="0 0 66 47" fill="none" xmlns="http://www.w3.org/2000/svg">
<g clip-path="url(#clip0_62_12784)">
<path d="M2.80859 0C4.39526 0.42 5.97859 0.42 7.55859 0" stroke="#D12824" stroke-opacity="0.996" stroke-width="2"/>
<path d="M7.80859 0C23.0619 0.42 38.3119 0.42 53.5586 0" stroke="#D12824" stroke-opacity="0.996" stroke-width="2"/>
<path d="M65.9986 10.8101C65.5786 18.3967 65.5786 25.9801 65.9986 33.5601" stroke="#D12824" stroke-opacity="0.996" stroke-width="2"/>
<path d="M66 46.56L65.25 47.79" stroke="#C92623" stroke-opacity="0.522" stroke-width="2"/>
<path d="M65.25 47.79C61.8233 47.5033 58.3933 47.3933 54.96 47.46C43.95 47.67 33 47.38 22 47.71" stroke="#BC201A" stroke-opacity="0.71" stroke-width="2"/>
<path d="M63.9626 2.97606C63.9623 2.8106 63.9294 2.64681 63.8658 2.49405C63.8022 2.34129 63.7092 2.20255 63.592 2.08575C63.4748 1.96896 63.3357 1.87639 63.1827 1.81333C63.0297 1.75028 62.8658 1.71797 62.7004 1.71826L3.48047 1.82156C3.31501 1.82185 3.15121 1.85473 2.99845 1.91832C2.84569 1.9819 2.70695 2.07496 2.59015 2.19216C2.47335 2.30937 2.38079 2.44843 2.31774 2.60141C2.25468 2.7544 2.22237 2.9183 2.22266 3.08376L2.29537 44.7237C2.29565 44.8891 2.32853 45.0529 2.39212 45.2057C2.45571 45.3584 2.54877 45.4972 2.66597 45.614C2.78318 45.7308 2.92223 45.8233 3.07521 45.8864C3.22819 45.9494 3.39209 45.9818 3.55756 45.9815L62.7775 45.8782C62.9429 45.8779 63.1067 45.845 63.2595 45.7814C63.4122 45.7178 63.551 45.6248 63.6678 45.5076C63.7846 45.3904 63.8771 45.2513 63.9402 45.0983C64.0032 44.9453 64.0356 44.7814 64.0353 44.616L63.9626 2.97606Z" stroke="#C92623" stroke-opacity="0.522" stroke-width="2"/>
<path d="M62.7392 3.57023C62.7392 3.41641 62.6781 3.26888 62.5694 3.16011C62.4606 3.05134 62.3131 2.99023 62.1592 2.99023H4.27922C4.1254 2.99023 3.97787 3.05134 3.86909 3.16011C3.76032 3.26888 3.69922 3.41641 3.69922 3.57023V44.1702C3.69922 44.3241 3.76032 44.4716 3.86909 44.5804C3.97787 44.6891 4.1254 44.7502 4.27922 44.7502H62.1592C62.3131 44.7502 62.4606 44.6891 62.5694 44.5804C62.6781 44.4716 62.7392 44.3241 62.7392 44.1702V3.57023Z" stroke="#D22C26" stroke-opacity="0.522" stroke-width="2"/>
<path d="M11.4913 32.0399L25.3113 32.0999C25.4578 32.1 25.6048 32.0577 25.738 31.9771C25.8712 31.8965 25.986 31.7803 26.0713 31.6399C30.818 23.9999 35.818 16.5366 41.0713 9.24992C41.338 8.87659 41.7246 8.46659 42.2313 8.01993C45.0713 5.50993 40.0713 6.24992 38.7613 6.22992C34.8346 6.14992 30.9146 6.30659 27.0013 6.69992C26.6696 6.73265 26.3586 6.86543 26.1113 7.07992C19.7313 12.6899 14.2813 23.3999 9.5913 30.8799C9.0013 31.7999 8.93129 32.8399 10.5413 32.1999C10.8346 32.0866 11.1513 32.0333 11.4913 32.0399Z" stroke="#ED9693" stroke-width="2"/>
<path d="M54.0502 12.94C52.2002 8.1 46.5702 4 42.4502 10.16C42.3388 10.3272 42.2689 10.5195 42.2463 10.7211C42.2237 10.9228 42.249 11.128 42.3202 11.32C44.3935 16.9733 44.4969 22.19 42.6302 26.97C42.5087 27.2839 42.5087 27.6181 42.6302 27.9C44.7302 32.61 49.0702 32.42 52.0902 28.62C55.6702 24.1333 56.3235 18.9067 54.0502 12.94Z" stroke="#ED9693" stroke-width="2"/>
<path d="M42.4311 32.33C43.7578 32.3433 43.9278 31.91 42.9411 31.03C39.6278 28.0833 38.0645 23.9833 38.2511 18.73C38.3045 17.19 37.8978 17.05 37.0311 18.31L29.6811 28.95C28.1811 31.1233 28.7745 32.22 31.4611 32.24L42.4311 32.33Z" stroke="#ED9693" stroke-width="2"/>
<path d="M18.5009 39.7099C19.4409 40.6633 20.5343 40.9099 21.7809 40.4499C22.1063 40.3328 22.4414 40.3118 22.7409 40.3899C26.4343 41.3899 27.5909 40.3266 26.2109 37.1999C26.1473 37.0553 26.0478 36.9306 25.9228 36.8391C25.7979 36.7475 25.6521 36.6925 25.5009 36.6799C22.4309 36.4099 25.7409 41.9399 23.3809 39.3099C23.2863 39.2058 23.2135 39.075 23.1671 38.9254C23.1207 38.7759 23.1016 38.6107 23.1109 38.4399C23.1976 36.8399 22.4009 36.3033 20.7209 36.8299C20.5953 36.8694 20.4913 36.9598 20.4314 37.0815C20.3715 37.2032 20.3605 37.3463 20.4009 37.4799C21.2009 40.0399 20.8843 40.3533 19.4509 38.4199C18.9909 37.7999 18.5409 35.7099 17.7109 37.9999" stroke="#E36460" stroke-width="2"/>
<path d="M17.7109 38C14.9443 35.6666 13.6943 36.2533 13.9609 39.76C13.9728 39.9551 14.0188 40.1366 14.0934 40.2822C14.168 40.4278 14.2679 40.5313 14.3809 40.58C15.1909 40.93 15.4909 39.16 16.0809 39.11C16.1986 39.1031 16.3158 39.1599 16.4074 39.2684C16.499 39.3768 16.5577 39.5282 16.5709 39.69C16.6576 40.79 17.3009 40.7966 18.5009 39.71" stroke="#E36460" stroke-width="2"/>
<path d="M17.7109 38L18.5009 39.71" stroke="#EB9A98" stroke-width="2"/>
<path d="M36.4591 39.4999C37.7524 40.9932 38.2891 41.1599 38.0691 39.9999C37.9357 39.3199 37.6691 38.6966 37.2691 38.1299C36.2491 36.6899 35.6724 36.7299 35.5391 38.2499" stroke="#DB867F" stroke-opacity="0.98" stroke-width="2"/>
<path d="M35.5395 38.2501C33.3329 40.3634 32.3995 40.0868 32.7395 37.4201C32.7497 37.3497 32.7467 37.2779 32.731 37.2096C32.7152 37.1413 32.687 37.0781 32.6482 37.0241C32.6093 36.9701 32.5608 36.9267 32.5059 36.8967C32.4509 36.8667 32.3908 36.8508 32.3295 36.8501H28.6795C28.6091 36.8496 28.5393 36.8645 28.4747 36.894C28.41 36.9234 28.3519 36.9668 28.304 37.0213C28.2561 37.0758 28.2194 37.1402 28.1963 37.2106C28.1731 37.281 28.164 37.3557 28.1695 37.4301L28.3495 40.0701C28.3583 40.2285 28.421 40.3779 28.526 40.4902C28.631 40.6026 28.771 40.6701 28.9195 40.6801C29.8995 40.7601 30.3795 37.2101 31.4095 39.9701C31.4644 40.1197 31.5521 40.2517 31.6643 40.3533C31.7765 40.4549 31.9092 40.5227 32.0495 40.5501C33.6562 40.8501 35.1262 40.5001 36.4595 39.5001" stroke="#E36460" stroke-width="2"/>
<path d="M35.5391 38.25C36.0257 38.5367 36.3324 38.9533 36.4591 39.5" stroke="#E4BDB8" stroke-opacity="0.98" stroke-width="2"/>
<path d="M39.8185 36.8599C38.4318 37.5199 38.2818 38.5432 39.3685 39.9299C39.4649 40.0547 39.5951 40.147 39.7405 40.1937C39.886 40.2404 40.0392 40.239 40.1785 40.1899C41.1851 39.8232 41.2785 38.9265 40.4585 37.4999" stroke="#E36460" stroke-width="2"/>
<path d="M40.4603 37.4998C41.9603 37.5731 42.5403 38.3098 42.2003 39.7098C42.167 39.8506 42.1828 39.9969 42.2444 40.118C42.3059 40.2392 42.4083 40.3258 42.5303 40.3598C43.517 40.6664 43.8136 40.2031 43.4203 38.9698C43.3723 38.8161 43.3627 38.6569 43.3928 38.5103C43.4228 38.3636 43.4912 38.2353 43.5903 38.1398C46.1503 35.7298 43.5303 41.3298 46.0303 40.4398C46.1759 40.3891 46.3313 40.3683 46.4875 40.3786C46.6436 40.3889 46.7976 40.4301 46.9403 40.4998C47.8603 40.9398 48.617 40.8231 49.2103 40.1498C49.2475 40.1084 49.2724 40.0579 49.2828 40.0031C49.2932 39.9483 49.2887 39.8908 49.2698 39.836C49.2508 39.7812 49.2181 39.7309 49.1745 39.6896C49.1309 39.6483 49.0779 39.6174 49.0203 39.5998C47.3403 39.0464 47.177 38.5564 48.5303 38.1298C48.677 38.0831 48.987 38.0831 49.4603 38.1298C49.827 38.1631 49.9236 37.9198 49.7503 37.3998C49.7009 37.2517 49.6161 37.1173 49.5031 37.0077C49.3901 36.8981 49.252 36.8166 49.1003 36.7698C48.107 36.4831 47.3203 36.7064 46.7403 37.4398C46.7237 37.4607 46.7018 37.4764 46.6765 37.4855C46.6513 37.4946 46.6235 37.4967 46.5957 37.4918C46.568 37.4868 46.541 37.4749 46.5174 37.4571C46.4937 37.4393 46.4741 37.4161 46.4603 37.3898C45.9103 36.3098 41.1003 36.7298 39.8203 36.8598" stroke="#E36460" stroke-width="2"/>
<path d="M40.4603 37.4999C40.3203 37.4999 40.107 37.2865 39.8203 36.8599" stroke="#EB9A98" stroke-width="2"/>
<path d="M0.868646 -0.00976562L2.80865 0.000234375C4.39532 0.420234 5.97865 0.420234 7.55865 0.000234375H7.80865C23.062 0.420234 38.312 0.420234 53.5586 0.000234375H65.9986V10.8102C65.5787 18.3969 65.5787 25.9802 65.9986 33.5602V46.5602L65.2486 47.7902C61.822 47.5036 58.392 47.3936 54.9587 47.4602C43.9487 47.6702 32.9986 47.3802 21.9987 47.7102L1.22865 47.5202C1.10698 47.5202 0.986524 47.4971 0.874246 47.4522C0.761968 47.4073 0.66011 47.3416 0.574548 47.2588C0.488986 47.176 0.421427 47.0779 0.375787 46.97C0.330147 46.8621 0.307323 46.7466 0.308648 46.6302L0.868646 -0.00976562ZM63.9622 2.97643C63.962 2.81097 63.9291 2.64718 63.8655 2.49442C63.8019 2.34166 63.7089 2.20292 63.5917 2.08612C63.4744 1.96933 63.3354 1.87676 63.1824 1.8137C63.0294 1.75065 62.8655 1.71835 62.7001 1.71863L3.48016 1.82193C3.31469 1.82222 3.15089 1.8551 2.99813 1.91869C2.84537 1.98228 2.70663 2.07533 2.58984 2.19253C2.47304 2.30974 2.38048 2.4488 2.31742 2.60179C2.25437 2.75477 2.22206 2.91867 2.22234 3.08413L2.29505 44.724C2.29534 44.8895 2.32822 45.0533 2.39181 45.206C2.4554 45.3588 2.54845 45.4975 2.66566 45.6143C2.78286 45.7311 2.92192 45.8237 3.0749 45.8868C3.22788 45.9498 3.39178 45.9821 3.55724 45.9818L62.7772 45.8785C62.9426 45.8782 63.1064 45.8454 63.2592 45.7818C63.4119 45.7182 63.5507 45.6251 63.6675 45.5079C63.7843 45.3907 63.8768 45.2517 63.9399 45.0987C64.0029 44.9457 64.0352 44.7818 64.035 44.6163L63.9622 2.97643Z" fill="#D12824" fill-opacity="0.996"/>
<path d="M2.80859 0H7.55859C5.97859 0.42 4.39526 0.42 2.80859 0Z" fill="#D12824" fill-opacity="0.996"/>
<path d="M7.80859 0H53.5586C38.3119 0.42 23.0619 0.42 7.80859 0Z" fill="#D12824" fill-opacity="0.996"/>
<path d="M64.0353 44.616C64.0356 44.7814 64.0032 44.9453 63.9402 45.0983C63.8771 45.2513 63.7846 45.3904 63.6678 45.5076C63.551 45.6248 63.4122 45.7178 63.2595 45.7814C63.1067 45.845 62.9429 45.8779 62.7775 45.8782L3.55756 45.9815C3.39209 45.9818 3.22819 45.9494 3.07521 45.8864C2.92223 45.8233 2.78318 45.7308 2.66597 45.614C2.54877 45.4972 2.45571 45.3584 2.39212 45.2057C2.32853 45.0529 2.29565 44.8891 2.29537 44.7237L2.22266 3.08376C2.22237 2.9183 2.25468 2.7544 2.31774 2.60141C2.38079 2.44843 2.47335 2.30937 2.59015 2.19216C2.70695 2.07496 2.84569 1.9819 2.99845 1.91832C3.15121 1.85473 3.31501 1.82185 3.48047 1.82156L62.7004 1.71826C62.8658 1.71797 63.0297 1.75028 63.1827 1.81333C63.3357 1.87639 63.4748 1.96896 63.592 2.08575C63.7092 2.20255 63.8022 2.34129 63.8658 2.49405C63.9294 2.64681 63.9623 2.8106 63.9626 2.97606L64.0353 44.616ZM62.739 3.56986C62.739 3.41604 62.6779 3.26851 62.5691 3.15974C62.4603 3.05097 62.3128 2.98986 62.159 2.98986H4.27896C4.12514 2.98986 3.97761 3.05097 3.86884 3.15974C3.76007 3.26851 3.69896 3.41604 3.69896 3.56986V44.1699C3.69896 44.3237 3.76007 44.4712 3.86884 44.58C3.97761 44.6888 4.12514 44.7499 4.27896 44.7499H62.159C62.3128 44.7499 62.4603 44.6888 62.5691 44.58C62.6779 44.4712 62.739 44.3237 62.739 44.1699V3.56986Z" fill="#0D0101" fill-opacity="0.043"/>
<path d="M62.7392 44.1702C62.7392 44.3241 62.6781 44.4716 62.5694 44.5804C62.4606 44.6891 62.313 44.7502 62.1592 44.7502H4.27922C4.12539 44.7502 3.97787 44.6891 3.86909 44.5804C3.76032 44.4716 3.69922 44.3241 3.69922 44.1702V3.57023C3.69922 3.41641 3.76032 3.26888 3.86909 3.16011C3.97787 3.05134 4.12539 2.99023 4.27922 2.99023H62.1592C62.313 2.99023 62.4606 3.05134 62.5694 3.16011C62.6781 3.26888 62.7392 3.41641 62.7392 3.57023V44.1702ZM11.4892 32.0402L25.3092 32.1002C25.4558 32.1003 25.6028 32.058 25.7359 31.9774C25.8691 31.8968 25.9839 31.7806 26.0692 31.6402C30.8159 24.0002 35.8159 16.5369 41.0692 9.25023C41.3359 8.8769 41.7225 8.4669 42.2292 8.02024C45.0692 5.51024 40.0692 6.25023 38.7592 6.23023C34.8326 6.15023 30.9126 6.3069 26.9992 6.70023C26.6675 6.73296 26.3565 6.86574 26.1092 7.08023C19.7292 12.6902 14.2792 23.4002 9.58922 30.8802C8.99922 31.8002 8.92921 32.8402 10.5392 32.2002C10.8325 32.0869 11.1492 32.0336 11.4892 32.0402ZM54.0492 12.9402C52.1992 8.10023 46.5692 4.00023 42.4492 10.1602C42.3378 10.3275 42.2679 10.5198 42.2453 10.7214C42.2227 10.923 42.2481 11.1282 42.3192 11.3202C44.3926 16.9736 44.4959 22.1902 42.6292 26.9702C42.5077 27.2841 42.5077 27.6183 42.6292 27.9002C44.7292 32.6102 49.0692 32.4202 52.0892 28.6202C55.6692 24.1336 56.3226 18.9069 54.0492 12.9402ZM42.4292 32.3302C43.7559 32.3436 43.9259 31.9102 42.9392 31.0302C39.6259 28.0836 38.0626 23.9836 38.2492 18.7302C38.3026 17.1902 37.8959 17.0502 37.0292 18.3102L29.6792 28.9502C28.1792 31.1236 28.7726 32.2202 31.4592 32.2402L42.4292 32.3302ZM18.4992 39.7102C19.4392 40.6636 20.5326 40.9102 21.7792 40.4502C22.1046 40.3331 22.4397 40.3121 22.7392 40.3902C26.4326 41.3902 27.5892 40.3269 26.2092 37.2002C26.1456 37.0556 26.0461 36.9309 25.9211 36.8394C25.7962 36.7478 25.6504 36.6929 25.4992 36.6802C22.4292 36.4102 25.7392 41.9402 23.3792 39.3102C23.2846 39.2061 23.2118 39.0753 23.1654 38.9258C23.119 38.7762 23.0999 38.611 23.1092 38.4402C23.1959 36.8402 22.3992 36.3036 20.7192 36.8302C20.5936 36.8697 20.4896 36.9601 20.4297 37.0818C20.3698 37.2035 20.3588 37.3467 20.3992 37.4802C21.1992 40.0402 20.8826 40.3536 19.4492 38.4202C18.9892 37.8002 18.5392 35.7102 17.7092 38.0002C14.9426 35.6669 13.6926 36.2536 13.9592 39.7602C13.9711 39.9554 14.0171 40.1369 14.0917 40.2825C14.1662 40.4281 14.2662 40.5316 14.3792 40.5802C15.1892 40.9302 15.4892 39.1602 16.0792 39.1102C16.1968 39.1033 16.314 39.1602 16.4057 39.2687C16.4973 39.3771 16.556 39.5285 16.5692 39.6902C16.6559 40.7902 17.2992 40.7969 18.4992 39.7102ZM36.4592 39.5002C37.7526 40.9936 38.2892 41.1602 38.0692 40.0002C37.9359 39.3202 37.6692 38.6969 37.2692 38.1302C36.2492 36.6902 35.6725 36.7302 35.5392 38.2502C33.3325 40.3636 32.3992 40.0869 32.7392 37.4202C32.7493 37.3498 32.7464 37.278 32.7307 37.2097C32.7149 37.1414 32.6867 37.0782 32.6478 37.0242C32.609 36.9703 32.5605 36.9268 32.5056 36.8968C32.4506 36.8668 32.3905 36.8509 32.3292 36.8502H28.6792C28.6087 36.8497 28.539 36.8646 28.4744 36.8941C28.4097 36.9235 28.3516 36.9669 28.3037 37.0214C28.2558 37.0759 28.2191 37.1403 28.1959 37.2107C28.1728 37.2811 28.1637 37.3558 28.1692 37.4302L28.3492 40.0702C28.358 40.2286 28.4207 40.378 28.5257 40.4904C28.6307 40.6027 28.7707 40.6702 28.9192 40.6802C29.8992 40.7602 30.3792 37.2102 31.4092 39.9702C31.4641 40.1198 31.5518 40.2518 31.664 40.3534C31.7761 40.4551 31.9089 40.5229 32.0492 40.5502C33.6559 40.8502 35.1259 40.5002 36.4592 39.5002ZM39.8192 36.8602C38.4326 37.5202 38.2826 38.5436 39.3692 39.9302C39.4656 40.055 39.5958 40.1474 39.7412 40.1941C39.8867 40.2407 40.04 40.2394 40.1792 40.1902C41.1859 39.8236 41.2792 38.9269 40.4592 37.5002C41.9592 37.5736 42.5392 38.3102 42.1992 39.7102C42.166 39.851 42.1818 39.9973 42.2433 40.1185C42.3048 40.2397 42.4073 40.3263 42.5292 40.3602C43.5159 40.6669 43.8126 40.2036 43.4192 38.9702C43.3712 38.8166 43.3616 38.6574 43.3917 38.5107C43.4217 38.3641 43.4901 38.2357 43.5892 38.1402C46.1492 35.7302 43.5292 41.3302 46.0292 40.4402C46.1748 40.3895 46.3302 40.3687 46.4864 40.379C46.6426 40.3893 46.7965 40.4305 46.9392 40.5002C47.8592 40.9402 48.6159 40.8236 49.2092 40.1502C49.2464 40.1088 49.2713 40.0584 49.2817 40.0036C49.2921 39.9487 49.2876 39.8913 49.2687 39.8365C49.2498 39.7817 49.217 39.7313 49.1734 39.6901C49.1298 39.6488 49.0768 39.6179 49.0192 39.6002C47.3392 39.0469 47.1759 38.5569 48.5292 38.1302C48.6759 38.0836 48.9859 38.0836 49.4592 38.1302C49.8259 38.1636 49.9226 37.9202 49.7492 37.4002C49.6998 37.2521 49.6151 37.1177 49.502 37.0081C49.389 36.8986 49.2509 36.817 49.0992 36.7702C48.1059 36.4836 47.3192 36.7069 46.7392 37.4402C46.7226 37.4612 46.7007 37.4769 46.6754 37.486C46.6502 37.495 46.6224 37.4972 46.5947 37.4922C46.5669 37.4873 46.5399 37.4753 46.5163 37.4575C46.4927 37.4397 46.473 37.4166 46.4592 37.3902C45.9092 36.3102 41.0992 36.7302 39.8192 36.8602Z" fill="#DB2E28"/>
<path d="M10.5413 32.1999C8.93129 32.8399 9.0013 31.7999 9.5913 30.8799C14.2813 23.3999 19.7313 12.6899 26.1113 7.07992C26.3586 6.86543 26.6696 6.73265 27.0013 6.69992C30.9146 6.30659 34.8346 6.14992 38.7613 6.22992C40.0713 6.24992 45.0713 5.50993 42.2313 8.01993C41.7246 8.46659 41.338 8.87659 41.0713 9.24992C35.818 16.5366 30.818 23.9999 26.0713 31.6399C25.986 31.7803 25.8712 31.8965 25.738 31.9771C25.6048 32.0577 25.4578 32.1 25.3113 32.0999L11.4913 32.0399C11.1513 32.0333 10.8346 32.0866 10.5413 32.1999Z" fill="#FEFEFE"/>
<path d="M42.4502 10.1601C46.5702 4.00013 52.2002 8.10013 54.0502 12.9401C56.3235 18.9068 55.6702 24.1335 52.0902 28.6201C49.0702 32.4201 44.7302 32.6101 42.6302 27.9001C42.5087 27.6182 42.5087 27.284 42.6302 26.9701C44.4969 22.1901 44.3935 16.9735 42.3202 11.3201C42.249 11.1281 42.2237 10.9229 42.2463 10.7213C42.2689 10.5197 42.3388 10.3274 42.4502 10.1601Z" fill="#FEFEFE"/>
<path d="M65.9986 10.8101V33.5601C65.5786 25.9801 65.5786 18.3967 65.9986 10.8101Z" fill="#D12824" fill-opacity="0.996"/>
<path d="M42.4311 32.33L31.4611 32.24C28.7745 32.22 28.1811 31.1233 29.6811 28.95L37.0311 18.31C37.8978 17.05 38.3045 17.19 38.2511 18.73C38.0645 23.9833 39.6278 28.0833 42.9411 31.03C43.9278 31.91 43.7578 32.3433 42.4311 32.33Z" fill="#FEFEFE"/>
<path d="M17.7109 38L18.5009 39.71C17.3009 40.7966 16.6576 40.79 16.5709 39.69C16.5577 39.5282 16.499 39.3768 16.4074 39.2684C16.3158 39.1599 16.1986 39.1031 16.0809 39.11C15.4909 39.16 15.1909 40.93 14.3809 40.58C14.2679 40.5313 14.168 40.4278 14.0934 40.2822C14.0188 40.1366 13.9728 39.9551 13.9609 39.76C13.6943 36.2533 14.9443 35.6666 17.7109 38Z" fill="#EB9A98"/>
<path d="M18.5009 39.7099L17.7109 37.9999C18.5409 35.7099 18.9909 37.7999 19.4509 38.4199C20.8843 40.3533 21.2009 40.0399 20.4009 37.4799C20.3605 37.3463 20.3715 37.2032 20.4314 37.0815C20.4913 36.9598 20.5953 36.8694 20.7209 36.8299C22.4009 36.3033 23.1976 36.8399 23.1109 38.4399C23.1016 38.6107 23.1207 38.7759 23.1671 38.9254C23.2135 39.075 23.2863 39.2058 23.3809 39.3099C25.7409 41.9399 22.4309 36.4099 25.5009 36.6799C25.6521 36.6925 25.7979 36.7475 25.9228 36.8391C26.0478 36.9306 26.1473 37.0553 26.2109 37.1999C27.5909 40.3266 26.4343 41.3899 22.7409 40.3899C22.4414 40.3118 22.1063 40.3328 21.7809 40.4499C20.5343 40.9099 19.4409 40.6633 18.5009 39.7099Z" fill="#EB9A98"/>
<path d="M35.5395 38.2501C36.0262 38.5368 36.3329 38.9534 36.4595 39.5001C35.1262 40.5001 33.6562 40.8501 32.0495 40.5501C31.9092 40.5227 31.7765 40.4549 31.6643 40.3533C31.5521 40.2517 31.4644 40.1197 31.4095 39.9701C30.3795 37.2101 29.8995 40.7601 28.9195 40.6801C28.771 40.6701 28.631 40.6026 28.526 40.4902C28.421 40.3779 28.3583 40.2285 28.3495 40.0701L28.1695 37.4301C28.164 37.3557 28.1731 37.281 28.1963 37.2106C28.2194 37.1402 28.2561 37.0758 28.304 37.0213C28.3519 36.9668 28.41 36.9234 28.4747 36.894C28.5393 36.8645 28.6091 36.8496 28.6795 36.8501H32.3295C32.3908 36.8508 32.4509 36.8667 32.5059 36.8967C32.5608 36.9267 32.6093 36.9701 32.6482 37.0241C32.687 37.0781 32.7152 37.1413 32.731 37.2096C32.7467 37.2779 32.7497 37.3497 32.7395 37.4201C32.3995 40.0868 33.3329 40.3634 35.5395 38.2501Z" fill="#EB9A98"/>
<path d="M40.4603 37.4998C40.3203 37.4998 40.107 37.2864 39.8203 36.8598C41.1003 36.7298 45.9103 36.3098 46.4603 37.3898C46.4741 37.4161 46.4937 37.4393 46.5174 37.4571C46.541 37.4749 46.568 37.4868 46.5957 37.4918C46.6235 37.4967 46.6513 37.4946 46.6765 37.4855C46.7018 37.4764 46.7237 37.4607 46.7403 37.4398C47.3203 36.7064 48.107 36.4831 49.1003 36.7698C49.252 36.8166 49.3901 36.8981 49.5031 37.0077C49.6161 37.1173 49.7009 37.2517 49.7503 37.3998C49.9236 37.9198 49.827 38.1631 49.4603 38.1298C48.987 38.0831 48.677 38.0831 48.5303 38.1298C47.177 38.5564 47.3403 39.0464 49.0203 39.5998C49.0779 39.6174 49.1309 39.6483 49.1745 39.6896C49.2181 39.7309 49.2508 39.7812 49.2698 39.836C49.2887 39.8908 49.2932 39.9483 49.2828 40.0031C49.2724 40.0579 49.2475 40.1084 49.2103 40.1498C48.617 40.8231 47.8603 40.9398 46.9403 40.4998C46.7976 40.4301 46.6436 40.3889 46.4875 40.3786C46.3313 40.3683 46.1759 40.3891 46.0303 40.4398C43.5303 41.3298 46.1503 35.7298 43.5903 38.1398C43.4912 38.2353 43.4228 38.3636 43.3928 38.5103C43.3627 38.6569 43.3723 38.8161 43.4203 38.9698C43.8136 40.2031 43.517 40.6664 42.5303 40.3598C42.4083 40.3258 42.3059 40.2392 42.2444 40.118C42.1828 39.9969 42.167 39.8506 42.2003 39.7098C42.5403 38.3098 41.9603 37.5731 40.4603 37.4998Z" fill="#EB9A98"/>
<path d="M36.4591 39.4999C36.3324 38.9532 36.0257 38.5366 35.5391 38.2499C35.6724 36.7299 36.2491 36.6899 37.2691 38.1299C37.6691 38.6966 37.9357 39.3199 38.0691 39.9999C38.2891 41.1599 37.7524 40.9932 36.4591 39.4999Z" fill="#DCE1DA" fill-opacity="0.961"/>
<path d="M39.8185 36.8599C40.1052 37.2865 40.3185 37.4999 40.4585 37.4999C41.2785 38.9265 41.1851 39.8232 40.1785 40.1899C40.0392 40.239 39.886 40.2404 39.7405 40.1937C39.5951 40.147 39.4649 40.0547 39.3685 39.9299C38.2818 38.5432 38.4318 37.5199 39.8185 36.8599Z" fill="#EB9A98"/>
<path d="M66 46.5601V49.5601L65.79 49.5001C65.89 48.8934 65.71 48.4634 65.25 48.2101V47.7901L66 46.5601Z" fill="#0D0101" fill-opacity="0.043"/>
</g>
<defs>
<clipPath id="clip0_62_12784">
<rect width="66" height="47" fill="white"/>
</clipPath>
</defs>
</svg>
