<svg width="151" height="137" viewBox="0 0 151 137" fill="none" xmlns="http://www.w3.org/2000/svg">
<path d="M137.299 76.8203V123H144.133V136.667H7.46615V123H14.2995V76.8203C10.0927 74.0124 6.64419 70.2094 4.26008 65.7487C1.87598 61.2881 0.630026 56.3078 0.632817 51.25C0.632817 45.5988 2.16348 40.1527 4.95832 35.5128L23.4903 3.41667C24.0901 2.37789 24.9527 1.51529 25.9914 0.915537C27.0302 0.315788 28.2085 3.04713e-05 29.408 0H122.198C123.397 3.04713e-05 124.576 0.315788 125.614 0.915537C126.653 1.51529 127.516 2.37789 128.115 3.41667L146.579 35.4103C150.656 42.1813 151.966 50.2628 150.238 57.975C148.51 65.6871 143.876 72.4366 137.299 76.8203ZM123.633 81.8087C118.934 82.3357 114.178 81.7714 109.733 80.1595C105.289 78.5476 101.276 75.9316 98.0078 72.5153C95.1393 75.5157 91.6924 77.9036 87.8754 79.5349C84.0585 81.1662 79.9505 82.0071 75.7995 82.0068C71.6495 82.0089 67.5421 81.1701 63.7252 79.5412C59.9082 77.9122 56.4609 75.5268 53.5912 72.529C50.3223 75.9441 46.3094 78.5587 41.8648 80.1694C37.4203 81.7801 32.664 82.3434 27.9662 81.8155V123H123.633V81.8087ZM33.3577 13.6667L16.7322 42.4555C15.1166 46.4472 15.0681 50.9017 16.5964 54.9276C18.1247 58.9534 21.117 62.2537 24.9744 64.1677C28.8318 66.0817 33.2698 66.4684 37.4001 65.2503C41.5304 64.0321 45.0484 61.2991 47.2498 57.5982C49.539 51.8787 57.6365 51.8787 59.9325 57.5982C61.1987 60.7717 63.3874 63.4926 66.2159 65.4094C69.0444 67.3262 72.3827 68.3507 75.7995 68.3507C79.2163 68.3507 82.5546 67.3262 85.3831 65.4094C88.2116 63.4926 90.4003 60.7717 91.6665 57.5982C93.9557 51.8787 102.053 51.8787 104.349 57.5982C105.236 59.7811 106.565 61.7569 108.252 63.4016C109.939 65.0462 111.948 66.324 114.153 67.1547C116.358 67.9854 118.711 68.3511 121.064 68.2287C123.417 68.1063 125.719 67.4984 127.826 66.4434C129.933 65.3884 131.798 63.909 133.306 62.0981C134.813 60.2873 135.93 58.1842 136.585 55.9211C137.241 53.658 137.421 51.2837 137.115 48.9475C136.808 46.6114 136.022 44.3638 134.805 42.3462L118.234 13.6667H33.3577Z" fill="#F6F6F6"/>
</svg>
