<svg width="66" height="30" viewBox="0 0 66 30" fill="none" xmlns="http://www.w3.org/2000/svg">
<path d="M9.94375 29.44C8.45042 29.44 6.83708 29.32 5.10375 29.08C3.37042 28.84 1.79708 28.5467 0.38375 28.2L0.66375 23.28C2.34375 23.6 4.06375 23.8267 5.82375 23.96C7.58375 24.0933 8.98375 24.16 10.0238 24.16C11.0104 24.16 11.7438 24.0533 12.2238 23.84C12.7304 23.6267 13.0638 23.2933 13.2238 22.84C13.4104 22.3867 13.5038 21.7333 13.5038 20.88C13.5038 19.92 13.3838 19.2667 13.1438 18.92C12.9304 18.5733 12.4238 18.28 11.6238 18.04L6.66375 16.48C4.55708 15.8133 3.09042 14.8667 2.26375 13.64C1.43708 12.3867 1.02375 10.6933 1.02375 8.56C1.02375 5.81333 1.77042 3.74667 3.26375 2.36C4.78375 0.973332 7.25042 0.279998 10.6638 0.279998C11.7838 0.279998 12.9704 0.333331 14.2238 0.439998C15.4771 0.546665 17.1304 0.719999 19.1838 0.959999L18.8238 5.88C17.5971 5.85333 16.1971 5.78667 14.6238 5.68C12.6504 5.57333 11.4238 5.52 10.9438 5.52C9.90375 5.52 9.11708 5.64 8.58375 5.88C8.05042 6.12 7.69042 6.45333 7.50375 6.88C7.34375 7.28 7.26375 7.84 7.26375 8.56C7.26375 9.38667 7.38375 10.0133 7.62375 10.44C7.89042 10.8667 8.42375 11.2 9.22375 11.44L13.9038 12.96C15.3971 13.44 16.5571 14.0133 17.3838 14.68C18.2371 15.32 18.8371 16.1333 19.1838 17.12C19.5571 18.1067 19.7438 19.36 19.7438 20.88C19.7438 24 18.9571 26.2133 17.3838 27.52C15.8371 28.8 13.3571 29.44 9.94375 29.44ZM33.0691 16.8H28.7491L28.7891 11.48H32.7891L38.3091 0.68H44.7491L39.3891 11.24C38.9091 12.1467 38.4957 12.7867 38.1491 13.16C37.8291 13.5333 37.3357 13.8667 36.6691 14.16C37.4691 14.48 38.0291 14.8133 38.3491 15.16C38.6691 15.48 39.0557 16.12 39.5091 17.08L44.9891 29H38.4291L33.0691 16.8ZM23.2291 0.68H29.5091V29H23.2291V0.68ZM56.1547 29.44C54.6614 29.44 53.048 29.32 51.3147 29.08C49.5814 28.84 48.008 28.5467 46.5947 28.2L46.8747 23.28C48.5547 23.6 50.2747 23.8267 52.0347 23.96C53.7947 24.0933 55.1947 24.16 56.2347 24.16C57.2214 24.16 57.9547 24.0533 58.4347 23.84C58.9414 23.6267 59.2747 23.2933 59.4347 22.84C59.6214 22.3867 59.7147 21.7333 59.7147 20.88C59.7147 19.92 59.5947 19.2667 59.3547 18.92C59.1414 18.5733 58.6347 18.28 57.8347 18.04L52.8747 16.48C50.768 15.8133 49.3014 14.8667 48.4747 13.64C47.648 12.3867 47.2347 10.6933 47.2347 8.56C47.2347 5.81333 47.9814 3.74667 49.4747 2.36C50.9947 0.973332 53.4614 0.279998 56.8747 0.279998C57.9947 0.279998 59.1814 0.333331 60.4347 0.439998C61.688 0.546665 63.3414 0.719999 65.3947 0.959999L65.0347 5.88C63.808 5.85333 62.408 5.78667 60.8347 5.68C58.8614 5.57333 57.6347 5.52 57.1547 5.52C56.1147 5.52 55.328 5.64 54.7947 5.88C54.2614 6.12 53.9014 6.45333 53.7147 6.88C53.5547 7.28 53.4747 7.84 53.4747 8.56C53.4747 9.38667 53.5947 10.0133 53.8347 10.44C54.1014 10.8667 54.6347 11.2 55.4347 11.44L60.1147 12.96C61.608 13.44 62.768 14.0133 63.5947 14.68C64.448 15.32 65.048 16.1333 65.3947 17.12C65.768 18.1067 65.9547 19.36 65.9547 20.88C65.9547 24 65.168 26.2133 63.5947 27.52C62.048 28.8 59.568 29.44 56.1547 29.44Z" fill="black"/>
</svg>
