<svg width="24" height="22" viewBox="0 0 24 22" fill="none" xmlns="http://www.w3.org/2000/svg">
<g opacity="0.2">
<path fill-rule="evenodd" clip-rule="evenodd" d="M11.14 19.0159C10.8751 19.2369 10.5693 19.4036 10.2399 19.5064C9.91056 19.6091 9.56418 19.646 9.22059 19.6148C8.87699 19.5836 8.54292 19.4849 8.23748 19.3245C7.93203 19.1641 7.66121 18.945 7.44049 18.6799L1.60774 11.6799C1.18179 11.143 0.982662 10.4609 1.05289 9.77925C1.12312 9.09757 1.45714 8.47039 1.98359 8.03168C2.51004 7.59297 3.18717 7.37753 3.87034 7.43138C4.5535 7.48522 5.18852 7.80409 5.63974 8.31986L11.4742 15.3199C11.9196 15.8546 12.1344 16.5443 12.0714 17.2374C12.0084 17.9305 11.6745 18.5702 11.14 19.0159Z" fill="#ED4545"/>
<path fill-rule="evenodd" clip-rule="evenodd" d="M11.1408 0.983863C11.6753 1.42954 12.0109 2.06923 12.0739 2.76231C12.1369 3.45538 11.9221 4.14511 11.4768 4.67986L5.64227 11.6799C5.42471 11.9541 5.15451 12.182 4.84756 12.3502C4.54062 12.5184 4.20313 12.6236 3.85495 12.6594C3.50677 12.6953 3.15493 12.6612 2.82014 12.5591C2.48534 12.457 2.17435 12.2889 1.90545 12.0648C1.63656 11.8408 1.41519 11.5652 1.25438 11.2543C1.09357 10.9434 0.996558 10.6035 0.969054 10.2545C0.94155 9.90559 0.98411 9.55467 1.09423 9.22242C1.20435 8.89018 1.3798 8.5833 1.61027 8.31987L7.44302 1.31987C7.66372 1.05495 7.93444 0.836112 8.23974 0.67585C8.54503 0.515587 8.8789 0.417041 9.22229 0.385839C9.56567 0.354637 9.91184 0.391391 10.241 0.494003C10.5702 0.596613 10.8759 0.763069 11.1408 0.983863Z" fill="#ED4545"/>
<path fill-rule="evenodd" clip-rule="evenodd" d="M4.5 10C4.5 9.30384 4.77656 8.63616 5.26884 8.14388C5.76113 7.65159 6.42881 7.37503 7.125 7.37503L21.125 7.37503C21.8212 7.37503 22.4889 7.65159 22.9812 8.14387C23.4734 8.63616 23.75 9.30384 23.75 10C23.75 10.6962 23.4734 11.3639 22.9812 11.8562C22.4889 12.3485 21.8212 12.625 21.125 12.625L7.125 12.625C6.42881 12.625 5.76113 12.3485 5.26884 11.8562C4.77656 11.3639 4.5 10.6962 4.5 10Z" fill="#ED4545"/>
</g>
<path fill-rule="evenodd" clip-rule="evenodd" d="M9.14448 21.1719C8.96622 21.3203 8.73631 21.3919 8.50529 21.3709C8.27426 21.3499 8.06104 21.238 7.91248 21.0599L2.07973 14.0599C2.0029 13.9721 1.94442 13.8698 1.90771 13.759C1.87101 13.6483 1.85682 13.5313 1.86599 13.415C1.87515 13.2987 1.90749 13.1854 1.9611 13.0817C2.0147 12.9781 2.08849 12.8862 2.17812 12.8115C2.26775 12.7368 2.37142 12.6808 2.48301 12.6468C2.59461 12.6128 2.71189 12.6014 2.82795 12.6133C2.94401 12.6253 3.05651 12.6603 3.15882 12.7164C3.26114 12.7725 3.3512 12.8485 3.42372 12.9399L9.25648 19.9399C9.40493 20.1181 9.47653 20.348 9.45553 20.5791C9.43452 20.8101 9.32264 21.0233 9.14448 21.1719Z" fill="#ED4545"/>
<path fill-rule="evenodd" clip-rule="evenodd" d="M9.14448 5.82798C9.32264 5.97654 9.43452 6.18977 9.45553 6.42079C9.47653 6.65182 9.40493 6.88173 9.25648 7.05998L3.42373 14.06C3.35121 14.1514 3.26114 14.2274 3.15882 14.2834C3.05651 14.3395 2.94401 14.3745 2.82795 14.3865C2.71189 14.3985 2.59461 14.3871 2.48302 14.3531C2.37142 14.319 2.26775 14.263 2.17812 14.1883C2.08849 14.1136 2.0147 14.0217 1.9611 13.9181C1.90749 13.8145 1.87515 13.7012 1.86599 13.5849C1.85682 13.4686 1.87101 13.3516 1.90771 13.2408C1.94442 13.1301 2.0029 13.0278 2.07973 12.94L7.91248 5.93998C8.06103 5.76181 8.27426 5.64993 8.50529 5.62893C8.73631 5.60793 8.96622 5.67952 9.14448 5.82798Z" fill="#ED4545"/>
<path fill-rule="evenodd" clip-rule="evenodd" d="M2.75 13.5C2.75 13.2679 2.84219 13.0454 3.00628 12.8813C3.17038 12.7172 3.39294 12.625 3.625 12.625L20.25 12.625C20.4821 12.625 20.7046 12.7172 20.8687 12.8813C21.0328 13.0454 21.125 13.2679 21.125 13.5C21.125 13.7321 21.0328 13.9546 20.8687 14.1187C20.7046 14.2828 20.4821 14.375 20.25 14.375L3.625 14.375C3.39294 14.375 3.17038 14.2828 3.00628 14.1187C2.84219 13.9546 2.75 13.7321 2.75 13.5Z" fill="#ED4545"/>
</svg>
