<svg width="24" height="24" viewBox="0 0 24 24" fill="none" xmlns="http://www.w3.org/2000/svg">
<path d="M16.9437 2.41781L15.7767 2.06681C15.1374 1.87403 14.4498 1.92044 13.8422 2.19737C13.2347 2.4743 12.7486 2.96283 12.4747 3.57181L11.5727 5.57781C11.3372 6.10161 11.2717 6.68599 11.3852 7.24895C11.4987 7.81191 11.7857 8.3252 12.2057 8.71681L13.7007 10.1098C13.7444 10.1505 13.7721 10.2055 13.7787 10.2648C13.8227 10.6618 13.5537 11.4348 12.9327 12.5098C12.4827 13.2908 12.0737 13.8398 11.7267 14.1468C11.4837 14.3618 11.3507 14.4078 11.2937 14.3918L9.28371 13.7768C8.7348 13.6089 8.14711 13.617 7.60302 13.7999C7.05893 13.9828 6.58572 14.3314 6.24971 14.7968L4.96971 16.5728C4.58004 17.1128 4.39953 17.7758 4.46169 18.4388C4.52385 19.1018 4.82446 19.7197 5.30771 20.1778L6.19471 21.0178C6.66495 21.4631 7.24249 21.7791 7.8711 21.9348C8.49971 22.0906 9.15795 22.081 9.78171 21.9068C12.5357 21.1378 15.0047 18.8138 17.2167 14.9828C19.4307 11.1468 20.2087 7.84281 19.4907 5.06981C19.3295 4.44615 19.0104 3.87451 18.5641 3.41001C18.1179 2.94551 17.5604 2.60379 16.9437 2.41781ZM16.5107 3.85481C16.8808 3.96612 17.216 4.17088 17.484 4.44938C17.752 4.72787 17.9437 5.07069 18.0407 5.44481C18.6427 7.77681 17.9537 10.7058 15.9177 14.2328C13.8837 17.7548 11.6947 19.8148 9.37771 20.4628C9.00343 20.5672 8.6085 20.5729 8.23137 20.4793C7.85424 20.3857 7.50778 20.1961 7.22571 19.9288L6.33971 19.0888C6.1199 18.8806 5.98313 18.5997 5.95481 18.2982C5.92649 17.9968 6.00853 17.6953 6.18571 17.4498L7.46571 15.6748C7.61845 15.463 7.83368 15.3044 8.08119 15.2212C8.32869 15.1379 8.59605 15.1343 8.84571 15.2108L10.8607 15.8278C12.0307 16.1758 13.0917 15.2348 14.2317 13.2598C15.0007 11.9298 15.3587 10.8998 15.2687 10.0988C15.2227 9.68281 15.0287 9.29881 14.7237 9.01281L13.2287 7.61981C13.0379 7.44171 12.9076 7.20832 12.8561 6.95239C12.8046 6.69647 12.8346 6.43085 12.9417 6.19281L13.8427 4.18681C13.9672 3.91 14.1882 3.68794 14.4644 3.56208C14.7406 3.43622 15.0531 3.41515 15.3437 3.50281L16.5107 3.85481Z" fill="#ED4545"/>
</svg>
