<svg width="23" height="23" viewBox="0 0 23 23" fill="none" xmlns="http://www.w3.org/2000/svg">
<path d="M11.0014 0.729808C11.0471 0.112402 11.9529 0.112407 11.9986 0.729814L12.4371 6.64735C12.4712 7.1077 13.0576 7.2799 13.3352 6.91107L16.9033 2.16996C17.2756 1.6753 18.0376 2.165 17.7423 2.70913L14.9119 7.92432C14.6917 8.33003 15.0919 8.79195 15.5248 8.63174L21.0898 6.57233C21.6704 6.35746 22.0467 7.18139 21.504 7.47948L16.3034 10.3365C15.8988 10.5588 15.9858 11.1638 16.4366 11.2631L22.2315 12.5392C22.8361 12.6723 22.7072 13.5689 22.0896 13.5263L16.1699 13.1181C15.7094 13.0864 15.4555 13.6424 15.781 13.9696L19.9661 18.1761C20.4027 18.615 19.8096 19.2996 19.313 18.9298L14.5537 15.386C14.1835 15.1103 13.6693 15.4408 13.7663 15.8921L15.0127 21.6934C15.1428 22.2987 14.2737 22.5539 14.0559 21.9744L11.968 16.4201C11.8056 15.988 11.1944 15.988 11.032 16.4201L8.94412 21.9744C8.72629 22.5539 7.8572 22.2987 7.98725 21.6934L9.23373 15.8921C9.3307 15.4408 8.81652 15.1103 8.44627 15.386L3.68697 18.9298C3.19041 19.2996 2.59725 18.615 3.0339 18.1761L7.21895 13.9696C7.54453 13.6424 7.29062 13.0864 6.8301 13.1181L0.910406 13.5263C0.292773 13.5689 0.163872 12.6723 0.768484 12.5392L6.56338 11.2631C7.01419 11.1638 7.10118 10.5588 6.6966 10.3365L1.49595 7.47948C0.953343 7.18138 1.32962 6.35746 1.91024 6.57233L7.47515 8.63174C7.90807 8.79195 8.30833 8.33003 8.08814 7.92432L5.25772 2.70913C4.96241 2.165 5.7244 1.6753 6.09668 2.16997L9.66478 6.91107C9.94236 7.2799 10.5288 7.1077 10.5629 6.64735L11.0014 0.729808Z" fill="#231F20"/>
</svg>
