<svg width="16" height="22" viewBox="0 0 16 22" fill="none" xmlns="http://www.w3.org/2000/svg">
<path d="M12.9437 1.41781L11.7767 1.06681C11.1374 0.874034 10.4498 0.92044 9.84224 1.19737C9.23465 1.4743 8.74858 1.96283 8.47471 2.57181L7.57271 4.57781C7.33725 5.10161 7.27168 5.68599 7.3852 6.24895C7.49873 6.81191 7.78565 7.3252 8.20571 7.71681L9.70071 9.10981C9.74439 9.15051 9.77205 9.20549 9.77871 9.26481C9.82271 9.66181 9.55371 10.4348 8.93271 11.5098C8.48271 12.2908 8.07371 12.8398 7.72671 13.1468C7.48371 13.3618 7.35071 13.4078 7.29371 13.3918L5.28371 12.7768C4.7348 12.6089 4.14711 12.617 3.60302 12.7999C3.05893 12.9828 2.58572 13.3314 2.24971 13.7968L0.969713 15.5728C0.580041 16.1128 0.39953 16.7758 0.461691 17.4388C0.523851 18.1018 0.82446 18.7197 1.30771 19.1778L2.19471 20.0178C2.66495 20.4631 3.24249 20.7791 3.8711 20.9348C4.49971 21.0906 5.15795 21.081 5.78171 20.9068C8.53571 20.1378 11.0047 17.8138 13.2167 13.9828C15.4307 10.1468 16.2087 6.84281 15.4907 4.06981C15.3295 3.44615 15.0104 2.87451 14.5641 2.41001C14.1179 1.94551 13.5604 1.60379 12.9437 1.41781ZM12.5107 2.85481C12.8808 2.96612 13.216 3.17088 13.484 3.44938C13.752 3.72787 13.9437 4.07069 14.0407 4.44481C14.6427 6.77681 13.9537 9.70581 11.9177 13.2328C9.88371 16.7548 7.69471 18.8148 5.37771 19.4628C5.00343 19.5672 4.6085 19.5729 4.23137 19.4793C3.85424 19.3857 3.50778 19.1961 3.22571 18.9288L2.33971 18.0888C2.1199 17.8806 1.98313 17.5997 1.95481 17.2982C1.92649 16.9968 2.00853 16.6953 2.18571 16.4498L3.46571 14.6748C3.61845 14.463 3.83368 14.3044 4.08119 14.2212C4.32869 14.1379 4.59605 14.1343 4.84571 14.2108L6.86071 14.8278C8.03071 15.1758 9.09171 14.2348 10.2317 12.2598C11.0007 10.9298 11.3587 9.89981 11.2687 9.09881C11.2227 8.68281 11.0287 8.29881 10.7237 8.01281L9.22871 6.61981C9.03786 6.44171 8.90755 6.20832 8.85608 5.95239C8.80461 5.69647 8.83455 5.43085 8.94171 5.19281L9.84271 3.18681C9.96722 2.91 10.1882 2.68794 10.4644 2.56208C10.7406 2.43622 11.0531 2.41515 11.3437 2.50281L12.5107 2.85481Z" fill="#ED4545"/>
</svg>
