<svg width="95" height="36" viewBox="0 0 95 36" fill="none" xmlns="http://www.w3.org/2000/svg">
<g clip-path="url(#clip0_62_13525)">
<path d="M14.6238 18.1254L3.54362 35.9703C3.52743 35.9958 3.53447 36.0085 3.56473 36.0085L12.0282 35.9958C12.044 35.9957 12.0596 35.9915 12.0735 35.9835C12.0873 35.9755 12.099 35.964 12.1073 35.9501L23.025 18.1116C23.0347 18.0953 23.0398 18.0765 23.0396 18.0574C23.0394 18.0383 23.034 18.0196 23.0239 18.0032L11.8202 0.127554C11.8105 0.112234 11.7971 0.0996301 11.7812 0.0909062C11.7653 0.0821822 11.7475 0.0776191 11.7295 0.0776368H3.60484C3.56895 0.0776368 3.56051 0.0932141 3.57951 0.124368L14.6238 17.9979C14.6356 18.0171 14.6418 18.0391 14.6418 18.0617C14.6418 18.0842 14.6356 18.1062 14.6238 18.1254Z" stroke="#231F20" stroke-width="2"/>
<path d="M30.9081 28.728L37.3628 18.1211C37.3732 18.104 37.3786 18.0842 37.3784 18.0642C37.3783 18.0441 37.3725 18.0244 37.3617 18.0075L26.175 0.139235C26.163 0.120365 26.1465 0.104828 26.127 0.0940598C26.1074 0.0832918 26.0854 0.0776425 26.0631 0.0776367H17.9648C17.9114 0.0776367 17.8987 0.100648 17.9268 0.146671L28.9669 18.0032C28.9786 18.0223 28.9849 18.0443 28.9849 18.0666C28.9849 18.0889 28.9786 18.1108 28.9669 18.1296L17.9142 35.9299C17.8839 35.978 17.8973 36.0021 17.9543 36.0021H45.746C45.7537 36.0021 45.7613 36.0006 45.7683 35.9976C45.7754 35.9945 45.7817 35.9901 45.7871 35.9846C45.7924 35.979 45.7965 35.9724 45.7993 35.9652C45.802 35.958 45.8033 35.9504 45.803 35.9426C45.7798 34.967 45.7749 33.9867 45.7882 33.0018C45.803 31.9503 45.8104 31.2419 45.8104 30.8766C45.8104 22.6016 45.8104 14.3267 45.8104 6.05177C45.8104 5.66377 45.8044 4.95536 45.7924 3.92657C45.7784 2.71227 45.7854 1.46753 45.8136 0.192339C45.814 0.177428 45.8114 0.162586 45.806 0.148687C45.8007 0.134787 45.7926 0.122111 45.7822 0.111416C45.7719 0.100721 45.7595 0.0922228 45.7459 0.0864203C45.7322 0.0806179 45.7175 0.0776306 45.7027 0.0776367H38.659C38.645 0.0776367 38.6316 0.0832323 38.6217 0.0931911C38.6118 0.10315 38.6062 0.116656 38.6062 0.13074V28.6993C38.6062 28.7137 38.6004 28.7275 38.5901 28.7376C38.5799 28.7478 38.5659 28.7535 38.5513 28.7535L30.9334 28.7726C30.8982 28.7733 30.8898 28.7585 30.9081 28.728Z" stroke="#231F20" stroke-width="2"/>
<path d="M56.2144 28.6951L56.2081 0.163664C56.2081 0.152367 56.2059 0.141181 56.2016 0.130743C56.1973 0.120306 56.191 0.110822 56.183 0.102834C56.1751 0.0948452 56.1657 0.0885072 56.1553 0.0841839C56.1449 0.0798606 56.1338 0.0776367 56.1226 0.0776367L49.0778 0.0840089C49.0582 0.0840089 49.0394 0.0919527 49.0255 0.106094C49.0117 0.120236 49.0039 0.139416 49.0039 0.159415V35.9119C49.0039 35.9272 49.0069 35.9424 49.0127 35.9566C49.0186 35.9707 49.0271 35.9836 49.0379 35.9945C49.0487 36.0053 49.0615 36.0139 49.0756 36.0198C49.0897 36.0257 49.1048 36.0287 49.12 36.0287C57.6658 36.0287 66.1809 36.0287 74.6655 36.0287C74.6718 36.0287 74.9983 36.0223 75.645 36.0096C76.0166 36.0025 76.4036 36.0106 76.8062 36.034C76.9173 36.0404 76.9434 35.9961 76.8843 35.9012L65.8717 18.1509C65.8536 18.1215 65.8441 18.0875 65.8443 18.0528C65.8445 18.0181 65.8543 17.984 65.8727 17.9544L76.8494 0.174285C76.8895 0.109853 76.8719 0.0776367 76.7966 0.0776367H68.7312C68.7114 0.0776491 68.692 0.0827164 68.6746 0.0923711C68.6573 0.102026 68.6426 0.115954 68.6319 0.132863L57.4505 17.9916C57.4388 18.0104 57.4325 18.0321 57.4323 18.0542C57.4321 18.0764 57.438 18.098 57.4494 18.1169L63.8872 28.6643C63.9231 28.7238 63.9066 28.7535 63.8376 28.7535L56.2661 28.7471C56.2593 28.7471 56.2526 28.7458 56.2463 28.7432C56.2401 28.7406 56.2343 28.7367 56.2295 28.7319C56.2247 28.7271 56.2209 28.7213 56.2183 28.715C56.2157 28.7087 56.2144 28.7019 56.2144 28.6951Z" stroke="#ED4545" stroke-width="2"/>
<path d="M82.8559 36.0096L91.1673 36.0287C91.2616 36.0287 91.2838 35.9883 91.2338 35.9076L80.1948 18.1233C80.1828 18.1039 80.1766 18.0814 80.1767 18.0585C80.1769 18.0355 80.1836 18.0131 80.1959 17.9937L91.2127 0.146671C91.2415 0.100648 91.2289 0.0776367 91.1747 0.0776367H83.0722C83.0484 0.0776242 83.025 0.0837806 83.0043 0.0955054C82.9835 0.10723 82.9662 0.124125 82.954 0.144548C82.1215 1.52878 81.2679 2.91548 80.3932 4.30467C77.5228 8.86378 74.6545 13.4321 71.7884 18.0096C71.7786 18.0252 71.7734 18.0432 71.7734 18.0617C71.7734 18.0801 71.7786 18.0981 71.7884 18.1137L82.669 35.9034C82.6887 35.9358 82.7163 35.9627 82.749 35.9813C82.7817 35.9999 82.8185 36.0096 82.8559 36.0096Z" stroke="#ED4545" stroke-width="2"/>
<path d="M14.6238 18.1254C14.6356 18.1062 14.6418 18.0842 14.6418 18.0617C14.6418 18.0391 14.6356 18.0171 14.6238 17.9979L3.57951 0.124368C3.56051 0.0932141 3.56895 0.0776368 3.60484 0.0776368H11.7295C11.7475 0.0776191 11.7653 0.0821822 11.7812 0.0909062C11.7971 0.0996301 11.8105 0.112234 11.8202 0.127554L23.0239 18.0033C23.034 18.0196 23.0394 18.0383 23.0396 18.0574C23.0398 18.0765 23.0347 18.0953 23.025 18.1116L12.1073 35.9501C12.099 35.964 12.0873 35.9755 12.0735 35.9835C12.0596 35.9915 12.044 35.9957 12.0282 35.9958L3.56473 36.0085C3.53447 36.0085 3.52743 35.9958 3.54362 35.9703L14.6238 18.1254Z" fill="#231F20"/>
<path d="M30.9334 28.7726L38.5513 28.7535C38.5659 28.7535 38.5799 28.7478 38.5901 28.7376C38.6004 28.7275 38.6062 28.7137 38.6062 28.6993V0.13074C38.6062 0.116656 38.6118 0.10315 38.6217 0.0931911C38.6316 0.0832323 38.645 0.0776367 38.659 0.0776367H45.7027C45.7175 0.0776306 45.7322 0.0806179 45.7459 0.0864203C45.7595 0.0922228 45.7719 0.100721 45.7822 0.111416C45.7926 0.122111 45.8007 0.134787 45.806 0.148687C45.8114 0.162586 45.814 0.177428 45.8136 0.192339C45.7854 1.46753 45.7784 2.71227 45.7924 3.92657C45.8044 4.95536 45.8104 5.66377 45.8104 6.05177C45.8104 14.3267 45.8104 22.6016 45.8104 30.8766C45.8104 31.2419 45.803 31.9503 45.7882 33.0018C45.7748 33.9867 45.7798 34.967 45.803 35.9426C45.8033 35.9504 45.802 35.958 45.7993 35.9652C45.7965 35.9724 45.7924 35.979 45.7871 35.9846C45.7817 35.9901 45.7754 35.9945 45.7683 35.9976C45.7613 36.0006 45.7537 36.0021 45.746 36.0021H17.9543C17.8973 36.0021 17.8839 35.978 17.9142 35.9299L28.9669 18.1296C28.9786 18.1108 28.9849 18.0889 28.9849 18.0666C28.9849 18.0443 28.9786 18.0223 28.9669 18.0032L17.9268 0.146671C17.8987 0.100648 17.9114 0.0776367 17.9648 0.0776367H26.0631C26.0854 0.0776425 26.1074 0.0832918 26.127 0.0940598C26.1465 0.104828 26.163 0.120365 26.1749 0.139235L37.3617 18.0075C37.3725 18.0244 37.3783 18.0441 37.3784 18.0642C37.3786 18.0842 37.3732 18.104 37.3628 18.1211L30.9081 28.728C30.8898 28.7585 30.8982 28.7733 30.9334 28.7726Z" fill="#231F20"/>
<path d="M56.2661 28.7471L63.8376 28.7535C63.9066 28.7535 63.9231 28.7238 63.8872 28.6643L57.4494 18.1169C57.438 18.098 57.4321 18.0764 57.4323 18.0542C57.4325 18.0321 57.4388 18.0104 57.4505 17.9916L68.6319 0.132863C68.6426 0.115954 68.6573 0.102026 68.6746 0.0923711C68.692 0.0827164 68.7114 0.0776491 68.7312 0.0776367H76.7966C76.8719 0.0776367 76.8895 0.109853 76.8494 0.174285L65.8727 17.9544C65.8543 17.984 65.8445 18.0181 65.8443 18.0528C65.8441 18.0875 65.8536 18.1215 65.8717 18.1509L76.8843 35.9012C76.9434 35.9961 76.9173 36.0404 76.8062 36.034C76.4036 36.0106 76.0166 36.0025 75.645 36.0096C74.9983 36.0223 74.6718 36.0287 74.6655 36.0287C66.1809 36.0287 57.6658 36.0287 49.12 36.0287C49.1048 36.0287 49.0897 36.0257 49.0756 36.0198C49.0615 36.0139 49.0487 36.0053 49.0379 35.9945C49.0271 35.9836 49.0186 35.9707 49.0127 35.9566C49.0069 35.9424 49.0039 35.9272 49.0039 35.9119V0.159415C49.0039 0.139416 49.0117 0.120236 49.0255 0.106094C49.0394 0.0919527 49.0582 0.0840089 49.0778 0.0840089L56.1226 0.0776367C56.1338 0.0776367 56.1449 0.0798606 56.1553 0.0841839C56.1657 0.0885072 56.1751 0.0948452 56.183 0.102834C56.191 0.110822 56.1973 0.120306 56.2016 0.130743C56.2059 0.141181 56.2081 0.152367 56.2081 0.163664L56.2144 28.6951C56.2144 28.7019 56.2157 28.7087 56.2183 28.715C56.2209 28.7213 56.2247 28.7271 56.2295 28.7319C56.2343 28.7367 56.2401 28.7406 56.2463 28.7432C56.2526 28.7458 56.2593 28.7471 56.2661 28.7471Z" fill="#ED4545"/>
<path d="M82.8559 36.0096C82.8185 36.0096 82.7817 35.9999 82.749 35.9813C82.7163 35.9627 82.6887 35.9358 82.669 35.9034L71.7884 18.1137C71.7786 18.0981 71.7734 18.0801 71.7734 18.0617C71.7734 18.0432 71.7786 18.0252 71.7884 18.0096C74.6545 13.4321 77.5228 8.86378 80.3932 4.30467C81.2679 2.91548 82.1215 1.52878 82.954 0.144548C82.9662 0.124125 82.9835 0.10723 83.0043 0.0955053C83.025 0.0837806 83.0484 0.0776242 83.0722 0.0776367H91.1747C91.2289 0.0776367 91.2415 0.100648 91.2127 0.146671L80.1959 17.9937C80.1836 18.0131 80.1769 18.0355 80.1767 18.0585C80.1766 18.0814 80.1828 18.1039 80.1948 18.1233L91.2338 35.9076C91.2838 35.9883 91.2616 36.0287 91.1673 36.0287L82.8559 36.0096Z" fill="#ED4545"/>
</g>
<defs>
<clipPath id="clip0_62_13525">
<rect width="95" height="36" fill="white"/>
</clipPath>
</defs>
</svg>
