<svg width="15" height="14" viewBox="0 0 15 14" fill="none" xmlns="http://www.w3.org/2000/svg">
<path d="M7.12462 0.987131C7.18351 0.534464 7.83879 0.534467 7.89768 0.987134L8.24039 3.62134C8.28412 3.95746 8.70639 4.08145 8.9249 3.82233L10.6374 1.79158C10.9316 1.44261 11.4829 1.79688 11.2877 2.20953L10.1519 4.61084C10.0069 4.91725 10.2951 5.24985 10.619 5.15L13.1576 4.36745C13.5938 4.23298 13.866 4.82904 13.4787 5.07065L11.2249 6.47668C10.9373 6.65609 11 7.09171 11.3264 7.18283L13.8851 7.89694C14.3247 8.01965 14.2315 8.66826 13.775 8.66213L11.1189 8.62646C10.78 8.62191 10.5971 9.02225 10.8225 9.2754L12.5889 11.2594C12.8924 11.6004 12.4633 12.0956 12.0826 11.8437L9.86742 10.3777C9.58476 10.1906 9.21452 10.4285 9.26726 10.7633L9.68057 13.3874C9.75159 13.8383 9.12286 14.0229 8.93882 13.6052L7.86785 11.1742C7.7312 10.8641 7.2911 10.8641 7.15444 11.1743L6.08347 13.6052C5.89944 14.0229 5.27071 13.8383 5.34173 13.3874L5.75504 10.7633C5.80778 10.4285 5.43754 10.1906 5.15488 10.3777L2.93966 11.8437C2.55899 12.0956 2.12988 11.6004 2.43341 11.2594L4.19978 9.2754C4.42517 9.02224 4.24234 8.62191 3.90342 8.62646L1.24726 8.66213C0.790821 8.66826 0.697563 8.01965 1.13724 7.89694L3.69586 7.18283C4.02234 7.09171 4.08497 6.65609 3.79739 6.47668L1.5436 5.07065C1.1563 4.82904 1.42852 4.23298 1.86474 4.36745L4.40326 5.15C4.72717 5.24985 5.01538 4.91725 4.87045 4.61084L3.73459 2.20952C3.53941 1.79688 4.09066 1.44261 4.38493 1.79158L6.0974 3.82233C6.31591 4.08145 6.73818 3.95746 6.78191 3.62134L7.12462 0.987131Z" fill="white"/>
</svg>
