<svg width="17" height="17" viewBox="0 0 17 17" fill="none" xmlns="http://www.w3.org/2000/svg">
<path fill-rule="evenodd" clip-rule="evenodd" d="M12.2642 11.0274C13.3034 9.68772 13.7931 8.00245 13.6338 6.31448C13.4745 4.6265 12.6781 3.06261 11.4067 1.94097C10.1352 0.819328 8.48425 0.22419 6.78958 0.27663C5.09491 0.329071 3.48388 1.02515 2.28422 2.22326C1.08352 3.4222 0.38516 5.03386 0.331467 6.72981C0.277774 8.42577 0.872783 10.0784 1.99524 11.3509C3.1177 12.6234 4.68313 13.42 6.37253 13.5783C8.06193 13.7367 9.74814 13.2449 11.0876 12.2033L11.1234 12.2408L14.6584 15.7766C14.7358 15.854 14.8277 15.9154 14.9289 15.9573C15.03 15.9992 15.1385 16.0208 15.248 16.0208C15.3575 16.0208 15.4659 15.9992 15.567 15.9573C15.6682 15.9154 15.7601 15.854 15.8376 15.7766C15.915 15.6992 15.9764 15.6072 16.0183 15.5061C16.0602 15.4049 16.0818 15.2965 16.0818 15.187C16.0818 15.0775 16.0602 14.9691 16.0183 14.8679C15.9764 14.7668 15.915 14.6748 15.8376 14.5974L12.3017 11.0624C12.2895 11.0504 12.277 11.0387 12.2642 11.0274ZM10.5342 3.40242C11.0047 3.86532 11.3789 4.4168 11.6352 5.02504C11.8915 5.63328 12.0249 6.28624 12.0276 6.94627C12.0302 7.60631 11.9022 8.26034 11.6509 8.87064C11.3995 9.48095 11.0298 10.0355 10.5631 10.5022C10.0964 10.9689 9.54191 11.3386 8.9316 11.5899C8.3213 11.8413 7.66726 11.9693 7.00723 11.9666C6.3472 11.9639 5.69424 11.8306 5.086 11.5743C4.47776 11.318 3.92628 10.9438 3.46339 10.4733C2.53832 9.533 2.02226 8.26529 2.02764 6.94627C2.03301 5.62726 2.55937 4.36379 3.49206 3.4311C4.42475 2.4984 5.68822 1.97205 7.00723 1.96667C8.32625 1.9613 9.59396 2.47736 10.5342 3.40242Z" fill="#767676"/>
</svg>
