<svg width="12" height="8" viewBox="0 0 12 8" fill="none" xmlns="http://www.w3.org/2000/svg">
<path fill-rule="evenodd" clip-rule="evenodd" d="M6.58831 7.08929C6.43204 7.24552 6.22012 7.33328 5.99915 7.33328C5.77818 7.33328 5.56625 7.24552 5.40998 7.08929L0.695813 2.37512C0.616221 2.29825 0.552736 2.2063 0.509062 2.10463C0.465388 2.00296 0.442399 1.89361 0.441438 1.78296C0.440476 1.67231 0.461561 1.56258 0.503462 1.46016C0.545363 1.35775 0.60724 1.2647 0.685484 1.18646C0.763728 1.10822 0.856771 1.04634 0.959185 1.00444C1.0616 0.962537 1.17133 0.941453 1.28198 0.942414C1.39263 0.943376 1.50198 0.966364 1.60365 1.01004C1.70532 1.05371 1.79727 1.1172 1.87415 1.19679L5.99915 5.32179L10.1241 1.19679C10.2813 1.04499 10.4918 0.960996 10.7103 0.962894C10.9288 0.964793 11.1378 1.05243 11.2923 1.20694C11.4468 1.36145 11.5345 1.57046 11.5364 1.78896C11.5383 2.00745 11.4543 2.21795 11.3025 2.37512L6.58831 7.08929Z" fill="#333333"/>
</svg>
