<svg width="96" height="38" viewBox="0 0 96 38" fill="none" xmlns="http://www.w3.org/2000/svg">
<g clip-path="url(#clip0_62_13065)">
<path d="M14.7757 19.1302L3.57886 37.6361C3.56251 37.6625 3.56962 37.6757 3.6002 37.6757L12.1527 37.6625C12.1687 37.6625 12.1845 37.6581 12.1985 37.6498C12.2125 37.6415 12.2243 37.6296 12.2327 37.6151L23.2653 19.1159C23.2751 19.099 23.2803 19.0796 23.2801 19.0598C23.2799 19.0399 23.2744 19.0205 23.2642 19.0036L11.9426 0.465829C11.9327 0.449941 11.9192 0.43687 11.9031 0.427823C11.8871 0.418776 11.8691 0.414044 11.8509 0.414063H3.64073C3.60446 0.414063 3.59593 0.430217 3.61513 0.462525L14.7757 18.9981C14.7876 19.0179 14.7939 19.0408 14.7939 19.0642C14.7939 19.0875 14.7876 19.1104 14.7757 19.1302Z" stroke="#231F20" stroke-width="2.66667"/>
<path d="M31.2325 30.1256L37.7552 19.1258C37.7657 19.1081 37.7712 19.0876 37.771 19.0667C37.7708 19.0459 37.765 19.0255 37.7541 19.008L26.4496 0.477943C26.4375 0.458373 26.4209 0.442261 26.4011 0.431094C26.3813 0.419927 26.3591 0.414069 26.3365 0.414063H18.153C18.099 0.414063 18.0862 0.437926 18.1146 0.485653L29.2709 19.0036C29.2828 19.0233 29.2891 19.0461 29.2891 19.0693C29.2891 19.0924 29.2828 19.1151 29.2709 19.1346L18.1018 37.5942C18.0713 37.6441 18.0848 37.6691 18.1424 37.6691H46.2266C46.2344 37.6691 46.242 37.6675 46.2492 37.6644C46.2563 37.6612 46.2628 37.6566 46.2681 37.6509C46.2735 37.6451 46.2777 37.6383 46.2805 37.6308C46.2832 37.6234 46.2845 37.6154 46.2842 37.6074C46.2608 36.5956 46.2558 35.579 46.2693 34.5576C46.2842 33.4672 46.2917 32.7326 46.2917 32.3537C46.2917 23.7723 46.2917 15.1909 46.2917 6.60946C46.2917 6.20709 46.2857 5.47245 46.2736 4.40555C46.2593 3.14628 46.2665 1.85543 46.2949 0.533013C46.2953 0.51755 46.2927 0.502158 46.2873 0.487744C46.2819 0.473329 46.2737 0.460184 46.2632 0.449093C46.2528 0.438002 46.2403 0.429189 46.2265 0.423171C46.2127 0.417154 46.1979 0.414056 46.1829 0.414063H39.065C39.0509 0.414063 39.0373 0.419865 39.0273 0.430193C39.0173 0.440521 39.0117 0.454527 39.0117 0.469133V30.0958C39.0117 30.1107 39.0059 30.125 38.9955 30.1355C38.9851 30.1461 38.9709 30.152 38.9562 30.152L31.2581 30.1718C31.2225 30.1726 31.214 30.1571 31.2325 30.1256Z" stroke="#231F20" stroke-width="2.66667"/>
<path d="M56.8059 30.0914L56.7995 0.503276C56.7995 0.49156 56.7973 0.47996 56.7929 0.469136C56.7886 0.458312 56.7822 0.448477 56.7742 0.440193C56.7662 0.431908 56.7567 0.425336 56.7462 0.420852C56.7357 0.416369 56.7245 0.414062 56.7131 0.414062L49.5942 0.420671C49.5744 0.420671 49.5554 0.428909 49.5414 0.443574C49.5274 0.458239 49.5195 0.47813 49.5195 0.498869V37.5755C49.5195 37.5914 49.5226 37.6071 49.5285 37.6218C49.5344 37.6365 49.543 37.6499 49.5539 37.6611C49.5648 37.6724 49.5777 37.6813 49.592 37.6874C49.6062 37.6935 49.6215 37.6966 49.6369 37.6966C58.2726 37.6966 66.8774 37.6966 75.4512 37.6966C75.4576 37.6966 75.7876 37.69 76.4411 37.6768C76.8166 37.6695 77.2077 37.6779 77.6144 37.7021C77.7268 37.7087 77.7531 37.6628 77.6934 37.5645L66.5648 19.1567C66.5466 19.1262 66.537 19.091 66.5372 19.055C66.5374 19.019 66.5473 18.9836 66.5659 18.9529L77.6582 0.514291C77.6987 0.447472 77.6809 0.414062 77.6048 0.414062H69.4544C69.4345 0.414075 69.4148 0.41933 69.3973 0.429343C69.3798 0.439355 69.3649 0.453799 69.3542 0.471334L58.055 18.9915C58.0432 19.011 58.0368 19.0335 58.0366 19.0565C58.0364 19.0794 58.0424 19.1019 58.0539 19.1214L64.5595 30.0595C64.5958 30.1212 64.5791 30.152 64.5094 30.152L56.8582 30.1454C56.8513 30.1454 56.8445 30.144 56.8382 30.1413C56.8318 30.1386 56.8261 30.1346 56.8212 30.1296C56.8164 30.1246 56.8125 30.1186 56.8099 30.1121C56.8073 30.1055 56.8059 30.0985 56.8059 30.0914Z" stroke="#ED4545" stroke-width="2.66667"/>
<path d="M83.7264 37.6768L92.1254 37.6966C92.2206 37.6966 92.243 37.6548 92.1926 37.5711L81.0374 19.128C81.0252 19.1079 81.0189 19.0846 81.0191 19.0609C81.0193 19.0371 81.026 19.0138 81.0384 18.9937L92.1712 0.485653C92.2004 0.437926 92.1876 0.414063 92.1328 0.414063H83.9451C83.921 0.414049 83.8973 0.420434 83.8764 0.432593C83.8555 0.444752 83.838 0.462272 83.8256 0.483452C82.9844 1.91895 82.1218 3.35702 81.2379 4.79765C78.3373 9.52562 75.4388 14.2631 72.5424 19.0102C72.5326 19.0263 72.5273 19.0451 72.5273 19.0642C72.5273 19.0832 72.5326 19.102 72.5424 19.1181L83.5376 37.5667C83.5575 37.6003 83.5854 37.6281 83.6184 37.6474C83.6515 37.6667 83.6887 37.6768 83.7264 37.6768Z" stroke="#ED4545" stroke-width="2.66667"/>
<path d="M14.7757 19.1302C14.7876 19.1104 14.7939 19.0875 14.7939 19.0642C14.7939 19.0408 14.7876 19.0179 14.7757 18.9981L3.61513 0.462525C3.59593 0.430217 3.60446 0.414063 3.64073 0.414063H11.8509C11.8691 0.414044 11.8871 0.418776 11.9031 0.427823C11.9192 0.43687 11.9327 0.449941 11.9426 0.465829L23.2642 19.0036C23.2744 19.0205 23.2799 19.0399 23.2801 19.0598C23.2803 19.0796 23.2751 19.099 23.2653 19.1159L12.2327 37.6151C12.2243 37.6296 12.2125 37.6415 12.1985 37.6498C12.1845 37.6581 12.1687 37.6625 12.1527 37.6625L3.6002 37.6757C3.56962 37.6757 3.56251 37.6625 3.57886 37.6361L14.7757 19.1302Z" fill="#231F20"/>
<path d="M31.2581 30.1718L38.9562 30.152C38.9709 30.152 38.985 30.1461 38.9955 30.1355C39.0059 30.125 39.0117 30.1107 39.0117 30.0958V0.469133C39.0117 0.454527 39.0173 0.440521 39.0273 0.430193C39.0373 0.419865 39.0509 0.414063 39.065 0.414063H46.1829C46.1979 0.414056 46.2127 0.417154 46.2265 0.423171C46.2403 0.429189 46.2528 0.438002 46.2632 0.449093C46.2737 0.460184 46.2819 0.473329 46.2873 0.487744C46.2927 0.502158 46.2953 0.51755 46.2949 0.533013C46.2664 1.85543 46.2593 3.14628 46.2736 4.40555C46.2856 5.47245 46.2917 6.20709 46.2917 6.60947C46.2917 15.1909 46.2917 23.7723 46.2917 32.3537C46.2917 32.7326 46.2842 33.4672 46.2693 34.5576C46.2558 35.579 46.2608 36.5956 46.2842 37.6074C46.2845 37.6154 46.2832 37.6234 46.2805 37.6308C46.2777 37.6383 46.2735 37.6451 46.2681 37.6509C46.2628 37.6567 46.2563 37.6612 46.2492 37.6644C46.242 37.6675 46.2344 37.6691 46.2266 37.6691H18.1424C18.0848 37.6691 18.0713 37.6441 18.1018 37.5942L29.2709 19.1346C29.2828 19.1151 29.2891 19.0924 29.2891 19.0693C29.2891 19.0461 29.2828 19.0233 29.2709 19.0036L18.1146 0.485653C18.0862 0.437926 18.099 0.414063 18.153 0.414063H26.3365C26.3591 0.414069 26.3813 0.419927 26.4011 0.431094C26.4209 0.442261 26.4375 0.458373 26.4496 0.477943L37.7541 19.008C37.7649 19.0255 37.7708 19.0459 37.771 19.0667C37.7712 19.0876 37.7657 19.1081 37.7552 19.1258L31.2325 30.1256C31.214 30.1571 31.2225 30.1726 31.2581 30.1718Z" fill="#231F20"/>
<path d="M56.8582 30.1454L64.5094 30.152C64.5791 30.152 64.5958 30.1212 64.5595 30.0595L58.0539 19.1214C58.0424 19.1019 58.0364 19.0794 58.0366 19.0565C58.0368 19.0335 58.0432 19.011 58.055 18.9915L69.3542 0.471334C69.3649 0.453799 69.3798 0.439355 69.3973 0.429343C69.4148 0.41933 69.4345 0.414075 69.4544 0.414062H77.6048C77.6809 0.414062 77.6987 0.447472 77.6582 0.514291L66.5659 18.9529C66.5473 18.9836 66.5374 19.019 66.5372 19.055C66.537 19.091 66.5466 19.1262 66.5648 19.1567L77.6934 37.5645C77.7531 37.6628 77.7268 37.7087 77.6144 37.7021C77.2077 37.6779 76.8166 37.6695 76.4411 37.6768C75.7876 37.69 75.4576 37.6966 75.4512 37.6966C66.8774 37.6966 58.2726 37.6966 49.6369 37.6966C49.6215 37.6966 49.6062 37.6935 49.592 37.6874C49.5777 37.6813 49.5648 37.6724 49.5539 37.6611C49.543 37.6499 49.5344 37.6365 49.5285 37.6218C49.5226 37.6071 49.5195 37.5914 49.5195 37.5755V0.498869C49.5195 0.47813 49.5274 0.458239 49.5414 0.443574C49.5554 0.428909 49.5744 0.420671 49.5942 0.420671L56.7131 0.414062C56.7245 0.414063 56.7357 0.416369 56.7462 0.420852C56.7567 0.425336 56.7662 0.431908 56.7742 0.440193C56.7822 0.448477 56.7886 0.458312 56.7929 0.469136C56.7973 0.47996 56.7995 0.49156 56.7995 0.503276L56.8059 30.0914C56.8059 30.0985 56.8073 30.1055 56.8099 30.1121C56.8125 30.1186 56.8164 30.1246 56.8212 30.1296C56.8261 30.1346 56.8318 30.1386 56.8382 30.1413C56.8445 30.144 56.8513 30.1454 56.8582 30.1454Z" fill="#ED4545"/>
<path d="M83.7264 37.6768C83.6887 37.6768 83.6515 37.6667 83.6184 37.6474C83.5853 37.6282 83.5575 37.6003 83.5376 37.5667L72.5424 19.1181C72.5326 19.102 72.5273 19.0832 72.5273 19.0642C72.5273 19.0451 72.5326 19.0263 72.5424 19.0102C75.4388 14.2631 78.3373 9.52562 81.2379 4.79765C82.1218 3.35702 82.9844 1.91895 83.8256 0.483452C83.838 0.462272 83.8554 0.444752 83.8764 0.432593C83.8973 0.420434 83.921 0.414049 83.9451 0.414063H92.1328C92.1876 0.414063 92.2004 0.437926 92.1712 0.485653L81.0384 18.9937C81.026 19.0138 81.0193 19.0371 81.0191 19.0609C81.0189 19.0846 81.0252 19.1079 81.0373 19.128L92.1925 37.5711C92.243 37.6548 92.2206 37.6966 92.1253 37.6966L83.7264 37.6768Z" fill="#ED4545"/>
</g>
<defs>
<clipPath id="clip0_62_13065">
<rect width="96" height="37.3333" fill="white" transform="translate(0 0.333496)"/>
</clipPath>
</defs>
</svg>
