<svg width="22" height="21" viewBox="0 0 22 21" fill="none" xmlns="http://www.w3.org/2000/svg">
<path fill-rule="evenodd" clip-rule="evenodd" d="M0.101169 0.736258C0.170918 0.526629 0.321055 0.353277 0.518575 0.254308C0.716096 0.15534 0.944832 0.138856 1.1545 0.20848L1.44895 0.307369L1.49339 0.321813C2.18895 0.554036 2.77672 0.749591 3.24006 0.965147C3.73117 1.19404 4.15784 1.47626 4.48117 1.92626C4.8045 2.37404 4.93895 2.86848 5.00006 3.40737C5.05784 3.91404 5.05784 4.53404 5.05784 5.26737V8.22181C5.05784 9.81626 5.06006 10.9296 5.17228 11.7685C5.28228 12.584 5.48339 13.0151 5.79006 13.3229C6.09784 13.6307 6.53006 13.8307 7.34561 13.9407C8.1845 14.0529 9.29672 14.0551 10.8912 14.0551H18.6689C18.7784 14.0551 18.8867 14.0767 18.9878 14.1186C19.089 14.1605 19.1808 14.2218 19.2582 14.2992C19.3356 14.3766 19.397 14.4685 19.4388 14.5696C19.4807 14.6707 19.5023 14.779 19.5023 14.8885C19.5023 14.9979 19.4807 15.1063 19.4388 15.2074C19.397 15.3085 19.3356 15.4004 19.2582 15.4777C19.1808 15.5551 19.089 15.6165 18.9878 15.6584C18.8867 15.7003 18.7784 15.7218 18.6689 15.7218H10.8301C9.31117 15.7218 8.08561 15.7218 7.12228 15.5918C6.12228 15.4585 5.28006 15.1696 4.61117 14.5018C3.94339 13.8329 3.65561 12.9907 3.52117 11.9907C3.39117 11.0274 3.39117 9.80181 3.39117 8.28292V5.31403C3.39117 4.52181 3.39117 3.99737 3.3445 3.59626C3.30006 3.21626 3.22561 3.03292 3.12895 2.9007C3.03339 2.76737 2.88339 2.63737 2.53672 2.47626C2.17006 2.30626 1.67339 2.13848 0.92228 1.88737L0.627836 1.78959C0.418411 1.71962 0.245319 1.56938 0.146572 1.37189C0.0478245 1.17439 0.0314948 0.945783 0.101169 0.736258Z" fill="#FE4242"/>
<path opacity="0.5" d="M5.05078 4.33301C5.05634 4.6219 5.05634 4.93301 5.05634 5.26745V8.2219C5.05634 9.81634 5.05856 10.9297 5.17078 11.7686C5.18745 11.8908 5.20634 12.0052 5.22634 12.1108H16.4708C17.5363 12.1108 18.0686 12.1108 18.4863 11.8352C18.9041 11.5597 19.1141 11.0708 19.533 10.0908L20.0108 8.97967C20.9097 6.87967 21.3586 5.8319 20.8652 5.0819C20.3708 4.33301 19.2297 4.33301 16.9452 4.33301H5.05078Z" fill="#FE4242"/>
<path d="M7.0026 17.6665C7.44463 17.6665 7.86855 17.8421 8.18112 18.1547C8.49368 18.4672 8.66927 18.8911 8.66927 19.3332C8.66927 19.7752 8.49368 20.1991 8.18112 20.5117C7.86855 20.8242 7.44463 20.9998 7.0026 20.9998C6.56058 20.9998 6.13665 20.8242 5.82409 20.5117C5.51153 20.1991 5.33594 19.7752 5.33594 19.3332C5.33594 18.8911 5.51153 18.4672 5.82409 18.1547C6.13665 17.8421 6.56058 17.6665 7.0026 17.6665ZM18.6693 19.3332C18.6693 18.8911 18.4937 18.4672 18.1811 18.1547C17.8686 17.8421 17.4446 17.6665 17.0026 17.6665C16.5606 17.6665 16.1367 17.8421 15.8241 18.1547C15.5115 18.4672 15.3359 18.8911 15.3359 19.3332C15.3359 19.7752 15.5115 20.1991 15.8241 20.5117C16.1367 20.8242 16.5606 20.9998 17.0026 20.9998C17.4446 20.9998 17.8686 20.8242 18.1811 20.5117C18.4937 20.1991 18.6693 19.7752 18.6693 19.3332Z" fill="#FE4242"/>
</svg>
