<svg width="19" height="20" viewBox="0 0 19 20" fill="none" xmlns="http://www.w3.org/2000/svg">
<path fill-rule="evenodd" clip-rule="evenodd" d="M14.3194 13.4331C15.5664 11.8255 16.1541 9.80314 15.9629 7.77757C15.7717 5.752 14.8161 3.87533 13.2904 2.52936C11.7646 1.18339 9.78344 0.469224 7.74984 0.532152C5.71624 0.59508 3.783 1.43037 2.34341 2.8681C0.902562 4.30683 0.0645358 6.24082 0.000103898 8.27597C-0.064328 10.3111 0.649684 12.2942 1.99663 13.8212C3.34359 15.3482 5.2221 16.3041 7.24938 16.4942C9.27665 16.6842 11.3001 16.0941 12.9074 14.8441L12.9504 14.8891L17.1924 19.1321C17.2853 19.225 17.3956 19.2987 17.517 19.349C17.6384 19.3993 17.7685 19.4252 17.8999 19.4252C18.0313 19.4252 18.1614 19.3993 18.2828 19.349C18.4042 19.2987 18.5145 19.225 18.6074 19.1321C18.7003 19.0392 18.774 18.9289 18.8243 18.8075C18.8746 18.6861 18.9005 18.556 18.9005 18.4246C18.9005 18.2932 18.8746 18.1631 18.8243 18.0417C18.774 17.9203 18.7003 17.81 18.6074 17.7171L14.3644 13.4751C14.3498 13.4607 14.3348 13.4467 14.3194 13.4331ZM12.2434 4.2831C12.808 4.83858 13.257 5.50035 13.5646 6.23024C13.8722 6.96013 14.0322 7.74369 14.0354 8.53572C14.0386 9.32776 13.885 10.1126 13.5834 10.845C13.2818 11.5773 12.8382 12.2427 12.2781 12.8028C11.718 13.3629 11.0526 13.8065 10.3203 14.1081C9.5879 14.4097 8.80306 14.5633 8.01103 14.5601C7.21899 14.5569 6.43543 14.3969 5.70554 14.0893C4.97565 13.7817 4.31389 13.3327 3.75841 12.7681C2.64832 11.6398 2.02906 10.1185 2.03551 8.53572C2.04195 6.9529 2.67358 5.43675 3.79282 4.31751C4.91205 3.19828 6.4282 2.56665 8.01103 2.5602C9.59385 2.55376 11.1151 3.17302 12.2434 4.2831Z" fill="#767676"/>
</svg>
