<svg width="18" height="18" viewBox="0 0 18 18" fill="none" xmlns="http://www.w3.org/2000/svg">
<path d="M8.50418 0.811082C8.57972 0.230423 9.42028 0.23042 9.49582 0.811078L9.93543 4.1901C9.99153 4.62126 10.5332 4.78031 10.8135 4.44792L13.0102 1.84298C13.3876 1.39534 14.0948 1.84978 13.8444 2.3791L12.3874 5.45939C12.2015 5.85243 12.5711 6.27908 12.9866 6.151L16.2429 5.14718C16.8025 4.97469 17.1517 5.73928 16.6549 6.04921L13.7638 7.8528C13.3949 8.08293 13.4753 8.64173 13.8941 8.75861L17.1761 9.67463C17.7401 9.83204 17.6205 10.664 17.035 10.6562L13.6278 10.6104C13.1931 10.6046 12.9585 11.1181 13.2477 11.4429L15.5135 13.9879C15.9028 14.4252 15.3524 15.0605 14.8641 14.7373L12.0225 12.8568C11.6599 12.6168 11.185 12.922 11.2526 13.3515L11.7828 16.7175C11.8739 17.2959 11.0674 17.5328 10.8313 16.9969L9.45756 13.8786C9.28227 13.4807 8.71773 13.4807 8.54244 13.8786L7.16865 16.9969C6.93258 17.5328 6.12607 17.2959 6.21718 16.7175L6.74735 13.3515C6.815 12.922 6.34008 12.6168 5.9775 12.8568L3.13592 14.7373C2.64762 15.0605 2.09717 14.4252 2.48653 13.9879L4.75234 11.4429C5.04146 11.1181 4.80694 10.6046 4.37219 10.6104L0.964995 10.6562C0.379496 10.664 0.25987 9.83204 0.823867 9.67463L4.10593 8.75861C4.52472 8.64173 4.60506 8.08293 4.23617 7.8528L1.34512 6.04922C0.848321 5.73928 1.1975 4.97469 1.75707 5.14718L5.01336 6.151C5.42885 6.27908 5.79855 5.85243 5.61264 5.45939L4.15562 2.3791C3.90525 1.84978 4.61237 1.39534 4.98985 1.84298L7.18651 4.44792C7.4668 4.78031 8.00847 4.62126 8.06457 4.1901L8.50418 0.811082Z" fill="white"/>
</svg>
