<svg width="23" height="23" viewBox="0 0 23 23" fill="none" xmlns="http://www.w3.org/2000/svg">
<path opacity="0.2" d="M21.4934 17.0395C21.3235 18.3094 20.6982 19.4744 19.7337 20.3178C18.7692 21.1612 17.5312 21.6255 16.25 21.6245C12.3049 21.6245 8.52139 20.0574 5.73179 17.2678C2.94218 14.4782 1.375 10.6946 1.375 6.74955C1.37402 5.46833 1.8384 4.23037 2.68177 3.26588C3.52514 2.30139 4.6901 1.67604 5.96 1.50611C6.14772 1.48381 6.33762 1.5229 6.50127 1.61754C6.66492 1.71218 6.79352 1.85728 6.86781 2.03111L9.17891 7.19361C9.23569 7.32621 9.25881 7.47078 9.24622 7.61447C9.23362 7.75816 9.1857 7.89651 9.10672 8.0172L6.76938 10.7964C6.68647 10.9215 6.63744 11.066 6.62708 11.2157C6.61673 11.3655 6.64541 11.5153 6.71031 11.6506C7.61484 13.5024 9.52891 15.3935 11.3861 16.2892C11.5221 16.3539 11.6727 16.3819 11.8229 16.3706C11.973 16.3593 12.1177 16.309 12.2425 16.2247L14.9769 13.895C15.0981 13.8144 15.2374 13.7653 15.3824 13.7521C15.5273 13.7389 15.6733 13.7621 15.807 13.8196L20.9652 16.1306C21.1398 16.2045 21.2857 16.333 21.381 16.4969C21.4763 16.6608 21.5157 16.8513 21.4934 17.0395Z" fill="#ED4545"/>
<path d="M13.6545 2.14837C13.6842 2.03733 13.7355 1.93322 13.8055 1.842C13.8754 1.75079 13.9627 1.67425 14.0622 1.61676C14.1618 1.55927 14.2716 1.52195 14.3856 1.50695C14.4996 1.49194 14.6154 1.49954 14.7264 1.52931C16.3485 1.95253 17.8285 2.80051 19.0139 3.98591C20.1993 5.17131 21.0472 6.65127 21.4705 8.27337C21.5002 8.3844 21.5078 8.50021 21.4928 8.61417C21.4778 8.72814 21.4405 8.83803 21.383 8.93758C21.3255 9.03712 21.249 9.12435 21.1578 9.1943C21.0666 9.26425 20.9625 9.31555 20.8514 9.34525C20.7775 9.36466 20.7014 9.37458 20.625 9.37478C20.4322 9.37477 20.2448 9.31108 20.0919 9.19359C19.939 9.0761 19.8292 8.91141 19.7795 8.72509C19.4344 7.40091 18.7423 6.19274 17.7747 5.22512C16.807 4.25749 15.5989 3.56542 14.2747 3.22025C14.1636 3.19066 14.0593 3.13946 13.968 3.06956C13.8767 2.99966 13.8 2.91244 13.7424 2.81288C13.6848 2.71333 13.6474 2.6034 13.6323 2.48937C13.6172 2.37535 13.6248 2.25947 13.6545 2.14837ZM13.3997 6.72025C14.908 7.12275 15.877 8.09181 16.2795 9.60009C16.3292 9.78641 16.439 9.95111 16.5919 10.0686C16.7448 10.1861 16.9322 10.2498 17.125 10.2498C17.2014 10.2496 17.2775 10.2397 17.3514 10.2202C17.4625 10.1905 17.5666 10.1393 17.6578 10.0693C17.749 9.99935 17.8255 9.91212 17.883 9.81258C17.9405 9.71303 17.9778 9.60314 17.9928 9.48917C18.0078 9.37521 18.0002 9.2594 17.9705 9.14837C17.4105 7.05275 15.947 5.58931 13.8514 5.02931C13.7404 4.99965 13.6246 4.99215 13.5107 5.00723C13.3967 5.02232 13.2869 5.0597 13.1874 5.11724C13.0879 5.17477 13.0008 5.25134 12.9309 5.34257C12.861 5.43379 12.8097 5.53789 12.7801 5.64892C12.7504 5.75995 12.7429 5.87573 12.758 5.98966C12.7731 6.10359 12.8105 6.21343 12.868 6.31291C12.9255 6.41239 13.0021 6.49957 13.0933 6.56946C13.1846 6.63935 13.2887 6.69059 13.3997 6.72025ZM22.3619 17.1492C22.1669 18.6312 21.439 19.9916 20.3143 20.9763C19.1895 21.9609 17.7448 22.5025 16.25 22.4998C7.56563 22.4998 0.50001 15.4342 0.50001 6.74978C0.49733 5.25494 1.03889 3.81024 2.02353 2.68551C3.00817 1.56078 4.36857 0.832927 5.85063 0.637904C6.22541 0.592142 6.60494 0.668815 6.93256 0.856477C7.26018 1.04414 7.51832 1.33272 7.66845 1.67915L9.97845 6.83618V6.84931C10.0934 7.11449 10.1409 7.40402 10.1166 7.69202C10.0924 7.98002 9.99718 8.25754 9.83954 8.49978C9.81985 8.52931 9.79907 8.55665 9.7772 8.584L7.50001 11.2834C8.31923 12.9481 10.0605 14.674 11.747 15.4954L14.4092 13.2302C14.4354 13.2083 14.4628 13.1878 14.4913 13.169C14.7333 13.0076 15.0118 12.909 15.3015 12.8823C15.5912 12.8555 15.883 12.9015 16.1505 13.0159L16.1647 13.0224L21.3174 15.3313C21.6644 15.4809 21.9537 15.7388 22.142 16.0665C22.3302 16.3942 22.4074 16.774 22.3619 17.1492ZM20.625 16.9304H20.613L15.4724 14.6281L12.8091 16.8932C12.7832 16.9151 12.7562 16.9355 12.7281 16.9545C12.4763 17.1225 12.1852 17.2223 11.8833 17.2441C11.5813 17.266 11.2789 17.2091 11.0055 17.0792C8.95688 16.0893 6.91485 14.0626 5.92391 12.0359C5.7927 11.7645 5.73382 11.4638 5.75298 11.1629C5.77214 10.8621 5.8687 10.5712 6.03329 10.3187C6.05184 10.289 6.07269 10.2609 6.09563 10.2345L8.37501 7.53181L6.07813 2.39118C6.0777 2.38682 6.0777 2.38242 6.07813 2.37806C5.01748 2.51642 4.04363 3.03668 3.33896 3.8414C2.63429 4.64613 2.24714 5.68014 2.25001 6.74978C2.25406 10.4616 3.73036 14.0202 6.35499 16.6448C8.97962 19.2694 12.5382 20.7457 16.25 20.7498C17.319 20.7534 18.3527 20.3677 19.1579 19.6645C19.9631 18.9614 20.4846 17.989 20.625 16.9293V16.9304Z" fill="#ED4545"/>
</svg>
