<svg width="20" height="19" viewBox="0 0 20 19" fill="none" xmlns="http://www.w3.org/2000/svg">
<path fill-rule="evenodd" clip-rule="evenodd" d="M0.288318 0.763218C0.351092 0.574552 0.486215 0.418535 0.663983 0.329463C0.841752 0.240392 1.04761 0.225556 1.23632 0.288218L1.50132 0.377218L1.54132 0.390218C2.16732 0.599218 2.69632 0.775218 3.11332 0.969218C3.55532 1.17522 3.93932 1.42922 4.23032 1.83422C4.52132 2.23722 4.64232 2.68222 4.69732 3.16722C4.74932 3.62322 4.74932 4.18122 4.74932 4.84122V7.50022C4.74932 8.93522 4.75132 9.93722 4.85232 10.6922C4.95132 11.4262 5.13232 11.8142 5.40832 12.0912C5.68532 12.3682 6.07432 12.5482 6.80832 12.6472C7.56332 12.7482 8.56432 12.7502 9.99932 12.7502H16.9993C17.0978 12.7502 17.1953 12.7696 17.2863 12.8073C17.3773 12.845 17.46 12.9002 17.5296 12.9699C17.5993 13.0395 17.6545 13.1222 17.6922 13.2132C17.7299 13.3042 17.7493 13.4017 17.7493 13.5002C17.7493 13.5987 17.7299 13.6962 17.6922 13.7872C17.6545 13.8782 17.5993 13.9609 17.5296 14.0305C17.46 14.1002 17.3773 14.1554 17.2863 14.1931C17.1953 14.2308 17.0978 14.2502 16.9993 14.2502H9.94432C8.57732 14.2502 7.47432 14.2502 6.60732 14.1332C5.70732 14.0132 4.94932 13.7532 4.34732 13.1522C3.74632 12.5502 3.48732 11.7922 3.36632 10.8922C3.24932 10.0252 3.24932 8.92222 3.24932 7.55522V4.88322C3.24932 4.17022 3.24932 3.69822 3.20732 3.33722C3.16732 2.99522 3.10032 2.83022 3.01332 2.71122C2.92732 2.59122 2.79232 2.47422 2.48032 2.32922C2.15032 2.17622 1.70332 2.02522 1.02732 1.79922L0.762318 1.71122C0.573836 1.64824 0.418053 1.51303 0.32918 1.33529C0.240308 1.15754 0.225611 0.95179 0.288318 0.763218Z" fill="#ED4545"/>
<path opacity="0.5" d="M4.74609 4C4.75109 4.26 4.75109 4.54 4.75109 4.841V7.5C4.75109 8.935 4.75309 9.937 4.85409 10.692C4.86909 10.802 4.88609 10.905 4.90409 11H15.0241C15.9831 11 16.4621 11 16.8381 10.752C17.2141 10.504 17.4031 10.064 17.7801 9.182L18.2101 8.182C19.0191 6.292 19.4231 5.349 18.9791 4.674C18.5341 4 17.5071 4 15.4511 4H4.74609Z" fill="#ED4545"/>
<path d="M6.5 16C6.89782 16 7.27936 16.158 7.56066 16.4393C7.84196 16.7206 8 17.1022 8 17.5C8 17.8978 7.84196 18.2794 7.56066 18.5607C7.27936 18.842 6.89782 19 6.5 19C6.10218 19 5.72064 18.842 5.43934 18.5607C5.15804 18.2794 5 17.8978 5 17.5C5 17.1022 5.15804 16.7206 5.43934 16.4393C5.72064 16.158 6.10218 16 6.5 16ZM17 17.5C17 17.1022 16.842 16.7206 16.5607 16.4393C16.2794 16.158 15.8978 16 15.5 16C15.1022 16 14.7206 16.158 14.4393 16.4393C14.158 16.7206 14 17.1022 14 17.5C14 17.8978 14.158 18.2794 14.4393 18.5607C14.7206 18.842 15.1022 19 15.5 19C15.8978 19 16.2794 18.842 16.5607 18.5607C16.842 18.2794 17 17.8978 17 17.5Z" fill="#ED4545"/>
</svg>
