<svg width="24" height="24" viewBox="0 0 24 24" fill="none" xmlns="http://www.w3.org/2000/svg">
<path d="M10.4067 5.56011L4 12.0001L10.4067 18.4401C10.4645 18.5161 10.538 18.5788 10.6222 18.6239C10.7064 18.669 10.7993 18.6954 10.8946 18.7015C10.9899 18.7076 11.0854 18.6931 11.1747 18.6591C11.2639 18.6251 11.3448 18.5723 11.4118 18.5042C11.4789 18.4362 11.5305 18.3546 11.5633 18.2649C11.596 18.1752 11.6091 18.0795 11.6017 17.9843C11.5943 17.8891 11.5664 17.7965 11.5201 17.713C11.4738 17.6295 11.4101 17.5569 11.3333 17.5001L6.54 12.6668L19.2933 12.6668C19.4701 12.6668 19.6397 12.5965 19.7647 12.4715C19.8898 12.3465 19.96 12.1769 19.96 12.0001C19.96 11.8233 19.8898 11.6537 19.7647 11.5287C19.6397 11.4037 19.4701 11.3334 19.2933 11.3334L6.54 11.3334L11.3333 6.50011C11.458 6.37457 11.5277 6.20466 11.527 6.02775C11.5264 5.85084 11.4555 5.68143 11.33 5.55677C11.2045 5.43212 11.0346 5.36244 10.8576 5.36307C10.6807 5.36369 10.5113 5.43457 10.3867 5.56011L10.4067 5.56011Z" fill="#2E2E2E"/>
</svg>
