<svg width="61" height="55" viewBox="0 0 61 55" fill="none" xmlns="http://www.w3.org/2000/svg">
<path d="M55.319 30.7281V49.2H58.0524V54.6667H3.38568V49.2H6.11901V30.7281C4.43629 29.605 3.05689 28.0838 2.10325 26.2995C1.14961 24.5152 0.651229 22.5231 0.652346 20.5C0.652346 18.2395 1.26461 16.0611 2.38255 14.2051L9.79535 1.36667C10.0352 0.951158 10.3803 0.606114 10.7958 0.366215C11.2113 0.126315 11.6826 1.21885e-05 12.1624 0H49.2784C49.7581 1.21885e-05 50.2295 0.126315 50.645 0.366215C51.0605 0.606114 51.4055 0.951158 51.6454 1.36667L59.0309 14.1641C60.6615 16.8725 61.1856 20.1051 60.4943 23.19C59.803 26.2748 57.9495 28.9746 55.319 30.7281ZM49.8524 32.7235C47.973 32.9343 46.0704 32.7085 44.2925 32.0638C42.5147 31.419 40.9097 30.3727 39.6024 29.0061C38.4549 30.2063 37.0762 31.1614 35.5494 31.814C34.0226 32.4665 32.3794 32.8028 30.719 32.8027C29.059 32.8036 27.4161 32.468 25.8893 31.8165C24.3625 31.1649 22.9836 30.2107 21.8357 29.0116C20.5281 30.3776 18.923 31.4235 17.1452 32.0678C15.3673 32.7121 13.4648 32.9374 11.5857 32.7262V49.2H49.8524V32.7235ZM13.7423 5.46667L7.09208 16.9822C6.44586 18.5789 6.42646 20.3607 7.03777 21.971C7.64908 23.5814 8.846 24.9015 10.389 25.6671C11.932 26.4327 13.7071 26.5873 15.3593 26.1001C17.0114 25.6129 18.4186 24.5196 19.2992 23.0393C20.2148 20.7515 23.4538 20.7515 24.3722 23.0393C24.8787 24.3087 25.7542 25.397 26.8856 26.1637C28.017 26.9305 29.3523 27.3403 30.719 27.3403C32.0857 27.3403 33.4211 26.9305 34.5525 26.1637C35.6838 25.397 36.5593 24.3087 37.0658 23.0393C37.9815 20.7515 41.2205 20.7515 42.1389 23.0393C42.4936 23.9124 43.0251 24.7028 43.7 25.3606C44.3749 26.0185 45.1786 26.5296 46.0605 26.8619C46.9424 27.1942 47.8836 27.3404 48.8248 27.2915C49.766 27.2425 50.6868 26.9994 51.5295 26.5774C52.3722 26.1554 53.1185 25.5636 53.7215 24.8393C54.3245 24.1149 54.7711 23.2737 55.0333 22.3684C55.2955 21.4632 55.3676 20.5135 55.2451 19.579C55.1226 18.6445 54.8081 17.7455 54.3214 16.9385L47.693 5.46667H13.7423Z" fill="#F6F6F6"/>
</svg>
