<svg width="35" height="35" viewBox="0 0 35 35" fill="none" xmlns="http://www.w3.org/2000/svg">
<path d="M10.9375 9.84375H15.3125M10.9375 17.5H24.0625M10.9375 21.875H24.0625M10.9375 26.25H15.3125M8.75 31.7188H26.25C26.8302 31.7188 27.3866 31.4883 27.7968 31.078C28.207 30.6678 28.4375 30.1114 28.4375 29.5312V5.46875C28.4375 4.88859 28.207 4.33219 27.7968 3.92195C27.3866 3.51172 26.8302 3.28125 26.25 3.28125H8.75C8.16984 3.28125 7.61344 3.51172 7.2032 3.92195C6.79297 4.33219 6.5625 4.88859 6.5625 5.46875V29.5312C6.5625 30.1114 6.79297 30.6678 7.2032 31.078C7.61344 31.4883 8.16984 31.7188 8.75 31.7188Z" stroke="white" stroke-width="1.5" stroke-linecap="round" stroke-linejoin="round"/>
<path d="M24.0625 10.3906C24.3645 10.3906 24.6094 10.1458 24.6094 9.84375C24.6094 9.54172 24.3645 9.29688 24.0625 9.29688C23.7605 9.29688 23.5156 9.54172 23.5156 9.84375C23.5156 10.1458 23.7605 10.3906 24.0625 10.3906Z" fill="white" stroke="white" stroke-width="0.75"/>
</svg>
