<svg width="15" height="18" viewBox="0 0 15 18" fill="none" xmlns="http://www.w3.org/2000/svg">
<path d="M6.75307 3.38685C6.62731 3.04449 6.37532 2.76322 6.04878 2.60074C5.72224 2.43826 5.34591 2.40688 4.99697 2.51305C3.34287 3.02305 2.18687 4.44255 2.43507 6.08475C2.71265 7.90739 3.33027 9.66163 4.25577 11.2561C5.17137 12.847 6.37169 14.2559 7.79687 15.4126C9.07867 16.4496 10.8773 16.164 12.1455 14.974C12.4122 14.7237 12.5741 14.3814 12.5984 14.0164C12.6227 13.6513 12.5076 13.2907 12.2764 13.0071L11.3686 11.897C11.1867 11.6738 10.942 11.5104 10.6662 11.4279C10.3903 11.3455 10.0961 11.3478 9.82157 11.4346L7.72717 12.0976L7.36167 11.7202C6.90115 11.2426 6.49832 10.7126 6.16147 10.1409C5.83453 9.56289 5.57989 8.94684 5.40327 8.30665L5.26217 7.80515L6.87717 6.31765C7.09028 6.11977 7.23977 5.86303 7.30666 5.58002C7.37356 5.297 7.35483 5.0005 7.25287 4.72815L6.75477 3.38855L6.75307 3.38685ZM4.49717 0.887849C5.26073 0.654231 6.08472 0.721469 6.80031 1.07578C7.51589 1.4301 8.06889 2.04467 8.34597 2.79355L8.84407 4.13315C9.0638 4.72168 9.10354 5.36226 8.95824 5.97344C8.81293 6.58462 8.48915 7.13878 8.02807 7.56545L7.19507 8.33215C7.30217 8.62795 7.44667 8.96625 7.63367 9.29435C7.82067 9.61735 8.03827 9.91145 8.23717 10.1511L9.30817 9.81115C9.90693 9.62211 10.5486 9.61713 11.1503 9.79686C11.7519 9.97659 12.2857 10.3328 12.6827 10.8192L13.5905 11.9293C14.095 12.5463 14.3465 13.3318 14.2941 14.127C14.2417 14.9222 13.8893 15.6679 13.3083 16.2133C11.6185 17.7994 8.85937 18.4573 6.72927 16.7336C5.14205 15.4459 3.80515 13.8773 2.78527 12.1061C1.75277 10.3277 1.06365 8.37103 0.753769 6.33805C0.345769 3.62995 2.28887 1.56785 4.49717 0.889549V0.887849Z" fill="white"/>
</svg>
