<svg width="29" height="29" viewBox="0 0 29 29" fill="none" xmlns="http://www.w3.org/2000/svg">
<path d="M6.55137 17.0258C7.22583 17.0257 7.87962 17.2586 8.40209 17.6851C8.92457 18.1116 9.28364 18.7055 9.41853 19.3664H17.6689V7.66368H4.79597C4.17522 7.66368 3.57989 7.91027 3.14095 8.34921C2.70202 8.78814 2.45543 9.38347 2.45543 10.0042V19.3664H3.68421C3.8191 18.7055 4.17817 18.1116 4.70064 17.6851C5.22312 17.2586 5.87691 17.0257 6.55137 17.0258ZM6.55137 22.8772C5.87691 22.8773 5.22312 22.6444 4.70064 22.2179C4.17817 21.7914 3.8191 21.1975 3.68421 20.5366H1.28516V10.0042C1.28516 9.07309 1.65504 8.1801 2.31345 7.5217C2.97185 6.8633 3.86484 6.49341 4.79597 6.49341H17.6689C17.9793 6.49341 18.277 6.6167 18.4964 6.83617C18.7159 7.05564 18.8392 7.3533 18.8392 7.66368V10.0042H22.35L25.8608 14.6853V20.5366H23.4618C23.3275 21.198 22.9687 21.7926 22.4461 22.2197C21.9236 22.6468 21.2695 22.8801 20.5946 22.8801C19.9197 22.8801 19.2656 22.6468 18.7431 22.2197C18.2206 21.7926 17.8617 21.198 17.7274 20.5366H9.41853C9.28364 21.1975 8.92457 21.7914 8.40209 22.2179C7.87962 22.6444 7.22583 22.8773 6.55137 22.8772ZM6.55137 18.1961C6.08581 18.1961 5.63931 18.381 5.31011 18.7102C4.98091 19.0395 4.79597 19.4859 4.79597 19.9515C4.79597 20.4171 4.98091 20.8636 5.31011 21.1928C5.63931 21.522 6.08581 21.7069 6.55137 21.7069C7.01693 21.7069 7.46343 21.522 7.79263 21.1928C8.12183 20.8636 8.30677 20.4171 8.30677 19.9515C8.30677 19.4859 8.12183 19.0395 7.79263 18.7102C7.46343 18.381 7.01693 18.1961 6.55137 18.1961ZM20.5946 17.0258C21.2691 17.0257 21.9229 17.2586 22.4453 17.6851C22.9678 18.1116 23.3269 18.7055 23.4618 19.3664H24.6905V15.0598L24.4097 14.6853H18.8392V17.611C19.3307 17.2482 19.9393 17.0258 20.5946 17.0258ZM20.5946 18.1961C20.129 18.1961 19.6826 18.381 19.3533 18.7102C19.0241 19.0395 18.8392 19.4859 18.8392 19.9515C18.8392 20.4171 19.0241 20.8636 19.3533 21.1928C19.6826 21.522 20.129 21.7069 20.5946 21.7069C21.0602 21.7069 21.5067 21.522 21.8359 21.1928C22.1651 20.8636 22.35 20.4171 22.35 19.9515C22.35 19.4859 22.1651 19.0395 21.8359 18.7102C21.5067 18.381 21.0602 18.1961 20.5946 18.1961ZM18.8392 11.1745V13.515H23.5203L21.7649 11.1745H18.8392Z" fill="white"/>
</svg>
