<svg width="35" height="35" viewBox="0 0 35 35" fill="none" xmlns="http://www.w3.org/2000/svg">
<path d="M22.8114 20.625C22.5628 20.625 22.3243 20.7238 22.1485 20.8996C21.9727 21.0754 21.8739 21.3139 21.8739 21.5625C21.8739 21.8111 21.9727 22.0496 22.1485 22.2254C22.3243 22.4012 22.5628 22.5 22.8114 22.5H27.1864C27.435 22.5 27.6735 22.4012 27.8493 22.2254C28.0251 22.0496 28.1239 21.8111 28.1239 21.5625C28.1239 21.3139 28.0251 21.0754 27.8493 20.8996C27.6735 20.7238 27.435 20.625 27.1864 20.625H22.8114ZM2.50391 10.9375C2.50391 9.6943 2.99777 8.50201 3.87684 7.62294C4.75592 6.74386 5.9482 6.25 7.19141 6.25H27.8114C29.0546 6.25 30.2469 6.74386 31.126 7.62294C32.005 8.50201 32.4989 9.6943 32.4989 10.9375V24.0625C32.4989 25.3057 32.005 26.498 31.126 27.3771C30.2469 28.2561 29.0546 28.75 27.8114 28.75H7.19266C5.94945 28.75 4.75717 28.2561 3.87809 27.3771C2.99902 26.498 2.50516 25.3057 2.50516 24.0625V10.9375H2.50391ZM7.19141 8.125C6.44549 8.125 5.73011 8.42132 5.20267 8.94876C4.67522 9.47621 4.37891 10.1916 4.37891 10.9375V11.875H30.6239V10.9375C30.6239 10.1916 30.3276 9.47621 29.8001 8.94876C29.2727 8.42132 28.5573 8.125 27.8114 8.125H7.19141ZM4.37891 24.0625C4.37891 24.8084 4.67522 25.5238 5.20267 26.0512C5.73011 26.5787 6.44549 26.875 7.19141 26.875H27.8114C28.5573 26.875 29.2727 26.5787 29.8001 26.0512C30.3276 25.5238 30.6239 24.8084 30.6239 24.0625V13.75H4.38016V24.0625H4.37891Z" fill="white"/>
</svg>
