<svg width="27" height="28" viewBox="0 0 27 28" fill="none" xmlns="http://www.w3.org/2000/svg">
<path d="M8.55585 17.0536V21.9643M13.4666 17.0536V21.9643M18.3773 17.0536V21.9643M23.9951 12.1429H2.938C2.65708 12.1405 2.37891 12.1984 2.12227 12.3127C1.86564 12.427 1.6365 12.595 1.45032 12.8053C1.26415 13.0157 1.12526 13.2636 1.04304 13.5322C0.960821 13.8008 0.937179 14.084 0.97371 14.3625L2.40764 25.1661C2.46997 25.6417 2.70413 26.078 3.06597 26.3928C3.42782 26.7076 3.89233 26.8791 4.37192 26.875H22.5219C23.0015 26.8791 23.466 26.7076 23.8279 26.3928C24.1897 26.078 24.4239 25.6417 24.4862 25.1661L25.9201 14.3625C25.9562 14.0873 25.9336 13.8075 25.8537 13.5416C25.7738 13.2757 25.6384 13.0298 25.4565 12.8201C25.2746 12.6103 25.0503 12.4415 24.7984 12.3248C24.5465 12.2081 24.2727 12.1461 23.9951 12.1429Z" stroke="white" stroke-width="1.34694" stroke-linecap="round" stroke-linejoin="round"/>
<path d="M18.3374 3.38232C19.514 3.5856 20.5921 4.16762 21.4076 5.03986C22.2231 5.9121 22.7314 7.02681 22.8552 8.21447L23.2874 12.143M3.64453 12.143L4.07667 8.21447C4.20852 7.03386 4.72042 5.92805 5.53526 5.06361C6.3501 4.19917 7.42376 3.62291 8.59453 3.42161" stroke="white" stroke-width="1.34694" stroke-linecap="round" stroke-linejoin="round"/>
<path d="M18.3761 3.79471C18.3761 4.11715 18.3126 4.43644 18.1892 4.73434C18.0658 5.03223 17.885 5.30291 17.657 5.53091C17.429 5.75891 17.1583 5.93977 16.8604 6.06317C16.5625 6.18656 16.2432 6.25007 15.9208 6.25007H11.01C10.3588 6.25007 9.73431 5.99138 9.27384 5.53091C8.81338 5.07044 8.55469 4.44591 8.55469 3.79471C8.55469 3.14351 8.81338 2.51898 9.27384 2.05851C9.73431 1.59804 10.3588 1.33936 11.01 1.33936H15.9208C16.572 1.33936 17.1965 1.59804 17.657 2.05851C18.1174 2.51898 18.3761 3.14351 18.3761 3.79471Z" stroke="white" stroke-width="1.34694" stroke-linecap="round" stroke-linejoin="round"/>
</svg>
