<svg width="96" height="95" viewBox="0 0 96 95" fill="none" xmlns="http://www.w3.org/2000/svg">
<rect x="0.910156" width="94.2639" height="94.2639" rx="47.1319" fill="#ED4545"/>
<path d="M39.5236 10.1423L41.4888 10.1588C42.0943 10.1644 42.3057 9.82236 42.123 9.13285C42.0917 9.01701 41.7081 6.95262 42.2483 7.30013C42.3325 7.35498 42.4053 7.42683 42.4625 7.5114C42.5197 7.59597 42.56 7.69154 42.5811 7.79244C43.0665 10.0458 42.4388 11.1793 40.698 11.1931C39.3317 11.2055 38.7249 11.0607 38.3608 9.53001C38.3021 9.28178 36.6774 3.87051 37.8793 4.82617C37.9678 4.89841 38.0371 5.01994 38.0751 5.16954L39.273 9.91061C39.2896 9.97717 39.3233 10.0361 39.3687 10.078C39.414 10.12 39.4685 10.1426 39.5236 10.1423Z" fill="white"/>
<path d="M42.1517 6.48054C42.477 6.48054 42.7408 6.21677 42.7408 5.8914C42.7408 5.56602 42.477 5.30225 42.1517 5.30225C41.8263 5.30225 41.5625 5.56602 41.5625 5.8914C41.5625 6.21677 41.8263 6.48054 42.1517 6.48054Z" fill="white"/>
<path d="M40.6194 6.38871C39.9122 6.63619 39.6589 6.38348 39.8594 5.63058C39.8813 5.5509 39.9249 5.47937 39.9848 5.42464C40.0447 5.3699 40.1185 5.33429 40.1972 5.3221C40.8234 5.22799 41.0697 5.4685 40.936 6.04363C40.9182 6.12215 40.8797 6.19507 40.8243 6.25547C40.7689 6.31587 40.6983 6.36174 40.6194 6.38871Z" fill="white"/>
<path d="M47.9701 6.63719C48.1265 7.00058 48.0287 7.13507 47.677 7.04066C47.635 7.03002 47.5964 7.00929 47.5647 6.98036C47.533 6.95142 47.5092 6.9152 47.4955 6.87499C47.3894 6.57751 47.4825 6.44837 47.7747 6.48756C47.8175 6.49421 47.858 6.51145 47.8922 6.53764C47.9264 6.56383 47.9532 6.5981 47.9701 6.63719Z" fill="white"/>
<path d="M63.2715 13.176L63.9234 13.2872C64.0984 13.3185 64.22 13.3585 64.2884 13.4069C66.5969 15.0619 66.6666 10.9437 67.4252 12.1112C67.4593 12.1651 67.4797 12.2284 67.4847 12.2955C67.4897 12.3625 67.4791 12.4314 67.4539 12.496C66.806 14.1382 66.2934 15.2629 64.1776 14.4675C64.0437 14.4162 63.9084 14.3691 63.7717 14.3264C61.8814 13.7277 61.9224 12.7911 62.64 11.0805C63.1649 9.82611 63.6993 8.57738 64.2433 7.33435C64.2746 7.26269 64.3168 7.20094 64.3657 7.15519C64.4146 7.10945 64.4685 7.08129 64.5221 7.07349C64.656 7.05638 64.7681 7.09915 64.8583 7.20178C64.8981 7.24623 64.9228 7.30574 64.9294 7.37275C64.9359 7.43976 64.9241 7.51124 64.8952 7.57811L62.9311 12.2566C62.8914 12.3518 62.8687 12.4543 62.8648 12.5564C62.8609 12.6585 62.8759 12.7575 62.9086 12.846C62.9414 12.9345 62.9911 13.0102 63.0539 13.0673C63.1167 13.1245 63.1911 13.1616 63.2715 13.176Z" fill="white"/>
<path d="M51.1051 9.46862L53.0155 9.48965C53.1642 9.49059 53.3116 9.43542 53.4348 9.33272C53.558 9.23002 53.6501 9.08553 53.6969 8.92167C53.7831 8.61455 54.1842 7.04104 54.7276 7.5964C54.7706 7.64104 54.8026 7.69747 54.8213 7.76153C54.8399 7.8256 54.8447 7.89568 54.8354 7.96663C54.7491 8.57248 53.8478 9.87672 55.1502 9.99031C55.3025 10.0043 55.4334 10.0464 55.5426 10.1165C57.9317 11.6606 57.1813 6.96531 60.1569 8.66924C61.1545 9.23862 61.271 10.2666 60.5062 11.7531C60.411 11.9361 60.2671 12.0903 60.0901 12.1992C59.9131 12.3082 59.7096 12.3678 59.5014 12.3716C58.7194 12.3884 57.9734 12.0252 57.2633 11.2819C57.2231 11.2388 57.169 11.2095 57.1087 11.1982C57.0483 11.1869 56.9847 11.1941 56.9269 11.2188C56.395 11.432 55.8847 11.3661 55.396 11.0211C54.5709 10.4405 54.0404 10.1867 53.8047 10.2596C52.8445 10.5569 51.8727 10.5919 50.8895 10.3648C50.8627 10.359 50.835 10.3585 50.8082 10.3631C50.7813 10.3677 50.7559 10.3773 50.7333 10.3915C50.7107 10.4056 50.6915 10.424 50.6768 10.4454C50.6622 10.4669 50.6524 10.491 50.648 10.5162C50.4582 11.5905 49.8631 12.1865 48.8626 12.3043C45.1583 12.7461 43.899 10.9285 44.7745 7.54591C44.7932 7.47379 44.8246 7.408 44.8664 7.3534C44.9082 7.29879 44.9593 7.25675 45.0159 7.23037C45.7361 6.898 45.4774 9.61166 45.5205 9.99031C45.6973 11.6732 46.866 11.3324 48.1338 11.3871C50.5747 11.4965 49.8416 9.01423 49.9149 7.47018C49.9176 7.40002 49.9355 7.33278 49.9671 7.27419C49.9986 7.21559 50.0428 7.16736 50.096 7.1336C50.7903 6.67922 50.6782 8.78704 50.8162 9.21618C50.8398 9.28839 50.8804 9.35166 50.9323 9.39699C50.9842 9.44231 51.0447 9.46738 51.1051 9.46862ZM59.7817 9.43075C58.649 9.09698 58.028 9.47703 57.9188 10.5709C57.9122 10.6362 57.9242 10.7017 57.9531 10.7597C57.9821 10.8178 58.027 10.8661 58.0826 10.8991C58.5369 11.1768 59.0328 11.3436 59.5704 11.3997C59.648 11.4078 59.7243 11.3955 59.7847 11.3653C59.8451 11.335 59.8855 11.2889 59.8982 11.2357L60.1914 10.0324C60.2204 9.91027 60.1942 9.78003 60.1181 9.66824C60.0419 9.55644 59.9216 9.47151 59.7817 9.43075Z" fill="white"/>
<path d="M33.6525 13.0878C33.0011 13.9438 32.1469 14.3321 31.0898 14.2527C31.0291 14.249 30.9688 14.2636 30.916 14.2949C30.8632 14.3262 30.8201 14.3728 30.7917 14.4292C30.4164 15.1764 29.8161 15.6162 28.9908 15.7486C28.9138 15.761 28.8408 15.7933 28.7783 15.8427C28.7157 15.8921 28.6655 15.9571 28.632 16.032C28.5985 16.1069 28.5827 16.1895 28.5861 16.2724C28.5895 16.3553 28.6119 16.436 28.6513 16.5076C29.529 18.0961 27.4134 19.7994 26.2666 20.3819C24.2711 21.4057 23.0374 18.8772 22.1763 17.5843C22.1398 17.5304 22.1204 17.4663 22.1211 17.4023C22.1219 17.3382 22.1428 17.278 22.1804 17.2313C23.1782 15.9781 24.3415 21.8646 26.7179 18.9257C26.8062 18.8169 26.9125 18.7301 27.0367 18.6654C29.6284 17.293 24.9832 13.6923 26.2542 13.6835C26.3938 13.6823 26.5316 13.7188 26.6546 13.7898C26.7777 13.8608 26.882 13.9639 26.958 14.0894C27.6701 15.2632 27.7902 15.3559 29.0653 14.8219C30.1776 14.3571 30.4039 13.4717 29.7443 12.1655C29.7111 12.0975 29.6914 12.0258 29.6871 11.9567C29.6828 11.8875 29.6939 11.8229 29.7195 11.7684C30.0258 11.1241 30.4067 11.7198 30.4771 12.1434C30.6979 13.4555 31.4762 13.6482 32.8121 12.7215C33.2206 12.4361 33.3392 12.0508 33.1681 11.5654C32.7044 10.2475 33.1115 9.37816 34.3894 8.95748C36.1448 8.37942 36.4305 10.0033 36.8114 11.2918C36.8678 11.481 36.862 11.6851 36.795 11.8704C36.728 12.0557 36.6038 12.2111 36.4429 12.3111C35.6563 12.8053 34.8379 13.0127 33.9878 12.9333C33.9253 12.928 33.8621 12.9393 33.8037 12.9662C33.7454 12.9931 33.6935 13.0348 33.6525 13.0878ZM33.8181 10.6475C33.7381 12.1037 34.4212 12.3861 35.8674 11.4948C35.9301 11.4569 35.9778 11.3961 36.0021 11.3233C36.0264 11.2505 36.0256 11.1704 35.9999 11.0976C35.4865 9.59732 34.8103 9.31932 33.9713 10.2636C33.8803 10.3665 33.826 10.5024 33.8181 10.6475Z" fill="white"/>
<path d="M67.1939 9.44684C67.5015 9.53658 67.5636 9.69082 67.3803 9.90957C67.3507 9.94601 67.3013 9.97571 67.2393 9.99437C67.1773 10.013 67.1059 10.0197 67.0355 10.0133C66.1596 9.92733 66.071 9.74785 66.7699 9.47489C66.837 9.4491 66.911 9.43301 66.9851 9.42811C67.0592 9.42321 67.131 9.42965 67.1939 9.44684Z" fill="white"/>
<path d="M68.0157 10.403C68.1604 11.0528 68.0336 11.3022 67.6352 11.1512C67.5968 11.136 67.5618 11.097 67.5356 11.04C67.5093 10.983 67.4932 10.9111 67.4897 10.8351C67.4573 10.1466 67.5731 9.89197 67.8369 10.0711C67.8757 10.0977 67.9115 10.1408 67.9423 10.1979C67.973 10.255 67.998 10.3248 68.0157 10.403Z" fill="white"/>
<path d="M52.6249 12.8934C52.5984 12.9196 52.5659 12.9391 52.5304 12.9503C52.4948 12.9615 52.457 12.9641 52.4202 12.958C52.3834 12.9518 52.3486 12.937 52.3186 12.9148C52.2887 12.8927 52.2644 12.8637 52.2478 12.8303C52.0775 12.4953 52.1797 12.344 52.5544 12.3763C52.5946 12.38 52.6325 12.393 52.6639 12.414C52.6952 12.435 52.7188 12.4631 52.732 12.4953C52.7872 12.6377 52.7515 12.7704 52.6249 12.8934Z" fill="white"/>
<path d="M53.6162 12.9285C53.7686 13.1649 54.0774 13.2371 54.3059 13.0899C54.5344 12.9426 54.5962 12.6315 54.4438 12.3951C54.2915 12.1587 53.9827 12.0864 53.7542 12.2337C53.5256 12.381 53.4639 12.692 53.6162 12.9285Z" fill="white"/>
<path d="M71.3999 18.2131C72.177 18.9435 72.8739 18.9149 73.4905 18.1273C74.381 16.9949 75.4134 15.9198 76.4028 14.8651C76.4475 14.8177 76.5053 14.7843 76.5679 14.7696C76.6305 14.7549 76.6946 14.7597 76.7512 14.7833C77.6503 15.1635 74.4326 18.1968 73.9637 18.6996C72.4194 20.3634 70.8019 18.8345 69.4081 17.9474C69.3526 17.9105 69.3087 17.8615 69.2813 17.8059C69.254 17.7503 69.2443 17.6903 69.2533 17.6326C69.3336 17.1148 69.6247 17.0535 70.1265 17.4487C70.1698 17.4832 70.2201 17.5089 70.2742 17.5242C70.3282 17.5395 70.385 17.544 70.4408 17.5375C70.4966 17.5309 70.5502 17.5135 70.5983 17.4863C70.6464 17.459 70.6879 17.4226 70.7202 17.3792L73.4131 13.7572C73.4563 13.7007 73.5082 13.6537 73.5653 13.6191C73.6224 13.5846 73.6834 13.5634 73.7443 13.5569C74.4799 13.4833 74.2132 14.0434 73.9766 14.3377C73.0589 15.4878 72.1885 16.672 71.3654 17.8902C71.3313 17.9396 71.3161 17.9987 71.3224 18.0575C71.3286 18.1163 71.356 18.1712 71.3999 18.2131Z" fill="white"/>
<path d="M23.6388 14.8269C23.6923 14.8496 23.7404 14.8847 23.7798 14.9295C23.8192 14.9743 23.8488 15.0277 23.8665 15.086C23.8842 15.1442 23.8895 15.2057 23.8821 15.2661C23.8747 15.3265 23.8547 15.3843 23.8236 15.4352C23.4634 16.0266 23.1191 16.0621 22.7906 15.5416C22.7458 15.471 22.718 15.3913 22.7096 15.3104C22.7013 15.2296 22.7129 15.1503 22.7432 15.0803C22.898 14.7221 23.1965 14.6376 23.6388 14.8269Z" fill="white"/>
<path d="M32.1502 16.3831C32.4212 16.5117 32.7346 16.4187 32.8502 16.1752C32.9658 15.9317 32.8398 15.63 32.5688 15.5013C32.2978 15.3726 31.9844 15.4657 31.8688 15.7092C31.7532 15.9527 31.8791 16.2544 32.1502 16.3831Z" fill="white"/>
<path d="M30.5344 16.9661C29.6884 16.2103 32.3839 16.4696 31.2723 17.0175C31.2211 17.0428 31.1589 17.0619 31.0904 17.0733C31.022 17.0846 30.9492 17.088 30.8777 17.083C30.8062 17.078 30.738 17.0649 30.6785 17.0446C30.6189 17.0243 30.5696 16.9975 30.5344 16.9661Z" fill="white"/>
<path d="M79.9929 20.1476C80.4059 20.3342 83.3918 21.3427 82.698 21.978C82.6515 22.0188 82.5919 22.0444 82.527 22.0515C82.4621 22.0586 82.395 22.0468 82.3345 22.0177L80.249 21.029C80.1878 20.9995 80.1207 20.9829 80.0525 20.9805C79.9843 20.978 79.9167 20.9897 79.8547 21.0148C79.7927 21.0399 79.7377 21.0777 79.6937 21.1254C79.6498 21.1732 79.618 21.2298 79.6006 21.2911C79.0637 23.1851 77.8372 26.5799 75.2767 23.5106C74.4755 22.5537 73.2076 21.6643 74.5581 20.3898C75.6704 19.3389 76.8653 18.2576 78.1428 17.1459C78.1832 17.1114 78.2343 17.0904 78.2886 17.0861C78.3429 17.0819 78.3974 17.0944 78.4442 17.122C79.1711 17.5588 78.5434 17.797 78.2295 18.075C77.1447 19.0385 76.1081 19.961 75.1197 20.8424C74.7067 21.213 74.7026 21.5862 75.1073 21.9621C75.8094 22.6133 76.5404 24.265 77.6059 23.7608C78.5062 23.3359 78.882 21.4062 79.1504 20.5168C79.1749 20.4361 79.2173 20.3614 79.2746 20.2978C79.332 20.2342 79.403 20.1832 79.4828 20.1482C79.5627 20.1131 79.6496 20.095 79.7376 20.0949C79.8256 20.0948 79.9127 20.1128 79.9929 20.1476Z" fill="white"/>
<path d="M17.6103 24.4781C17.716 24.546 17.8456 24.572 17.9728 24.5509C18.0999 24.5298 18.2151 24.4632 18.295 24.3646C18.8904 23.6265 20.6893 22.4789 19.6516 21.4854C19.0265 20.8853 16.9256 20.938 16.0112 20.8569C15.9205 20.8484 15.8326 20.8218 15.7535 20.7789C15.6744 20.7361 15.606 20.6779 15.5528 20.6083C15.4996 20.5388 15.4629 20.4594 15.4451 20.3757C15.4274 20.292 15.429 20.2057 15.4499 20.1229L16.1728 17.3045C16.1875 17.2441 16.2217 17.19 16.2701 17.1504C16.3185 17.1109 16.3784 17.0881 16.4408 17.0856C17.3764 17.0531 16.479 19.2591 16.3515 19.8755C16.3419 19.9218 16.3434 19.9696 16.3557 20.0153C16.3681 20.061 16.391 20.1035 16.4228 20.1397C16.4546 20.1758 16.4945 20.2047 16.5396 20.2243C16.5846 20.2438 16.6337 20.2535 16.6832 20.2526C18.9201 20.2243 22.7732 21.1205 19.9365 24.0321C18.7713 25.2283 18.1079 25.8488 16.5471 24.7944C16.2962 24.6282 11.5883 21.8747 12.9322 21.6355C12.9888 21.6265 13.0521 21.6308 13.1186 21.6482C13.185 21.6656 13.2532 21.6958 13.3192 21.7368L17.6103 24.4781Z" fill="white"/>
<path d="M15.4606 29.0409C15.9857 28.7238 16.1306 28.2595 15.8953 27.6478C15.8478 27.5275 15.7542 27.4197 15.6284 27.3405C14.2741 26.5128 12.8809 25.7511 11.4491 25.0552C11.0488 24.8616 10.6184 24.4786 11.2726 24.1882C11.3311 24.1621 11.3972 24.1511 11.4654 24.1563C11.5335 24.1614 11.6018 24.1824 11.6643 24.2177C13.7504 25.3961 15.0244 26.0892 15.4864 26.2968C17.8063 27.3321 16.5022 29.0956 15.9469 30.6865C15.8135 31.0737 15.3358 31.5324 15.0947 30.9432C15.0745 30.8955 15.0667 30.8359 15.0719 30.7683C15.0771 30.7008 15.0951 30.627 15.1248 30.5518C15.188 30.3975 15.2138 30.2404 15.2023 30.0804C15.197 30.0193 15.1726 29.9596 15.1317 29.9077C15.0908 29.8559 15.0349 29.8137 14.9699 29.7858L10.5754 27.9003C10.5104 27.8736 10.4541 27.833 10.4125 27.7826C10.3708 27.7323 10.3453 27.6741 10.3386 27.6141C10.2224 26.5535 13.9068 28.4853 15.0818 29.0451C15.1441 29.0749 15.2113 29.0901 15.2774 29.0894C15.3435 29.0886 15.4065 29.072 15.4606 29.0409Z" fill="white"/>
<path d="M81.4864 33.7444C81.4936 33.7112 81.4919 33.6769 81.4816 33.6444C81.4713 33.612 81.4526 33.5824 81.4273 33.5585C81.4019 33.5345 81.3706 33.5169 81.3363 33.5071C81.3019 33.4974 81.2656 33.4958 81.2304 33.5026C79.0221 33.9452 78.6837 32.8345 77.9027 31.3631C76.445 28.6252 79.2737 27.9695 81.1436 27.1374C81.2084 27.1092 81.2779 27.0969 81.344 27.1019C81.4101 27.107 81.47 27.1293 81.5168 27.1661C82.2847 27.7563 79.4299 28.7523 79.0264 28.9777C78.4248 29.3138 78.2542 29.7442 78.5145 30.2688L79.5688 32.3796C79.7944 32.8277 80.1848 32.9479 80.7402 32.7403C81.1827 32.5763 83.89 31.2074 84.0375 31.6541C84.0648 31.7375 84.0744 31.8252 84.0656 31.9122C84.0568 31.9991 84.0298 32.0835 83.9862 32.1605C83.9427 32.2375 83.8833 32.3056 83.8117 32.3608C83.74 32.416 83.6575 32.4572 83.5689 32.482C82.49 32.7853 82.0707 33.2608 82.3107 33.9084C82.3599 34.0422 82.3816 34.1734 82.3758 34.3018C82.3382 34.8428 82.5436 35.2459 82.9919 35.5109C83.1018 35.5747 83.2433 35.6034 83.3954 35.5929C83.7468 35.5642 85.4996 35.2732 85.2826 35.929C85.2604 35.9943 85.2202 36.0523 85.1665 36.0965C85.1129 36.1407 85.0479 36.1692 84.9789 36.179L83.8075 36.347C83.7177 36.3599 83.6364 36.3779 83.569 36.3998C83.5017 36.4217 83.4499 36.4471 83.4171 36.4741C83.1047 36.7309 83.0526 37.0424 83.2609 37.4086C83.3332 37.537 83.378 37.6613 83.3954 37.7816C83.6774 39.6956 86.3022 37.7898 86.8445 40.1424C87.3001 42.1179 85.7686 42.0482 84.3802 42.3638C83.6427 42.5332 83.2363 42.3105 83.1611 41.6957L82.9485 39.9661C82.9453 39.9402 82.9604 39.8934 82.992 39.8316C83.0236 39.7697 83.0703 39.6954 83.1264 39.6177C83.2478 39.4538 83.1943 39.2448 82.9658 38.9906C82.3498 38.3021 82.1459 37.4209 82.3541 36.347C82.366 36.2868 82.361 36.2244 82.3398 36.1656C82.3185 36.1069 82.2817 36.0536 82.2326 36.011C81.5413 35.3934 81.2926 34.6379 81.4864 33.7444ZM83.89 39.9005C83.5458 41.4444 84.1025 41.9321 85.5603 41.3637C85.6891 41.3145 85.7988 41.2292 85.8748 41.1193C85.9508 41.0094 85.9894 40.8802 85.9855 40.749C85.9508 39.7598 85.3607 39.3746 84.2153 39.5931C84.1362 39.6089 84.0635 39.6462 84.0058 39.7008C83.9481 39.7553 83.9079 39.8246 83.89 39.9005Z" fill="white"/>
<path d="M83.7197 29.3636C83.1396 29.5766 82.8338 29.4266 82.8021 28.9134C82.7964 28.8371 82.8098 28.7597 82.8413 28.6881C82.8728 28.6164 82.9213 28.5525 82.9827 28.5019C83.4487 28.1114 83.7752 28.2341 83.9622 28.8699C83.9914 28.9681 83.9825 29.074 83.9374 29.1659C83.8923 29.2577 83.8144 29.3284 83.7197 29.3636Z" fill="white"/>
<path d="M8.72464 33.068C10.2184 34.1647 7.31158 34.796 8.12801 33.2392C8.18832 33.1225 8.28492 33.0389 8.39671 33.0068C8.50851 32.9748 8.6264 32.9967 8.72464 33.068Z" fill="white"/>
<path d="M11.1559 38.8172C11.3183 38.8509 11.4894 38.8154 11.6318 38.7184C11.7743 38.6215 11.8766 38.4709 11.9164 38.2995L12.3751 36.2495C12.4969 35.7169 12.3072 35.3922 11.8059 35.2754C11.3726 35.1776 9.51191 34.9126 10.1874 34.2728C10.234 34.2291 10.2926 34.1979 10.3573 34.1822C10.422 34.1665 10.4908 34.1668 10.5569 34.1831C11.6487 34.4439 12.8977 34.5988 13.246 35.8256C13.4074 36.384 13.0081 37.2847 12.8977 38.0102C12.7221 39.1704 11.9928 39.6404 10.7099 39.4204C9.77954 39.2573 6.52547 38.9435 5.91799 38.434C5.3629 37.964 5.59655 37.8118 6.61893 37.9776C8.15392 38.2248 9.66626 38.5047 11.1559 38.8172Z" fill="white"/>
<path d="M7.87497 35.6899C8.11509 35.8618 8.44469 35.8127 8.61115 35.5802C8.7776 35.3477 8.71788 35.0198 8.47776 34.8479C8.23763 34.676 7.90803 34.7251 7.74157 34.9576C7.57512 35.1901 7.63484 35.518 7.87497 35.6899Z" fill="white"/>
<path d="M80.1072 37.0636C78.3052 37.521 79.8748 34.8017 80.4221 36.5057C80.441 36.5624 80.4477 36.6223 80.4419 36.6816C80.4361 36.741 80.4179 36.7986 80.3884 36.8508C80.3589 36.9031 80.3187 36.9489 80.2704 36.9855C80.222 37.0221 80.1665 37.0487 80.1072 37.0636Z" fill="white"/>
<path d="M80.521 38.2464C80.4302 38.2981 80.3248 38.3088 80.227 38.2762C80.1293 38.2436 80.0467 38.1703 79.9967 38.0717C79.7184 37.5064 79.8514 37.1894 80.3957 37.1209C80.4721 37.1111 80.5484 37.1175 80.6202 37.1395C80.6919 37.1616 80.7576 37.199 80.8133 37.2494C81.1844 37.5817 81.087 37.9141 80.521 38.2464Z" fill="white"/>
<path d="M10.7984 46.7917C11.0275 46.1173 11.0275 45.4402 10.7984 44.7603C10.755 44.6306 10.6592 44.5223 10.5316 44.4589C10.007 44.1947 9.39652 44.174 8.94884 43.8974C7.75199 43.157 7.66457 42.217 8.68656 41.0775C8.77781 40.9781 8.90421 40.9059 9.04832 40.8711C11.9123 40.1802 12.8484 41.1188 11.8565 43.6869C11.7826 43.877 11.727 44.0559 11.6966 44.2024C11.6661 44.3488 11.662 44.4565 11.6847 44.5126C12.0434 45.3714 12.0404 46.2907 11.6757 47.2706C11.6292 47.4008 11.6373 47.5408 11.6983 47.6628C12.0841 48.4198 12.1746 49.1244 11.9696 49.7767C11.9457 49.8523 11.9437 49.9322 11.9638 50.0086C11.9839 50.085 12.0253 50.1554 12.0841 50.2128C12.1429 50.2702 12.217 50.3127 12.2992 50.3362C12.3814 50.3596 12.4688 50.3632 12.5529 50.3465C14.4567 49.9873 15.0808 53.183 15.0491 54.1367C14.9903 56.0359 12.4173 56.2465 10.5542 56.552C10.4821 56.5643 10.4091 56.5587 10.3446 56.5359C10.28 56.5131 10.227 56.4741 10.1924 56.424C9.6588 55.6561 12.874 55.3423 13.3805 55.1152C13.9322 54.8675 14.1492 54.4753 14.0317 53.9385L13.5794 51.8576C13.4558 51.2961 13.0775 51.058 12.4444 51.1434C11.4315 51.281 10.4276 51.4695 9.4327 51.709C8.98652 51.8163 8.78303 51.6691 8.82222 51.2672C8.82926 51.2079 8.85677 51.1509 8.90158 51.1027C8.94639 51.0545 9.00667 51.017 9.07546 50.9947C9.78542 50.78 11.4224 50.8172 11.0561 49.6859C11.0149 49.5566 11.0165 49.4214 11.0606 49.2978C11.8068 47.188 7.47916 47.9849 8.64586 47.0394C8.68699 47.0069 8.74456 46.9817 8.81473 46.9653C8.8849 46.9489 8.96607 46.9418 9.05285 46.9444L10.4999 47.0064C10.5636 47.0085 10.6273 46.9886 10.6812 46.9498C10.7351 46.911 10.7763 46.8555 10.7984 46.7917ZM10.7351 41.5771C9.61057 41.2137 9.05134 41.5977 9.05737 42.729C9.05861 42.8443 9.09311 42.9574 9.15742 43.0567C9.22172 43.156 9.31355 43.238 9.42366 43.2946C10.5904 43.8919 11.1858 43.5258 11.2099 42.1964C11.2123 42.0616 11.1677 41.9294 11.0825 41.8183C10.9974 41.7072 10.8758 41.6228 10.7351 41.5771Z" fill="white"/>
<path d="M84.5012 45.5072C84.4533 45.7938 84.4237 46.0849 84.4124 46.3804C84.3108 49.0575 84.4166 48.3395 86.6548 48.6409C86.7202 48.6502 86.7809 48.6792 86.828 48.7238C86.8751 48.7684 86.9063 48.8263 86.9171 48.8891C87.0737 49.842 86.164 49.3678 85.6563 49.3899C84.1783 49.4579 83.4252 48.8049 83.397 47.4308C83.3631 45.8839 83.4012 44.439 85.1993 44.3459C86.7958 44.2661 88.3909 44.2129 89.9846 44.1864C90.0547 44.1851 90.1226 44.2003 90.1818 44.2305C90.2411 44.2608 90.2897 44.3051 90.3231 44.3592C90.6305 44.8468 90.4218 45.0817 89.6969 45.064C88.044 45.0285 86.3953 45.0965 84.7509 45.2678C84.6892 45.2744 84.6313 45.3014 84.5863 45.3446C84.5412 45.3879 84.5113 45.445 84.5012 45.5072Z" fill="white"/>
<path d="M13.8103 46.708C13.9591 47.0843 13.8317 47.2101 13.4282 47.0852C13.3907 47.0735 13.3574 47.0513 13.3324 47.0213C13.3073 46.9912 13.2916 46.9547 13.2871 46.9161C13.2529 46.623 13.3683 46.5025 13.6333 46.5545C13.6721 46.5625 13.7085 46.5808 13.7394 46.6075C13.7703 46.6343 13.7946 46.6688 13.8103 46.708Z" fill="white"/>
<path d="M88.9548 47.7099C88.3264 47.7582 88.0467 47.6485 88.1157 47.3808C88.1269 47.3402 88.1602 47.3014 88.2121 47.2685C88.2641 47.2357 88.3327 47.2099 88.4109 47.194C89.1637 47.0397 89.4295 47.1726 89.2085 47.5928C89.1912 47.6236 89.1581 47.651 89.1131 47.6718C89.0681 47.6925 89.0131 47.7058 88.9548 47.7099Z" fill="white"/>
<path d="M13.5316 47.908C14.2769 47.5177 14.5733 47.739 14.4206 48.572C14.4046 48.6506 14.3654 48.7223 14.3083 48.7775C14.2511 48.8327 14.1789 48.8686 14.1012 48.8804C13.5688 48.9641 13.2956 48.7724 13.2814 48.3054C13.2795 48.2269 13.3019 48.1482 13.346 48.0781C13.3902 48.008 13.4544 47.9491 13.5316 47.908Z" fill="white"/>
<path d="M88.5656 49.4386C88.1484 49.2173 88.0149 48.9374 88.1651 48.5988C88.194 48.5311 88.2431 48.471 88.3079 48.4244C88.3727 48.3778 88.451 48.3461 88.5355 48.3323C89.2097 48.225 89.4283 48.51 89.1913 49.1872C89.1705 49.2479 89.1368 49.3034 89.0927 49.3498C89.0486 49.3963 88.995 49.4327 88.9357 49.4566C88.8763 49.4804 88.8125 49.4912 88.7487 49.4881C88.6848 49.485 88.6224 49.4681 88.5656 49.4386Z" fill="white"/>
<path d="M83.0638 55.2275C82.7342 56.1802 83.0007 56.7549 83.8633 56.9514C85.3909 57.3008 86.9084 57.683 88.4158 58.0979C88.4805 58.1165 88.5383 58.1503 88.583 58.1958C88.6278 58.2413 88.6577 58.2967 88.6695 58.3559C88.7698 58.8582 88.529 59.022 87.9472 58.8473C86.5258 58.416 85.0942 58.0174 83.6527 57.6516C81.5119 57.1111 82.3544 55.076 82.4748 53.6019C82.4887 53.4557 82.5416 53.3275 82.6253 53.2374C82.9319 52.9126 83.1497 52.9576 83.2787 53.3725C83.3066 53.4706 83.3005 53.6103 83.2615 53.7697C83.0466 54.5764 84.0138 54.3799 84.4265 54.4577C84.8435 54.5355 89.267 54.8999 88.5362 55.682C88.4928 55.7274 88.4359 55.7613 88.3705 55.7806C88.3051 55.7999 88.2335 55.804 88.1622 55.7926L83.3518 55.0678C83.2911 55.0576 83.2287 55.068 83.1758 55.0973C83.123 55.1266 83.0832 55.1728 83.0638 55.2275Z" fill="white"/>
<path d="M9.50106 54.9954C9.03487 55.575 8.73929 55.4995 8.6143 54.7688C8.46904 53.9034 8.68355 53.5238 9.25783 53.6299C9.34132 53.6452 9.41991 53.6812 9.48755 53.7354C9.55519 53.7895 9.61009 53.8603 9.648 53.9422C9.82029 54.3096 9.7713 54.6606 9.50106 54.9954Z" fill="white"/>
<path d="M80.9534 63.5417C81.0544 63.6644 81.1905 63.759 81.3479 63.8159C81.5054 63.8728 81.6787 63.89 81.8505 63.8659L84.7179 63.4705C84.8073 63.4581 84.8985 63.465 84.9852 63.4909C85.0719 63.5168 85.1522 63.5611 85.2205 63.6207C85.2889 63.6803 85.3438 63.7539 85.3814 63.8364C85.4191 63.9189 85.4386 64.0085 85.4388 64.0991V66.7322C85.4389 66.8031 85.4255 66.8706 85.3999 66.929C85.3742 66.9875 85.337 67.0352 85.2913 67.0682C85.1166 67.1947 84.9418 67.1947 84.767 67.0682C84.7253 67.0379 84.6908 66.992 84.6666 66.9342C84.6424 66.8764 84.6291 66.8085 84.6277 66.7361L84.5622 64.4352C84.5618 64.409 84.5556 64.3832 84.5442 64.3594C84.5327 64.3355 84.5161 64.3141 84.4954 64.2964C84.4748 64.2786 84.4504 64.265 84.4239 64.2562C84.3973 64.2475 84.3692 64.2438 84.341 64.2454C82.9032 64.3245 80.5602 65.1942 79.9334 63.2531C79.4992 61.9128 80.9288 58.8331 82.9729 59.6356C84.3683 60.1812 85.7679 60.7189 87.1715 61.2486C87.3058 61.2996 87.4099 61.3859 87.4624 61.4898C88.0973 62.7707 82.7189 60.3433 82.469 60.2444C82.3187 60.1841 82.1501 60.1826 81.9993 60.2403C81.8485 60.2979 81.7274 60.4101 81.6621 60.5528C81.2524 61.4384 80.2325 62.66 80.9534 63.5417Z" fill="white"/>
<path d="M10.4442 62.9825C10.4915 63.0243 10.5493 63.0549 10.6125 63.0714C10.6756 63.0879 10.7423 63.09 10.8065 63.0773C10.8707 63.0647 10.9306 63.0377 10.9808 62.9989C11.031 62.96 11.0701 62.9104 11.0947 62.8544C11.969 60.9293 14.2752 58.3521 15.9901 61.7482C16.1985 62.1648 16.428 62.5698 16.6786 62.9631C17.6966 64.5816 12.8349 66.4524 11.5973 67.12C11.5403 67.1506 11.476 67.1655 11.4132 67.1627C11.3504 67.1599 11.2923 67.1396 11.2467 67.1044C10.8074 66.781 10.8947 66.4783 11.5086 66.1962C12.9391 65.5416 14.2612 64.883 15.4748 64.2206C15.9535 63.9593 16.045 63.6113 15.7494 63.1765C15.2974 62.5012 14.9722 61.4532 14.4062 61.0729C13.063 60.1646 11.9268 62.8039 11.4621 63.522C11.1327 64.0291 10.73 64.099 10.2541 63.7316L8.10839 62.082C8.05757 62.0422 8.01956 61.9913 7.99866 61.935C7.97776 61.8788 7.9748 61.8195 7.99013 61.7637C8.20132 60.9293 10.2161 62.7845 10.4442 62.9825Z" fill="white"/>
<path d="M73.8117 71.2746C73.8456 71.2622 73.8759 71.2412 73.8996 71.2134C73.9232 71.1856 73.9394 71.152 73.9465 71.1159C73.9537 71.0799 73.9516 71.0425 73.9404 71.0075C73.9292 70.9725 73.9094 70.9411 73.8827 70.9163C72.3066 69.4148 73.9078 67.828 75.0826 66.5397C76.4372 65.051 78.3646 66.8895 79.7359 68.1564C79.7894 68.2063 79.828 68.2677 79.8455 68.3304C79.8629 68.3931 79.8582 68.4536 79.8321 68.5019C79.6648 68.8034 79.1617 68.6228 78.3228 67.9602C78.0078 67.7099 77.7026 67.4483 77.4072 67.1753C76.7355 66.5468 76.0874 66.6592 75.4631 67.5123C75.2345 67.8251 74.9865 68.1209 74.7189 68.3995C73.2055 69.9864 75.3544 71.1637 76.5836 72.1149C76.6408 72.1588 76.6876 72.2124 76.7202 72.2716C76.7528 72.3308 76.7704 72.3939 76.7717 72.4561C76.8051 73.6377 75.0701 71.5518 74.2966 71.9741C72.8919 72.7377 72.3484 73.2496 73.5357 74.8833C73.6121 74.9872 73.6557 75.1125 73.661 75.2426C73.6662 75.3728 73.6327 75.5018 73.565 75.6127C73.3253 76.0051 72.956 75.6653 72.4571 74.5932C72.4209 74.5144 72.3692 74.4441 72.3051 74.3866C72.241 74.3292 72.1659 74.2859 72.0847 74.2595C72.0034 74.233 71.9177 74.224 71.8328 74.233C71.748 74.242 71.6659 74.2688 71.5916 74.3117C69.1041 75.762 70.9603 76.3549 70.7179 77.9503C70.5214 79.2385 68.8532 80.0959 67.8373 79.102C66.243 77.5436 66.6708 76.298 69.1208 75.3653C69.3718 75.2691 69.5809 75.0845 69.7103 74.8449C70.1367 74.0458 70.8126 73.5624 71.738 73.3946C71.8004 73.3828 71.8585 73.3548 71.9062 73.3136C71.954 73.2724 71.9897 73.2194 72.0097 73.16C72.3275 72.2272 72.9281 71.5988 73.8117 71.2746ZM68.0338 78.2446C69.0204 79.5499 70.5882 77.9247 69.5598 76.6066C69.4927 76.5205 69.4005 76.4579 69.2958 76.4274C69.191 76.3969 69.0788 76.3999 68.9744 76.436C67.7564 76.8597 67.4429 77.4626 68.0338 78.2446Z" fill="white"/>
<path d="M17.0001 67.3395C15.6529 68.0923 14.372 68.9295 13.1576 69.8511C12.4501 70.3885 11.5435 70.0458 12.5603 69.341C13.1138 68.9542 14.3099 68.1481 16.1485 66.9228C17.8601 65.7819 19.2327 67.7172 20.241 68.7258C20.2895 68.7741 20.3242 68.8304 20.3414 68.8887C20.3586 68.947 20.3575 69.0051 20.3384 69.0567C20.2678 69.2488 20.1308 69.3384 19.9275 69.3254C19.9041 69.3236 19.8592 69.304 19.7987 69.2692C19.7383 69.2345 19.665 69.1862 19.5885 69.1307L19.1988 68.8543C19.155 68.8222 19.0957 68.8089 19.0314 68.8167C18.9671 68.8245 18.9018 68.853 18.8472 68.8971L15.3224 71.7319C15.2059 71.8265 15.0735 71.8783 14.9539 71.876C14.6771 71.863 14.557 71.7267 14.5938 71.4671C14.6006 71.4153 14.6224 71.3611 14.658 71.3076C14.6937 71.2541 14.7424 71.2025 14.8013 71.1556L18.3261 68.3208C18.37 68.2851 18.3975 68.2352 18.403 68.1811C18.4085 68.127 18.3916 68.0726 18.3557 68.0287C18.0959 67.7146 17.7697 67.4758 17.3771 67.3122C17.3185 67.2883 17.2535 67.2782 17.1878 67.283C17.1222 67.2877 17.0577 67.3071 17.0001 67.3395Z" fill="white"/>
<path d="M77.7686 71.6862C77.3209 71.0425 77.4328 70.7131 78.1043 70.6981C78.1805 70.6964 78.2554 70.7153 78.3228 70.7534C78.3902 70.7915 78.4483 70.8476 78.4921 70.9171C78.8231 71.456 78.7128 71.7742 78.1611 71.8715C78.0903 71.8835 78.0173 71.8729 77.9486 71.8405C77.88 71.8081 77.8181 71.755 77.7686 71.6862Z" fill="white"/>
<path d="M70.8054 71.8475C70.7299 71.8301 70.6597 71.795 70.6006 71.7451C70.5416 71.6952 70.4954 71.6319 70.466 71.5605C70.4366 71.4892 70.4248 71.4118 70.4316 71.335C70.4383 71.2581 70.4635 71.184 70.505 71.1189C70.8668 70.5528 71.2091 70.5576 71.5321 71.1334C71.5751 71.2071 71.6007 71.2869 71.6067 71.3654C71.6126 71.4438 71.5986 71.5184 71.566 71.5821C71.4368 71.8394 71.1833 71.9279 70.8054 71.8475Z" fill="white"/>
<path d="M69.1635 72.1853C69.2398 72.4803 69.5058 72.6666 69.7577 72.6015C70.0096 72.5363 70.1519 72.2444 70.0756 71.9494C69.9993 71.6544 69.7333 71.4681 69.4814 71.5332C69.2296 71.5984 69.0872 71.8903 69.1635 72.1853Z" fill="white"/>
<path d="M24.7126 73.129C25.8598 74.232 26.9066 75.1268 25.7217 76.7569C25.5751 76.9562 22.2591 82.13 22.2758 80.336C22.2758 80.207 22.3245 80.0681 22.414 79.9418L25.2527 75.9463C25.3461 75.8153 25.3941 75.6564 25.3871 75.5018C25.3802 75.3472 25.3186 75.2084 25.2151 75.1135L23.3309 73.3815C23.2799 73.3345 23.2105 73.3118 23.1354 73.3175C23.0602 73.3232 22.9841 73.3569 22.9206 73.4125C22.6401 73.6606 21.0951 75.8311 20.9444 74.5775C20.9366 74.5125 20.9441 74.4445 20.9666 74.3786C20.9891 74.3126 21.0258 74.2504 21.0742 74.1965C22.2549 72.8632 23.2095 71.6805 24.7126 73.129Z" fill="white"/>
<path d="M20.1014 76.5284C20.0822 76.5432 20.0568 76.556 20.0267 76.566C19.9965 76.5761 19.9623 76.5831 19.9261 76.5867C19.8899 76.5902 19.8523 76.5903 19.8158 76.5869C19.7792 76.5834 19.7444 76.5766 19.7134 76.5667C17.9196 75.9945 21.2552 75.6642 20.1014 76.5284Z" fill="white"/>
<path d="M33.9422 79.5063C35.0205 79.4752 35.9564 79.8333 36.75 80.5804C36.8966 80.7186 36.9901 80.6904 37.0303 80.4959C37.4832 78.2206 41.2873 79.0157 42.3656 80.2844C43.2929 81.3713 42.2836 85.3804 41.6065 84.7757C41.5596 84.7339 41.5235 84.6789 41.5011 84.615C41.4786 84.5511 41.4704 84.4801 41.4771 84.4078C41.5547 83.4689 42.1197 82.1579 41.9774 81.4305C41.7574 80.2929 39.9158 80.1195 38.8375 80.0053C38.2279 79.9404 37.8484 80.221 37.6989 80.8469L37.0778 83.4435C37.0619 83.5082 37.0294 83.5679 36.9834 83.6167C36.9373 83.6656 36.8792 83.7021 36.8147 83.7226C35.7796 84.0525 37.1166 81.8069 36.0815 81.1387C34.4167 80.0687 34.0328 80.1618 33.0192 81.8745C32.9864 81.9298 32.9383 81.9739 32.8818 82.0005C32.8252 82.027 32.7631 82.0348 32.7044 82.0226C31.0654 81.68 35.1887 79.7219 31.2164 79.2398C31.058 79.2197 30.8972 79.2459 30.7544 79.3152C30.6115 79.3844 30.4931 79.4936 30.4142 79.6289C29.2065 81.6885 25.9157 80.3521 27.0759 77.8654C27.8954 76.1174 29.1231 76.1653 30.7592 78.0092C30.8273 78.0866 30.911 78.1498 31.0051 78.1949C31.0993 78.2399 31.2019 78.266 31.307 78.2714C32.4456 78.3362 33.2162 78.6886 33.6187 79.3286C33.654 79.3851 33.7026 79.4314 33.7595 79.4626C33.8164 79.4939 33.8795 79.5089 33.9422 79.5063ZM29.7845 78.2967C28.7551 77.3043 28.0449 77.4115 27.6538 78.6182C27.6069 78.7623 27.6061 78.9173 27.6516 79.0624C27.697 79.2075 27.7866 79.3357 27.9083 79.4301C28.699 80.0419 29.356 79.8573 29.8794 78.8761C29.9293 78.7824 29.9471 78.6754 29.93 78.571C29.9129 78.4666 29.8619 78.3704 29.7845 78.2967Z" fill="white"/>
<path d="M21.4469 76.9246C21.4956 76.974 21.5248 77.0378 21.5293 77.105C21.5337 77.1721 21.5132 77.2382 21.4712 77.2916C20.9645 77.9294 20.6007 77.9263 20.3798 77.2823C20.3554 77.2094 20.3466 77.1339 20.3542 77.061C20.3618 76.988 20.3855 76.9193 20.4236 76.8596C20.6738 76.4788 21.0148 76.5004 21.4469 76.9246Z" fill="white"/>
<path d="M33.8303 76.6978C33.8607 76.7148 33.8836 76.7428 33.8946 76.7762C33.9055 76.8097 33.9037 76.8461 33.8895 76.8782C33.7547 77.1923 33.5912 77.26 33.399 77.0812C33.3703 77.0536 33.3478 77.0199 33.3329 76.9823C33.318 76.9447 33.3112 76.9041 33.3127 76.8632C33.3259 76.5658 33.4984 76.5106 33.8303 76.6978Z" fill="white"/>
<path d="M34.7189 76.774C35.2089 76.4303 35.5211 76.5664 35.6555 77.1824C35.676 77.2805 35.6755 77.3849 35.6539 77.488C35.6324 77.591 35.5904 77.6902 35.531 77.7783C34.9066 78.6845 34.5609 78.526 34.4937 77.303C34.4867 77.196 34.504 77.0902 34.5437 76.9969C34.5834 76.9037 34.644 76.8266 34.7189 76.774Z" fill="white"/>
<path d="M61.7601 79.9445C61.7403 80.6152 62.7361 82.3584 61.9783 82.4439C61.9199 82.4503 61.8607 82.437 61.8084 82.4058C61.7561 82.3746 61.713 82.3268 61.6847 82.2687C60.4152 79.5941 60.8793 78.8037 63.4303 77.8894C64.2661 77.5874 64.885 77.8481 65.2871 78.6712L67.4135 83.0292C67.4474 83.0995 67.4697 83.1717 67.4793 83.2414C67.4888 83.3112 67.4854 83.3771 67.4691 83.4351C67.0882 84.8023 64.8744 79.483 64.7197 79.154C64.6278 78.9595 64.4758 78.8078 64.2954 78.7306C64.115 78.6533 63.9202 78.6566 63.7517 78.7396L61.9466 79.624C61.8929 79.6512 61.8471 79.6955 61.8142 79.752C61.7814 79.8085 61.7626 79.8751 61.7601 79.9445Z" fill="white"/>
<path d="M54.8617 82.0466C54.3463 82.077 53.9329 82.2952 53.6215 82.7014C53.5833 82.7523 53.5561 82.8121 53.5416 82.8771C53.527 82.942 53.5254 83.0106 53.5369 83.0785L54.3503 87.8282C54.3613 87.8945 54.3579 87.9611 54.3403 88.0218C54.3227 88.0826 54.2916 88.1357 54.2496 88.1763C53.8738 88.5438 53.6309 88.3946 53.5208 87.7287C53.2926 86.3527 53.051 84.9795 52.796 83.609C52.4094 81.5368 54.7771 81.1306 56.2026 80.7245C56.2634 80.7077 56.3268 80.71 56.3829 80.731C56.439 80.752 56.4846 80.7905 56.5127 80.8405C56.7328 81.2356 56.5355 81.5036 55.9207 81.6445C55.88 81.6535 55.8415 81.6711 55.8078 81.6963C55.7741 81.7215 55.746 81.7537 55.7251 81.7908C55.7042 81.8279 55.6911 81.8691 55.6867 81.9117C55.6822 81.9544 55.6865 81.9975 55.6993 82.0383C55.7999 82.3533 57.6643 87.5505 56.4925 86.9661C56.4396 86.9402 56.392 86.8996 56.353 86.8473C56.314 86.795 56.2847 86.7323 56.267 86.6636L55.1114 82.2414C55.0955 82.1825 55.062 82.131 55.0165 82.0955C54.971 82.06 54.9163 82.0427 54.8617 82.0466Z" fill="white"/>
<path d="M47.2266 86.6981C46.4377 85.5633 45.1852 84.1381 45.5953 82.7307C45.9073 81.6764 46.8596 81.2058 48.4523 81.3189C49.1031 81.3666 49.736 81.4947 50.3511 81.7032C51.6035 82.1321 51.501 87.0555 51.5768 88.3377C51.5809 88.4147 51.5695 88.4891 51.5438 88.5538C51.5181 88.6186 51.4789 88.6718 51.4297 88.7085C50.9885 89.0391 50.7344 88.5566 50.7166 88.1635C50.6452 86.43 50.5279 84.698 50.3644 82.9675C50.3502 82.8177 50.281 82.6783 50.17 82.5761C50.059 82.4739 49.914 82.416 49.7627 82.4135C48.8223 82.4001 47.4227 81.9668 46.6873 82.5163C45.4705 83.4232 47.4049 85.5767 48.0289 86.4434C48.4419 87.0093 48.3394 87.4337 47.7214 87.7167L45.1095 88.9185C45.0421 88.9489 44.9697 88.9635 44.8984 88.9612C44.8271 88.9589 44.7588 88.9396 44.6994 88.9051C43.7188 88.3198 46.8032 87.2297 47.1687 87.0019C47.1927 86.987 47.2133 86.9672 47.2292 86.9437C47.2452 86.9201 47.2562 86.8934 47.2616 86.865C47.2671 86.8367 47.2667 86.8072 47.2607 86.7785C47.2547 86.7499 47.2431 86.7225 47.2266 86.6981Z" fill="white"/>
<path d="M64.3227 84.0716C64.2806 84.1269 64.2257 84.1717 64.1626 84.2024C64.0995 84.2331 64.0298 84.2488 63.9594 84.2484C63.8889 84.2479 63.8195 84.2312 63.7568 84.1996C63.6941 84.1681 63.6399 84.1226 63.5985 84.0667C62.5597 82.6743 65.3016 82.8014 64.3227 84.0716Z" fill="white"/>
<path d="M63.3374 84.4543C63.3226 84.5258 63.2932 84.5927 63.2515 84.6503C63.2098 84.7079 63.1568 84.7545 63.0963 84.7869C63.0359 84.8193 62.9695 84.8366 62.9021 84.8374C62.8347 84.8383 62.768 84.8228 62.7069 84.792C62.0889 84.4781 62.0183 84.1387 62.4951 83.7737C62.5598 83.7225 62.6326 83.6872 62.7083 83.6704C62.784 83.6536 62.8607 83.6557 62.9327 83.6765C63.2872 83.7822 63.4221 84.0415 63.3374 84.4543Z" fill="white"/>
<path d="M38.7545 84.2563C38.8292 84.2639 38.9013 84.2885 38.9654 84.3284C39.0296 84.3683 39.0841 84.4225 39.125 84.4868C39.1658 84.5511 39.192 84.624 39.2016 84.7001C39.2111 84.7762 39.2038 84.8534 39.1802 84.9262C39.0132 85.4138 38.7227 85.545 38.3087 85.32C38.2373 85.2821 38.1756 85.2271 38.1286 85.1596C38.0816 85.0921 38.0507 85.0139 38.0383 84.9313C37.9715 84.4267 38.2102 84.2017 38.7545 84.2563Z" fill="white"/>
<path d="M46.4591 30.9271C46.7585 30.0057 48.0619 30.0057 48.3612 30.9271L51.3392 40.0922C51.473 40.5042 51.857 40.7832 52.2902 40.7832H61.927C62.8957 40.7832 63.2985 42.0228 62.5148 42.5922L54.7185 48.2566C54.368 48.5112 54.2213 48.9626 54.3552 49.3746L57.3331 58.5398C57.6325 59.4611 56.578 60.2272 55.7943 59.6578L47.9979 53.9934C47.6475 53.7388 47.1729 53.7388 46.8224 53.9934L39.026 59.6578C38.2423 60.2272 37.1878 59.4611 37.4872 58.5398L40.4651 49.3746C40.599 48.9626 40.4523 48.5112 40.1019 48.2566L32.3055 42.5922C31.5218 42.0228 31.9246 40.7832 32.8933 40.7832H42.5301C42.9633 40.7832 43.3473 40.5042 43.4812 40.0922L46.4591 30.9271Z" fill="white"/>
</svg>
