<svg width="78" height="164" viewBox="0 0 78 164" fill="none" xmlns="http://www.w3.org/2000/svg">
<g opacity="0.15">
<circle cx="7.38462" cy="7.38462" r="7.38462" transform="matrix(-1 0 0 1 78 0)" fill="#D9D9D9"/>
<circle cx="7.38462" cy="7.38462" r="7.38462" transform="matrix(-1 0 0 1 78 49.6246)" fill="#D9D9D9"/>
<circle cx="7.38462" cy="7.38462" r="7.38462" transform="matrix(-1 0 0 1 78 99.2493)" fill="#D9D9D9"/>
<circle cx="7.38462" cy="7.38462" r="7.38462" transform="matrix(-1 0 0 1 78 148.874)" fill="#D9D9D9"/>
<circle cx="7.38462" cy="7.38462" r="7.38462" transform="matrix(-1 0 0 1 33.6914 0)" fill="#D9D9D9"/>
<circle cx="7.38462" cy="7.38462" r="7.38462" transform="matrix(-1 0 0 1 33.6914 49.6245)" fill="#D9D9D9"/>
<circle cx="7.38462" cy="7.38462" r="7.38462" transform="matrix(-1 0 0 1 33.6914 99.2493)" fill="#D9D9D9"/>
<circle cx="7.38462" cy="7.38462" r="7.38462" transform="matrix(-1 0 0 1 33.6914 148.874)" fill="#D9D9D9"/>
</g>
</svg>
