<svg width="35" height="35" viewBox="0 0 35 35" fill="none" xmlns="http://www.w3.org/2000/svg">
<path d="M8.01953 20.4167C8.86001 20.4166 9.67473 20.7068 10.3258 21.2383C10.9769 21.7698 11.4244 22.5099 11.5924 23.3334H21.8737V8.75008H5.83203C5.05848 8.75008 4.31662 9.05737 3.76964 9.60435C3.22266 10.1513 2.91536 10.8932 2.91536 11.6667V23.3334H4.44661C4.61471 22.5099 5.06216 21.7698 5.71325 21.2383C6.36433 20.7068 7.17906 20.4166 8.01953 20.4167ZM8.01953 27.7084C7.17906 27.7086 6.36433 27.4184 5.71325 26.8869C5.06216 26.3554 4.61471 25.6152 4.44661 24.7917H1.45703V11.6667C1.45703 10.5064 1.91797 9.39363 2.73844 8.57316C3.55891 7.75268 4.67171 7.29175 5.83203 7.29175H21.8737C22.2605 7.29175 22.6314 7.44539 22.9049 7.71888C23.1784 7.99237 23.332 8.36331 23.332 8.75008V11.6667H27.707L32.082 17.5001V24.7917H29.0924C28.9251 25.6159 28.478 26.3569 27.8268 26.8891C27.1756 27.4213 26.3605 27.7121 25.5195 27.7121C24.6785 27.7121 23.8634 27.4213 23.2123 26.8891C22.5611 26.3569 22.114 25.6159 21.9466 24.7917H11.5924C11.4244 25.6152 10.9769 26.3554 10.3258 26.8869C9.67473 27.4184 8.86001 27.7086 8.01953 27.7084ZM8.01953 21.8751C7.43937 21.8751 6.88297 22.1055 6.47273 22.5158C6.0625 22.926 5.83203 23.4824 5.83203 24.0626C5.83203 24.6427 6.0625 25.1991 6.47273 25.6094C6.88297 26.0196 7.43937 26.2501 8.01953 26.2501C8.59969 26.2501 9.15609 26.0196 9.56633 25.6094C9.97656 25.1991 10.207 24.6427 10.207 24.0626C10.207 23.4824 9.97656 22.926 9.56633 22.5158C9.15609 22.1055 8.59969 21.8751 8.01953 21.8751ZM25.5195 20.4167C26.36 20.4166 27.1747 20.7068 27.8258 21.2383C28.4769 21.7698 28.9244 22.5099 29.0924 23.3334H30.6237V17.9667L30.2737 17.5001H23.332V21.1459C23.9445 20.6938 24.7029 20.4167 25.5195 20.4167ZM25.5195 21.8751C24.9394 21.8751 24.383 22.1055 23.9727 22.5158C23.5625 22.926 23.332 23.4824 23.332 24.0626C23.332 24.6427 23.5625 25.1991 23.9727 25.6094C24.383 26.0196 24.9394 26.2501 25.5195 26.2501C26.0997 26.2501 26.6561 26.0196 27.0663 25.6094C27.4766 25.1991 27.707 24.6427 27.707 24.0626C27.707 23.4824 27.4766 22.926 27.0663 22.5158C26.6561 22.1055 26.0997 21.8751 25.5195 21.8751ZM23.332 13.1251V16.0417H29.1654L26.9779 13.1251H23.332Z" fill="white"/>
</svg>
