<svg width="56" height="55" viewBox="0 0 56 55" fill="none" xmlns="http://www.w3.org/2000/svg">
<path d="M33.2652 43.9126C33.9901 43.9126 34.6853 43.6246 35.1979 43.112C35.7105 42.5994 35.9985 41.9042 35.9985 41.1793V35.7126C35.9985 34.9877 35.7105 34.2924 35.1979 33.7798C34.6853 33.2672 33.9901 32.9793 33.2652 32.9793C32.5402 32.9793 31.845 33.2672 31.3324 33.7798C30.8198 34.2924 30.5318 34.9877 30.5318 35.7126V41.1793C30.5318 41.9042 30.8198 42.5994 31.3324 43.112C31.845 43.6246 32.5402 43.9126 33.2652 43.9126ZM22.3318 43.9126C23.0568 43.9126 23.752 43.6246 24.2646 43.112C24.7772 42.5994 25.0652 41.9042 25.0652 41.1793V35.7126C25.0652 34.9877 24.7772 34.2924 24.2646 33.7798C23.752 33.2672 23.0568 32.9793 22.3318 32.9793C21.6069 32.9793 20.9117 33.2672 20.3991 33.7798C19.8865 34.2924 19.5985 34.9877 19.5985 35.7126V41.1793C19.5985 41.9042 19.8865 42.5994 20.3991 43.112C20.9117 43.6246 21.6069 43.9126 22.3318 43.9126ZM46.9318 11.1126H43.1598L38.4312 1.68258C38.2867 1.33559 38.0722 1.02214 37.8011 0.761799C37.5299 0.50146 37.208 0.299835 36.8555 0.169524C36.5029 0.039213 36.1273 -0.0169836 35.752 0.0044463C35.3768 0.0258762 35.01 0.124472 34.6745 0.294072C34.3391 0.463672 34.0423 0.700632 33.8025 0.990142C33.5628 1.27965 33.3854 1.61549 33.2813 1.97667C33.1773 2.33785 33.1489 2.71661 33.1978 3.08928C33.2468 3.46195 33.372 3.82052 33.5658 4.14258L37.0372 11.1126H18.5598L22.0312 4.14258C22.2965 3.50546 22.3109 2.79156 22.0717 2.14421C21.8324 1.49685 21.3571 0.963981 20.7412 0.652569C20.1253 0.341157 19.4144 0.274263 18.7512 0.465317C18.088 0.656371 17.5217 1.09123 17.1658 1.68258L12.4372 11.1126H8.66516C6.73321 11.142 4.87369 11.8526 3.41456 13.1192C1.95543 14.3858 0.990431 16.127 0.689755 18.0356C0.38908 19.9442 0.772044 21.8977 1.7711 23.5516C2.77016 25.2054 4.32114 26.4533 6.15049 27.0753L8.17316 47.4659C8.37712 49.4956 9.3303 51.3764 10.8466 52.741C12.3628 54.1057 14.3333 54.8561 16.3732 54.8459H39.2785C41.3184 54.8561 43.2888 54.1057 44.8051 52.741C46.3214 51.3764 47.2745 49.4956 47.4785 47.4659L49.5012 27.0753C51.3345 26.4515 52.8879 25.199 53.8863 23.5396C54.8846 21.8803 55.2635 19.9211 54.9557 18.0092C54.648 16.0972 53.6735 14.3559 52.2049 13.0936C50.7363 11.8313 48.8683 11.1296 46.9318 11.1126ZM41.9845 46.9193C41.9165 47.5958 41.5988 48.2228 41.0934 48.6776C40.5879 49.1325 39.9311 49.3827 39.2512 49.3793H16.3458C15.6659 49.3827 15.009 49.1325 14.5036 48.6776C13.9982 48.2228 13.6805 47.5958 13.6125 46.9193L11.6718 27.5126H43.9252L41.9845 46.9193ZM46.9318 22.0459H8.66516C7.94023 22.0459 7.245 21.7579 6.7324 21.2453C6.2198 20.7327 5.93182 20.0375 5.93182 19.3126C5.93182 18.5877 6.2198 17.8924 6.7324 17.3798C7.245 16.8672 7.94023 16.5793 8.66516 16.5793H46.9318C47.6568 16.5793 48.352 16.8672 48.8646 17.3798C49.3772 17.8924 49.6652 18.5877 49.6652 19.3126C49.6652 20.0375 49.3772 20.7327 48.8646 21.2453C48.352 21.7579 47.6568 22.0459 46.9318 22.0459Z" fill="#F6F6F6"/>
</svg>
