<svg width="124" height="164" viewBox="0 0 124 164" fill="none" xmlns="http://www.w3.org/2000/svg">
<g opacity="0.15">
<circle cx="7.38462" cy="7.38462" r="7.38462" transform="matrix(-1 0 0 1 103.383 0)" fill="#D9D9D9"/>
<circle cx="7.38462" cy="7.38462" r="7.38462" transform="matrix(-1 0 0 1 103.383 49.6245)" fill="#D9D9D9"/>
<circle cx="7.38462" cy="7.38462" r="7.38462" transform="matrix(-1 0 0 1 103.383 99.2493)" fill="#D9D9D9"/>
<circle cx="7.38462" cy="7.38462" r="7.38462" transform="matrix(-1 0 0 1 103.383 148.874)" fill="#D9D9D9"/>
<circle cx="7.38462" cy="7.38462" r="7.38462" transform="matrix(-1 0 0 1 59.0781 0)" fill="#D9D9D9"/>
<circle cx="7.38462" cy="7.38462" r="7.38462" transform="matrix(-1 0 0 1 59.0781 49.6245)" fill="#D9D9D9"/>
<circle cx="7.38462" cy="7.38462" r="7.38462" transform="matrix(-1 0 0 1 14.7695 0)" fill="#D9D9D9"/>
<circle cx="7.38462" cy="7.38462" r="7.38462" transform="matrix(-1 0 0 1 14.7695 49.6245)" fill="#D9D9D9"/>
</g>
</svg>
