<svg width="55" height="60" viewBox="0 0 55 60" fill="none" xmlns="http://www.w3.org/2000/svg">
<path d="M35.3806 27.9C36.7441 26.1959 37.4944 24.0824 37.5106 21.9C37.5106 19.2823 36.4708 16.7719 34.6198 14.9209C32.7688 13.0699 30.2583 12.03 27.6406 12.03C25.0229 12.03 22.5125 13.0699 20.6615 14.9209C18.8105 16.7719 17.7706 19.2823 17.7706 21.9C17.7869 24.0824 18.5372 26.1959 19.9006 27.9C17.2265 29.5274 15.1285 31.9505 13.9006 34.83C13.7288 35.1954 13.6324 35.5916 13.6174 35.9951C13.6023 36.3986 13.6688 36.8009 13.813 37.1781C13.9571 37.5552 14.1759 37.8994 14.4563 38.1899C14.7366 38.4805 15.0727 38.7115 15.4444 38.8691C15.8161 39.0267 16.2158 39.1076 16.6196 39.107C17.0233 39.1064 17.4228 39.0244 17.7941 38.8657C18.1653 38.7071 18.5008 38.4751 18.7803 38.1837C19.0598 37.8924 19.2776 37.5476 19.4206 37.17C20.1101 35.5583 21.2553 34.183 22.7156 33.213C24.1759 32.243 25.8876 31.7207 27.6406 31.71C29.3988 31.7148 31.117 32.2345 32.5831 33.2048C34.0493 34.1751 35.1991 35.5536 35.8906 37.17C36.1203 37.7123 36.5045 38.1749 36.9953 38.5004C37.486 38.8258 38.0618 38.9996 38.6506 39C39.0521 38.9925 39.4487 38.9112 39.8206 38.76C40.5522 38.4493 41.1306 37.8608 41.4287 37.124C41.7268 36.3871 41.7203 35.5621 41.4106 34.83C40.1748 31.9463 38.0659 29.5226 35.3806 27.9ZM27.6406 25.71C26.8739 25.71 26.1245 25.4823 25.4875 25.0557C24.8504 24.6291 24.3544 24.0229 24.0624 23.314C23.7704 22.6051 23.6956 21.8254 23.8473 21.0739C23.9991 20.3224 24.3707 19.6329 24.9149 19.0929C25.4591 18.5529 26.1515 18.1867 26.9042 18.0408C27.6569 17.8948 28.4359 17.9758 29.1425 18.2733C29.8491 18.5708 30.4514 19.0715 30.8731 19.7118C31.2947 20.3522 31.5166 21.1034 31.5106 21.87C31.5027 22.8912 31.0915 23.8679 30.3666 24.5872C29.6417 25.3064 28.6618 25.7101 27.6406 25.71ZM45.6406 0H9.64063C7.25368 0 4.96449 0.948213 3.27666 2.63604C1.58884 4.32387 0.640625 6.61306 0.640625 9.00001V42C0.640625 44.387 1.58884 46.6762 3.27666 48.364C4.96449 50.0518 7.25368 51 9.64063 51H17.4106L25.5106 59.1301C25.791 59.4081 26.1234 59.6281 26.4889 59.7774C26.8544 59.9267 27.2458 60.0023 27.6406 60.0001C28.3557 60.0001 29.0472 59.7448 29.5906 59.2801L39.2506 51H45.6406C48.0276 51 50.3168 50.0518 52.0046 48.364C53.6924 46.6762 54.6406 44.387 54.6406 42V9.00001C54.6406 6.61306 53.6924 4.32387 52.0046 2.63604C50.3168 0.948213 48.0276 0 45.6406 0ZM48.6406 42C48.6406 42.7957 48.3246 43.5588 47.762 44.1214C47.1993 44.684 46.4363 45 45.6406 45H38.1406C37.4256 45 36.7341 45.2553 36.1906 45.72L27.7906 52.92L20.7706 45.87C20.4903 45.592 20.1579 45.372 19.7923 45.2227C19.4268 45.0734 19.0354 44.9978 18.6406 45H9.64063C8.84498 45 8.08192 44.684 7.51931 44.1214C6.9567 43.5588 6.64063 42.7957 6.64063 42V9.00001C6.64063 8.20436 6.9567 7.4413 7.51931 6.87869C8.08192 6.31608 8.84498 6.00001 9.64063 6.00001H45.6406C46.4363 6.00001 47.1993 6.31608 47.762 6.87869C48.3246 7.4413 48.6406 8.20436 48.6406 9.00001V42Z" fill="#F6F6F6"/>
</svg>
