<svg width="29" height="29" viewBox="0 0 29 29" fill="none" xmlns="http://www.w3.org/2000/svg">
<path d="M18.6483 17.1C18.4494 17.1 18.2587 17.179 18.118 17.3196C17.9774 17.4603 17.8983 17.6511 17.8983 17.85C17.8983 18.0489 17.9774 18.2397 18.118 18.3803C18.2587 18.521 18.4494 18.6 18.6483 18.6H22.1483C22.3473 18.6 22.538 18.521 22.6787 18.3803C22.8193 18.2397 22.8983 18.0489 22.8983 17.85C22.8983 17.6511 22.8193 17.4603 22.6787 17.3196C22.538 17.179 22.3473 17.1 22.1483 17.1H18.6483ZM2.40234 9.34998C2.40234 8.35541 2.79743 7.40159 3.50069 6.69833C4.20395 5.99506 5.15778 5.59998 6.15234 5.59998H22.6483C23.6429 5.59998 24.5967 5.99506 25.3 6.69833C26.0033 7.40159 26.3983 8.35541 26.3983 9.34998V19.85C26.3983 20.8445 26.0033 21.7984 25.3 22.5016C24.5967 23.2049 23.6429 23.6 22.6483 23.6H6.15334C5.15878 23.6 4.20496 23.2049 3.50169 22.5016C2.79843 21.7984 2.40334 20.8445 2.40334 19.85V9.34998H2.40234ZM6.15234 7.09998C5.55561 7.09998 4.98331 7.33703 4.56135 7.75899C4.1394 8.18094 3.90234 8.75324 3.90234 9.34998V10.1H24.8983V9.34998C24.8983 8.75324 24.6613 8.18094 24.2393 7.75899C23.8174 7.33703 23.2451 7.09998 22.6483 7.09998H6.15234ZM3.90234 19.85C3.90234 20.4467 4.1394 21.019 4.56135 21.441C4.98331 21.8629 5.55561 22.1 6.15234 22.1H22.6483C23.2451 22.1 23.8174 21.8629 24.2393 21.441C24.6613 21.019 24.8983 20.4467 24.8983 19.85V11.6H3.90334V19.85H3.90234Z" fill="white"/>
</svg>
