<svg width="20" height="25" viewBox="0 0 20 25" fill="none" xmlns="http://www.w3.org/2000/svg">
<path d="M4.63161 6.21719H8.20853M4.63161 12.4768H15.3624M4.63161 16.0537H15.3624M4.63161 19.6306H8.20853M2.84315 24.1018H17.1508C17.6252 24.1018 18.0801 23.9134 18.4155 23.578C18.7509 23.2426 18.9393 22.7877 18.9393 22.3133V2.64027C18.9393 2.16594 18.7509 1.71104 18.4155 1.37563C18.0801 1.04023 17.6252 0.851807 17.1508 0.851807H2.84315C2.36882 0.851807 1.91392 1.04023 1.57852 1.37563C1.24311 1.71104 1.05469 2.16594 1.05469 2.64027V22.3133C1.05469 22.7877 1.24311 23.2426 1.57852 23.578C1.91392 23.9134 2.36882 24.1018 2.84315 24.1018Z" stroke="white" stroke-width="1.22637" stroke-linecap="round" stroke-linejoin="round"/>
<path d="M15.3612 6.66425C15.6081 6.66425 15.8083 6.46407 15.8083 6.21713C15.8083 5.9702 15.6081 5.77002 15.3612 5.77002C15.1142 5.77002 14.9141 5.9702 14.9141 6.21713C14.9141 6.46407 15.1142 6.66425 15.3612 6.66425Z" fill="white" stroke="white" stroke-width="0.613186"/>
</svg>
