<svg width="35" height="35" viewBox="0 0 35 35" fill="none" xmlns="http://www.w3.org/2000/svg">
<path d="M11.2494 21.2501V27.5001M17.4994 21.2501V27.5001M23.7494 21.2501V27.5001M30.8994 15.0001H4.09935C3.74182 14.9971 3.38779 15.0707 3.06116 15.2162C2.73453 15.3616 2.4429 15.5755 2.20595 15.8432C1.969 16.111 1.79223 16.4264 1.68759 16.7683C1.58295 17.1102 1.55286 17.4706 1.59935 17.8251L3.42435 31.5751C3.50368 32.1803 3.80171 32.7356 4.26224 33.1363C4.72276 33.5369 5.31396 33.7553 5.92435 33.7501H29.0244C29.6347 33.7553 30.2259 33.5369 30.6865 33.1363C31.147 32.7356 31.445 32.1803 31.5244 31.5751L33.3494 17.8251C33.3953 17.4748 33.3665 17.1186 33.2648 16.7803C33.1631 16.4419 32.9908 16.1289 32.7593 15.862C32.5278 15.595 32.2423 15.3802 31.9217 15.2316C31.6011 15.0831 31.2527 15.0042 30.8994 15.0001Z" stroke="white" stroke-width="1.71429" stroke-linecap="round" stroke-linejoin="round"/>
<path d="M23.7 3.8501C25.1976 4.10882 26.5697 4.84957 27.6076 5.95969C28.6455 7.06981 29.2924 8.48854 29.45 10.0001L30 15.0001M5 15.0001L5.55 10.0001C5.71781 8.4975 6.36931 7.09012 7.40638 5.98992C8.44345 4.88972 9.80993 4.15629 11.3 3.9001" stroke="white" stroke-width="1.71429" stroke-linecap="round" stroke-linejoin="round"/>
<path d="M23.75 4.375C23.75 4.78538 23.6692 5.19174 23.5121 5.57089C23.3551 5.95003 23.1249 6.29453 22.8347 6.58471C22.5445 6.87489 22.2 7.10508 21.8209 7.26212C21.4417 7.41917 21.0354 7.5 20.625 7.5H14.375C13.5462 7.5 12.7513 7.17076 12.1653 6.58471C11.5792 5.99866 11.25 5.2038 11.25 4.375C11.25 3.5462 11.5792 2.75134 12.1653 2.16529C12.7513 1.57924 13.5462 1.25 14.375 1.25H20.625C21.4538 1.25 22.2487 1.57924 22.8347 2.16529C23.4208 2.75134 23.75 3.5462 23.75 4.375Z" stroke="white" stroke-width="1.71429" stroke-linecap="round" stroke-linejoin="round"/>
</svg>
