<svg width="145" height="145" viewBox="0 0 145 145" fill="none" xmlns="http://www.w3.org/2000/svg">
<rect width="145" height="145" rx="72.5" fill="#ED4545"/>
<path d="M59.3963 15.6013L62.4194 15.6268C63.3508 15.6353 63.676 15.1092 63.3949 14.0486C63.3468 13.8704 62.7566 10.6949 63.5876 11.2294C63.7172 11.3138 63.8292 11.4243 63.9171 11.5544C64.0051 11.6845 64.0671 11.8315 64.0995 11.9867C64.8462 15.4528 63.8807 17.1965 61.2029 17.2177C59.1013 17.2368 58.1679 17.0141 57.6078 14.6595C57.5175 14.2777 55.0184 5.95384 56.8671 7.42387C57.0032 7.535 57.1098 7.72193 57.1682 7.95207L59.0109 15.2449C59.0365 15.3473 59.0883 15.438 59.1581 15.5025C59.2279 15.567 59.3117 15.6018 59.3963 15.6013Z" fill="white"/>
<path d="M63.4375 9.96875C63.938 9.96875 64.3438 9.56301 64.3438 9.0625C64.3438 8.56199 63.938 8.15625 63.4375 8.15625C62.937 8.15625 62.5312 8.56199 62.5312 9.0625C62.5312 9.56301 62.937 9.96875 63.4375 9.96875Z" fill="white"/>
<path d="M61.0837 9.82749C59.9959 10.2082 59.6063 9.81944 59.9147 8.6613C59.9484 8.53874 60.0154 8.42871 60.1076 8.34451C60.1998 8.26031 60.3132 8.20553 60.4343 8.18679C61.3976 8.04202 61.7764 8.41198 61.5707 9.29667C61.5433 9.41745 61.4842 9.52963 61.3989 9.62254C61.3137 9.71545 61.2051 9.786 61.0837 9.82749Z" fill="white"/>
<path d="M72.389 10.2094C72.6295 10.7684 72.4792 10.9753 71.9381 10.8301C71.8735 10.8137 71.8142 10.7818 71.7654 10.7373C71.7167 10.6928 71.6801 10.6371 71.6589 10.5752C71.4958 10.1176 71.6389 9.91899 72.0884 9.97928C72.1543 9.98951 72.2165 10.016 72.2691 10.0563C72.3217 10.0966 72.363 10.1493 72.389 10.2094Z" fill="white"/>
<path d="M95.9234 20.2677L96.9263 20.4388C97.1954 20.487 97.3825 20.5484 97.4876 20.623C101.039 23.1687 101.146 16.8339 102.313 18.6298C102.365 18.7128 102.397 18.8101 102.404 18.9133C102.412 19.0164 102.396 19.1224 102.357 19.2218C101.36 21.7478 100.572 23.4779 97.3173 22.2544C97.1113 22.1754 96.9031 22.1031 96.6929 22.0373C93.7852 21.1163 93.8483 19.6757 94.9521 17.0444C95.7594 15.1148 96.5815 13.194 97.4182 11.2819C97.4664 11.1717 97.5313 11.0767 97.6065 11.0063C97.6817 10.936 97.7647 10.8926 97.8471 10.8806C98.0532 10.8543 98.2256 10.9201 98.3643 11.078C98.4255 11.1464 98.4636 11.2379 98.4737 11.341C98.4838 11.444 98.4655 11.554 98.4211 11.6569L95.3999 18.8534C95.3387 18.9999 95.3038 19.1576 95.2978 19.3146C95.2918 19.4716 95.3149 19.624 95.3653 19.7601C95.4157 19.8962 95.4921 20.0126 95.5887 20.1006C95.6854 20.1885 95.7998 20.2456 95.9234 20.2677Z" fill="white"/>
<path d="M77.2107 14.5649L80.1494 14.5973C80.378 14.5987 80.6047 14.5138 80.7942 14.3559C80.9838 14.1979 81.1255 13.9756 81.1975 13.7236C81.3301 13.2511 81.947 10.8307 82.7829 11.685C82.8491 11.7537 82.8983 11.8405 82.927 11.939C82.9557 12.0376 82.9631 12.1454 82.9487 12.2545C82.816 13.1864 81.4296 15.1927 83.433 15.3674C83.6673 15.389 83.8686 15.4537 84.0366 15.5615C87.7116 17.9367 86.5574 10.7142 91.1345 13.3353C92.6691 14.2111 92.8482 15.7924 91.6718 18.079C91.5253 18.3605 91.3041 18.5977 91.0318 18.7652C90.7595 18.9328 90.4465 19.0245 90.1262 19.0304C88.9233 19.0563 87.7757 18.4976 86.6834 17.3542C86.6216 17.2879 86.5384 17.2428 86.4456 17.2254C86.3528 17.208 86.2549 17.2191 86.166 17.2571C85.3478 17.585 84.5629 17.4837 83.8111 16.953C82.5419 16.0599 81.7259 15.6694 81.3633 15.7816C79.8862 16.2389 78.3915 16.2929 76.879 15.9434C76.8378 15.9346 76.7953 15.9337 76.754 15.9408C76.7127 15.9478 76.6735 15.9627 76.6387 15.9845C76.604 16.0063 76.5745 16.0345 76.5519 16.0675C76.5294 16.1005 76.5143 16.1375 76.5075 16.1764C76.2157 17.8288 75.3002 18.7456 73.7613 18.9268C68.063 19.6064 66.126 16.8106 67.4727 11.6073C67.5015 11.4964 67.5499 11.3952 67.6141 11.3112C67.6784 11.2272 67.757 11.1625 67.8441 11.122C68.9519 10.6107 68.5539 14.7849 68.6203 15.3674C68.8922 17.9561 70.6899 17.4319 72.6402 17.516C76.3948 17.6843 75.2671 13.866 75.3798 11.4908C75.3841 11.3829 75.4116 11.2795 75.4601 11.1894C75.5086 11.0992 75.5767 11.025 75.6585 10.9731C76.7265 10.2742 76.554 13.5165 76.7663 14.1766C76.8026 14.2877 76.8651 14.385 76.9449 14.4547C77.0247 14.5244 77.1177 14.563 77.2107 14.5649ZM90.5574 14.5067C88.815 13.9932 87.8597 14.5778 87.6917 16.2605C87.6817 16.361 87.7 16.4617 87.7446 16.551C87.7892 16.6403 87.8582 16.7146 87.9438 16.7653C88.6425 17.1924 89.4054 17.4491 90.2323 17.5354C90.3517 17.5478 90.469 17.5289 90.5619 17.4824C90.6549 17.4359 90.717 17.365 90.7365 17.283L91.1876 15.4321C91.2322 15.2443 91.1918 15.0439 91.0747 14.872C90.9576 14.7 90.7726 14.5694 90.5574 14.5067Z" fill="white"/>
<path d="M50.363 20.1322C49.3611 21.449 48.0471 22.0463 46.421 21.9241C46.3277 21.9184 46.2349 21.9409 46.1536 21.989C46.0724 22.0371 46.0061 22.1088 45.9625 22.1956C45.3851 23.345 44.4617 24.0215 43.1922 24.2252C43.0738 24.2442 42.9615 24.2939 42.8653 24.3699C42.7691 24.4459 42.6918 24.5459 42.6403 24.6611C42.5887 24.7764 42.5645 24.9033 42.5697 25.0308C42.5749 25.1584 42.6093 25.2826 42.67 25.3927C44.0201 27.8363 40.7659 30.4563 39.0018 31.3523C35.9323 32.9271 34.0345 29.0377 32.7099 27.0489C32.6538 26.9661 32.6239 26.8674 32.625 26.7689C32.6262 26.6704 32.6583 26.5777 32.7163 26.5059C34.251 24.5781 36.0405 33.633 39.696 29.1124C39.8318 28.9449 39.9953 28.8114 40.1864 28.7119C44.173 26.6009 37.0276 21.0621 38.9827 21.0485C39.1975 21.0467 39.4093 21.1029 39.5986 21.2121C39.7879 21.3213 39.9484 21.4798 40.0654 21.673C41.1607 23.4785 41.3454 23.6211 43.3069 22.7998C45.0178 22.0848 45.366 20.7227 44.3513 18.7135C44.3001 18.6089 44.27 18.4987 44.2633 18.3923C44.2567 18.286 44.2737 18.1866 44.3131 18.1026C44.7843 17.1116 45.3702 18.028 45.4785 18.6796C45.8181 20.6978 47.0154 20.9942 49.0702 19.5688C49.6986 19.1298 49.8811 18.537 49.6179 17.7904C48.9047 15.7631 49.5309 14.4259 51.4966 13.7788C54.1968 12.8896 54.6362 15.3875 55.2221 17.3696C55.3088 17.6607 55.3 17.9746 55.1969 18.2596C55.0939 18.5446 54.9029 18.7837 54.6553 18.9375C53.4453 19.6978 52.1865 20.0168 50.8789 19.8946C50.7826 19.8865 50.6855 19.9038 50.5957 19.9452C50.5059 19.9866 50.426 20.0507 50.363 20.1322ZM50.6178 16.3785C50.4946 18.6185 51.5454 19.0529 53.7701 17.6818C53.8664 17.6235 53.9399 17.53 53.9773 17.418C54.0146 17.306 54.0134 17.1829 53.9739 17.0709C53.1842 14.7631 52.144 14.3354 50.8534 15.788C50.7134 15.9462 50.6299 16.1553 50.6178 16.3785Z" fill="white"/>
<path d="M101.962 14.5313C102.435 14.6693 102.53 14.9066 102.248 15.243C102.203 15.2991 102.127 15.3448 102.031 15.3735C101.936 15.4022 101.826 15.4124 101.718 15.4027C100.37 15.2704 100.234 14.9943 101.309 14.5744C101.413 14.5347 101.526 14.51 101.64 14.5025C101.754 14.4949 101.865 14.5048 101.962 14.5313Z" fill="white"/>
<path d="M103.224 16.0022C103.446 17.0017 103.251 17.3854 102.638 17.153C102.579 17.1297 102.525 17.0697 102.485 16.982C102.445 16.8943 102.42 16.7837 102.414 16.6667C102.365 15.6078 102.543 15.216 102.949 15.4916C103.008 15.5325 103.063 15.5989 103.111 15.6867C103.158 15.7744 103.196 15.8818 103.224 16.0022Z" fill="white"/>
<path d="M79.5467 19.8332C79.5058 19.8735 79.4559 19.9034 79.4012 19.9207C79.3465 19.9379 79.2884 19.942 79.2318 19.9325C79.1752 19.923 79.1216 19.9003 79.0755 19.8662C79.0294 19.832 78.9921 19.7875 78.9666 19.7362C78.7046 19.2208 78.8618 18.988 79.4381 19.0378C79.5001 19.0434 79.5583 19.0635 79.6066 19.0958C79.6548 19.1281 79.691 19.1713 79.7114 19.2208C79.7962 19.4399 79.7413 19.644 79.5467 19.8332Z" fill="white"/>
<path d="M81.0771 19.8869C81.3115 20.2505 81.7864 20.3617 82.138 20.1351C82.4895 19.9086 82.5845 19.4301 82.3501 19.0664C82.1158 18.7028 81.6408 18.5916 81.2893 18.8182C80.9377 19.0447 80.8427 19.5232 81.0771 19.8869Z" fill="white"/>
<path d="M108.432 28.0163C109.627 29.1398 110.699 29.0958 111.648 27.8842C113.018 26.1424 114.606 24.4885 116.128 22.8662C116.196 22.7933 116.285 22.7419 116.382 22.7193C116.478 22.6967 116.577 22.7041 116.664 22.7404C118.047 23.3252 113.097 27.9911 112.376 28.7646C110 31.324 107.512 28.9721 105.368 27.6076C105.283 27.5508 105.215 27.4754 105.173 27.3898C105.131 27.3043 105.116 27.212 105.13 27.1234C105.254 26.3268 105.701 26.2325 106.473 26.8404C106.54 26.8935 106.617 26.933 106.7 26.9566C106.784 26.9801 106.871 26.987 106.957 26.977C107.042 26.9669 107.125 26.9401 107.199 26.8982C107.273 26.8563 107.337 26.8002 107.386 26.7335L111.529 21.162C111.595 21.0751 111.675 21.0027 111.763 20.9496C111.851 20.8965 111.945 20.8639 112.038 20.8539C113.17 20.7407 112.76 21.6022 112.396 22.055C110.984 23.8241 109.645 25.6456 108.379 27.5195C108.327 27.5955 108.303 27.6864 108.313 27.7768C108.322 27.8673 108.365 27.9518 108.432 28.0163Z" fill="white"/>
<path d="M34.9645 22.8072C35.0468 22.8422 35.1209 22.8961 35.1815 22.965C35.242 23.034 35.2876 23.1162 35.3148 23.2057C35.342 23.2952 35.3502 23.3899 35.3388 23.4828C35.3273 23.5757 35.2966 23.6645 35.2488 23.7429C34.6948 24.6526 34.1651 24.7072 33.6597 23.9067C33.5909 23.7979 33.5481 23.6754 33.5353 23.551C33.5225 23.4266 33.5403 23.3047 33.5868 23.1971C33.8249 22.646 34.2842 22.5161 34.9645 22.8072Z" fill="white"/>
<path d="M48.0561 25.2011C48.473 25.399 48.9551 25.2559 49.1329 24.8813C49.3108 24.5068 49.117 24.0427 48.7001 23.8447C48.2833 23.6468 47.8011 23.7899 47.6233 24.1645C47.4455 24.539 47.6392 25.0031 48.0561 25.2011Z" fill="white"/>
<path d="M45.5698 26.098C44.2684 24.9353 48.4147 25.3342 46.7047 26.177C46.6261 26.216 46.5303 26.2454 46.425 26.2629C46.3197 26.2803 46.2077 26.2855 46.0978 26.2778C45.9878 26.2701 45.8829 26.2499 45.7913 26.2187C45.6997 26.1875 45.6239 26.1462 45.5698 26.098Z" fill="white"/>
<path d="M121.648 30.9917C122.283 31.2788 126.876 32.8301 125.809 33.8073C125.737 33.8701 125.645 33.9095 125.546 33.9204C125.446 33.9313 125.343 33.9132 125.25 33.8684L122.041 32.3476C121.947 32.3022 121.844 32.2767 121.739 32.2729C121.634 32.2691 121.53 32.2871 121.435 32.3257C121.34 32.3643 121.255 32.4224 121.187 32.4959C121.12 32.5694 121.071 32.6564 121.044 32.7507C120.218 35.6641 118.332 40.8861 114.393 36.1649C113.16 34.6929 111.21 33.3248 113.288 31.3643C114.998 29.7478 116.837 28.0845 118.802 26.3743C118.864 26.3213 118.942 26.2891 119.026 26.2825C119.109 26.2759 119.193 26.2953 119.265 26.3377C120.383 27.0095 119.418 27.376 118.935 27.8035C117.266 29.2857 115.672 30.7047 114.151 32.0606C113.516 32.6306 113.51 33.2047 114.132 33.7829C115.212 34.7846 116.337 37.3253 117.976 36.5497C119.361 35.8962 119.939 32.9278 120.352 31.5597C120.389 31.4355 120.454 31.3206 120.543 31.2228C120.631 31.1249 120.74 31.0464 120.863 30.9926C120.986 30.9387 121.119 30.9108 121.255 30.9107C121.39 30.9105 121.524 30.9381 121.648 30.9917Z" fill="white"/>
<path d="M25.6914 37.6533C25.854 37.7577 26.0534 37.7977 26.249 37.7653C26.4446 37.7328 26.6218 37.6304 26.7446 37.4787C27.6605 36.3434 30.4276 34.5781 28.8314 33.0498C27.8698 32.1266 24.6382 32.2077 23.2317 32.083C23.0921 32.0699 22.9569 32.029 22.8353 31.9631C22.7136 31.8971 22.6083 31.8076 22.5265 31.7006C22.4447 31.5936 22.3882 31.4716 22.3609 31.3428C22.3335 31.214 22.336 31.0814 22.3682 30.9539L23.4803 26.6186C23.5029 26.5257 23.5554 26.4424 23.6299 26.3815C23.7043 26.3207 23.7965 26.2857 23.8924 26.2818C25.3316 26.2319 23.9513 29.6253 23.755 30.5734C23.7404 30.6447 23.7426 30.7181 23.7616 30.7884C23.7806 30.8587 23.8158 30.9241 23.8648 30.9797C23.9137 31.0353 23.9751 31.0798 24.0444 31.1099C24.1137 31.14 24.1891 31.1549 24.2653 31.1535C27.7062 31.1099 33.6331 32.4884 29.2697 36.9672C27.4773 38.8073 26.4568 39.7617 24.0559 38.1399C23.67 37.8841 16.4282 33.6486 18.4954 33.2806C18.5824 33.2668 18.6799 33.2735 18.7821 33.3003C18.8843 33.3271 18.9892 33.3734 19.0907 33.4366L25.6914 37.6533Z" fill="white"/>
<path d="M22.3829 44.6718C23.1906 44.1841 23.4135 43.4698 23.0516 42.5289C22.9786 42.3439 22.8346 42.1781 22.6411 42.0563C20.5578 40.7831 18.4148 39.6113 16.2123 38.5409C15.5966 38.2431 14.9345 37.654 15.9408 37.2073C16.0308 37.1671 16.1325 37.1503 16.2374 37.1581C16.3422 37.166 16.4471 37.1984 16.5433 37.2526C19.7522 39.0653 21.712 40.1314 22.4226 40.4508C25.9912 42.0434 23.9851 44.756 23.131 47.2032C22.9258 47.7988 22.1909 48.5044 21.8201 47.5981C21.789 47.5247 21.777 47.433 21.785 47.3291C21.793 47.2252 21.8208 47.1116 21.8665 46.996C21.9636 46.7586 22.0033 46.5169 21.9856 46.2709C21.9775 46.1768 21.94 46.085 21.877 46.0052C21.8141 45.9255 21.7281 45.8607 21.6281 45.8177L14.8683 42.9174C14.7683 42.8763 14.6818 42.8138 14.6177 42.7363C14.5537 42.6589 14.5144 42.5694 14.5041 42.4771C14.3254 40.8457 19.9928 43.8173 21.8003 44.6783C21.896 44.7241 21.9994 44.7476 22.1011 44.7464C22.2028 44.7453 22.2997 44.7197 22.3829 44.6718Z" fill="white"/>
<path d="M123.945 51.9069C123.956 51.8558 123.953 51.803 123.937 51.7531C123.921 51.7031 123.893 51.6577 123.854 51.6209C123.815 51.584 123.766 51.5569 123.714 51.5419C123.661 51.5269 123.605 51.5245 123.551 51.5349C120.154 52.2158 119.633 50.5073 118.432 48.2439C116.19 44.0324 120.541 43.0236 123.417 41.7438C123.517 41.7003 123.624 41.6814 123.725 41.6892C123.827 41.697 123.919 41.7313 123.991 41.7879C125.172 42.6958 120.781 44.2278 120.161 44.5746C119.235 45.0916 118.973 45.7536 119.373 46.5606L120.995 49.8074C121.342 50.4968 121.942 50.6817 122.797 50.3623C123.477 50.1101 127.642 48.0043 127.869 48.6915C127.911 48.8198 127.925 48.9548 127.912 49.0885C127.898 49.2222 127.857 49.3521 127.79 49.4705C127.723 49.589 127.632 49.6937 127.521 49.7786C127.411 49.8635 127.284 49.9269 127.148 49.9651C125.488 50.4316 124.843 51.1629 125.213 52.1591C125.288 52.365 125.322 52.5668 125.313 52.7643C125.255 53.5965 125.571 54.2165 126.26 54.6242C126.429 54.7222 126.647 54.7665 126.881 54.7503C127.422 54.7062 130.118 54.2585 129.784 55.2673C129.75 55.3677 129.688 55.457 129.605 55.5249C129.523 55.5929 129.423 55.6368 129.317 55.6519L127.515 55.9103C127.377 55.9301 127.252 55.9578 127.148 55.9915C127.044 56.0253 126.965 56.0642 126.914 56.1058C126.434 56.5009 126.354 56.98 126.674 57.5432C126.785 57.7408 126.854 57.932 126.881 58.117C127.315 61.0612 131.352 58.1296 132.187 61.7484C132.887 64.7873 130.531 64.6801 128.396 65.1656C127.261 65.4261 126.636 65.0836 126.521 64.1379L126.194 61.4773C126.189 61.4375 126.212 61.3655 126.26 61.2704C126.309 61.1752 126.381 61.0609 126.467 60.9414C126.654 60.6893 126.572 60.3677 126.22 59.9768C125.273 58.9177 124.959 57.5622 125.279 55.9103C125.297 55.8177 125.29 55.7217 125.257 55.6313C125.225 55.5409 125.168 55.459 125.092 55.3934C124.029 54.4435 123.646 53.2813 123.945 51.9069ZM127.642 61.3765C127.112 63.7512 127.969 64.5015 130.211 63.6272C130.409 63.5514 130.578 63.4202 130.695 63.2512C130.812 63.0821 130.871 62.8834 130.865 62.6815C130.812 61.16 129.904 60.5674 128.142 60.9036C128.021 60.9278 127.909 60.9853 127.82 61.0691C127.731 61.153 127.669 61.2597 127.642 61.3765Z" fill="white"/>
<path d="M127.382 45.1683C126.49 45.496 126.019 45.2651 125.971 44.4758C125.962 44.3584 125.983 44.2394 126.031 44.1292C126.079 44.0189 126.154 43.9206 126.249 43.8428C126.965 43.2422 127.468 43.4308 127.755 44.4088C127.8 44.5599 127.787 44.7229 127.717 44.8641C127.648 45.0054 127.528 45.1142 127.382 45.1683Z" fill="white"/>
<path d="M12.0197 50.8663C14.3175 52.5533 9.84609 53.5243 11.102 51.1296C11.1947 50.95 11.3433 50.8215 11.5153 50.7722C11.6872 50.7228 11.8686 50.7566 12.0197 50.8663Z" fill="white"/>
<path d="M15.7579 59.7099C16.0076 59.7618 16.2708 59.7073 16.4899 59.5581C16.7091 59.4089 16.8664 59.1772 16.9276 58.9137L17.6333 55.7602C17.8206 54.941 17.5288 54.4416 16.7577 54.2618C16.0911 54.1114 13.229 53.7039 14.268 52.7196C14.3398 52.6524 14.4298 52.6044 14.5294 52.5803C14.629 52.5561 14.7347 52.5566 14.8365 52.5816C16.5159 52.9829 18.4371 53.2211 18.9729 55.1082C19.2212 55.9671 18.607 57.3526 18.4371 58.4686C18.167 60.2533 17.0452 60.9763 15.0717 60.6378C13.6407 60.387 8.63514 59.9043 7.70069 59.1206C6.84683 58.3975 7.20624 58.1635 8.7789 58.4184C11.1401 58.7988 13.4664 59.2293 15.7579 59.7099Z" fill="white"/>
<path d="M10.7142 54.8995C11.0836 55.1639 11.5906 55.0883 11.8466 54.7307C12.1027 54.3731 12.0108 53.8687 11.6415 53.6043C11.2721 53.3399 10.7651 53.4154 10.509 53.7731C10.253 54.1307 10.3449 54.635 10.7142 54.8995Z" fill="white"/>
<path d="M121.826 57.0127C119.054 57.7163 121.468 53.5334 122.31 56.1545C122.339 56.2417 122.35 56.3339 122.341 56.4252C122.332 56.5165 122.304 56.605 122.258 56.6854C122.213 56.7658 122.151 56.8363 122.077 56.8926C122.002 56.9489 121.917 56.9898 121.826 57.0127Z" fill="white"/>
<path d="M122.461 58.8319C122.322 58.9114 122.159 58.9279 122.009 58.8778C121.859 58.8276 121.732 58.7148 121.655 58.5631C121.227 57.6935 121.431 57.206 122.269 57.1006C122.386 57.0856 122.503 57.0953 122.614 57.1293C122.724 57.1632 122.825 57.2207 122.911 57.2983C123.482 57.8095 123.332 58.3207 122.461 58.8319Z" fill="white"/>
<path d="M15.2096 71.9765C15.562 70.9392 15.562 69.8976 15.2096 68.8518C15.1428 68.6522 14.9955 68.4857 14.7992 68.3882C13.9923 67.9817 13.0532 67.95 12.3646 67.5244C10.5236 66.3855 10.3891 64.9396 11.9611 63.1867C12.1015 63.0338 12.2959 62.9228 12.5176 62.8692C16.9231 61.8065 18.363 63.2502 16.8373 67.2006C16.7235 67.493 16.6381 67.7683 16.5912 67.9935C16.5444 68.2187 16.538 68.3844 16.573 68.4707C17.1248 69.7917 17.1202 71.2059 16.5591 72.7132C16.4876 72.9135 16.5 73.1288 16.5938 73.3165C17.1874 74.4809 17.3265 75.5648 17.0112 76.5682C16.9745 76.6844 16.9714 76.8073 17.0023 76.9249C17.0332 77.0424 17.097 77.1507 17.1874 77.239C17.2778 77.3273 17.3918 77.3927 17.5182 77.4288C17.6446 77.4648 17.7791 77.4703 17.9085 77.4447C20.837 76.8921 21.7969 81.8078 21.7483 83.2749C21.6578 86.1963 17.6998 86.5202 14.834 86.9902C14.7232 87.0091 14.6108 87.0005 14.5115 86.9654C14.4123 86.9303 14.3307 86.8703 14.2775 86.7933C13.4567 85.612 18.4024 85.1293 19.1815 84.78C20.0301 84.399 20.364 83.7956 20.1831 82.97L19.4875 79.7691C19.2974 78.9054 18.7154 78.5391 17.7416 78.6704C16.1834 78.8821 14.6392 79.1721 13.1089 79.5405C12.4225 79.7056 12.1095 79.4791 12.1698 78.8609C12.1806 78.7698 12.223 78.682 12.2919 78.6078C12.3608 78.5337 12.4535 78.4761 12.5594 78.4418C13.6514 78.1115 16.1695 78.1687 15.6061 76.4285C15.5426 76.2296 15.5451 76.0216 15.613 75.8315C16.7608 72.5862 10.1039 73.8119 11.8985 72.3575C11.9618 72.3076 12.0503 72.2688 12.1583 72.2436C12.2662 72.2184 12.3911 72.2074 12.5246 72.2115L14.7505 72.3067C14.8484 72.31 14.9464 72.2795 15.0294 72.2198C15.1123 72.1601 15.1757 72.0746 15.2096 71.9765ZM15.1122 63.9552C13.3825 63.3963 12.5223 63.987 12.5315 65.7271C12.5334 65.9046 12.5865 66.0784 12.6854 66.2312C12.7843 66.3839 12.9256 66.5102 13.095 66.5972C14.8896 67.516 15.8055 66.9529 15.8426 64.9079C15.8463 64.7005 15.7777 64.4971 15.6467 64.3262C15.5157 64.1553 15.3288 64.0256 15.1122 63.9552Z" fill="white"/>
<path d="M128.583 70.0006C128.51 70.4415 128.464 70.8892 128.447 71.3438C128.291 75.4618 128.453 74.3573 131.896 74.8209C131.997 74.8353 132.09 74.88 132.162 74.9486C132.235 75.0171 132.283 75.1061 132.3 75.2028C132.54 76.6686 131.141 75.9391 130.36 75.9732C128.087 76.0777 126.928 75.0732 126.885 72.9596C126.833 70.5802 126.891 68.3575 129.657 68.2143C132.113 68.0916 134.567 68.0098 137.018 67.9689C137.126 67.9669 137.23 67.9903 137.321 68.0368C137.413 68.0834 137.487 68.1515 137.539 68.2348C138.012 68.9847 137.691 69.3461 136.576 69.3188C134.033 69.2643 131.497 69.3688 128.967 69.6324C128.872 69.6426 128.784 69.6841 128.714 69.7506C128.645 69.8171 128.599 69.9049 128.583 70.0006Z" fill="white"/>
<path d="M19.8451 71.848C20.0739 72.4269 19.8779 72.6203 19.2572 72.4282C19.1996 72.4102 19.1484 72.376 19.1099 72.3298C19.0713 72.2837 19.0472 72.2275 19.0403 72.1681C18.9877 71.7172 19.1652 71.5318 19.5728 71.6118C19.6324 71.6242 19.6885 71.6523 19.736 71.6935C19.7835 71.7346 19.8209 71.7877 19.8451 71.848Z" fill="white"/>
<path d="M135.431 73.3892C134.465 73.4635 134.035 73.2948 134.141 72.883C134.158 72.8205 134.209 72.7608 134.289 72.7103C134.369 72.6597 134.475 72.6201 134.595 72.5956C135.753 72.3583 136.162 72.5627 135.822 73.209C135.795 73.2564 135.744 73.2986 135.675 73.3305C135.606 73.3625 135.521 73.3829 135.431 73.3892Z" fill="white"/>
<path d="M19.4163 73.6936C20.5628 73.0932 21.0187 73.4336 20.7839 74.715C20.7592 74.8359 20.6989 74.9463 20.611 75.0311C20.5232 75.116 20.412 75.1712 20.2925 75.1894C19.4736 75.3181 19.0533 75.0232 19.0314 74.3048C19.0286 74.1841 19.063 74.0631 19.1309 73.9553C19.1988 73.8475 19.2976 73.7569 19.4163 73.6936Z" fill="white"/>
<path d="M134.833 76.0481C134.191 75.7077 133.986 75.2772 134.217 74.7563C134.261 74.6521 134.337 74.5597 134.436 74.488C134.536 74.4163 134.657 74.3676 134.787 74.3463C135.824 74.1813 136.16 74.6197 135.795 75.6613C135.763 75.7547 135.711 75.84 135.644 75.9116C135.576 75.9831 135.493 76.0391 135.402 76.0758C135.311 76.1124 135.213 76.129 135.114 76.1242C135.016 76.1194 134.92 76.0935 134.833 76.0481Z" fill="white"/>
<path d="M126.374 84.9528C125.867 86.4184 126.277 87.3023 127.604 87.6046C129.954 88.1421 132.288 88.73 134.607 89.3683C134.707 89.3968 134.795 89.4488 134.864 89.5188C134.933 89.5888 134.979 89.674 134.997 89.7651C135.152 90.5378 134.781 90.7897 133.886 90.521C131.7 89.8575 129.498 89.2444 127.28 88.6817C123.987 87.8503 125.283 84.7198 125.468 82.4522C125.49 82.2275 125.571 82.0303 125.7 81.8916C126.172 81.3919 126.507 81.4612 126.705 82.0995C126.748 82.2503 126.739 82.4652 126.679 82.7105C126.348 83.9513 127.836 83.649 128.471 83.7687C129.112 83.8884 135.916 84.4489 134.792 85.652C134.726 85.7218 134.638 85.7739 134.537 85.8036C134.437 85.8334 134.327 85.8397 134.217 85.8221L126.817 84.7072C126.724 84.6915 126.628 84.7076 126.547 84.7527C126.465 84.7977 126.404 84.8687 126.374 84.9528Z" fill="white"/>
<path d="M13.213 84.5959C12.4959 85.4875 12.0412 85.3713 11.8489 84.2474C11.6255 82.9162 11.9554 82.3322 12.8388 82.4955C12.9672 82.5189 13.0881 82.5744 13.1922 82.6577C13.2962 82.741 13.3807 82.8498 13.439 82.9758C13.704 83.541 13.6287 84.081 13.213 84.5959Z" fill="white"/>
<path d="M123.126 97.7419C123.282 97.9307 123.491 98.0762 123.733 98.1637C123.975 98.2512 124.242 98.2777 124.506 98.2406L128.917 97.6324C129.055 97.6133 129.195 97.624 129.328 97.6639C129.462 97.7037 129.585 97.7718 129.69 97.8635C129.795 97.9552 129.88 98.0683 129.938 98.1953C129.996 98.3222 130.026 98.4601 130.026 98.5994V102.65C130.026 102.759 130.006 102.863 129.966 102.952C129.927 103.042 129.869 103.116 129.799 103.167C129.53 103.361 129.261 103.361 128.993 103.167C128.928 103.12 128.875 103.049 128.838 102.96C128.801 102.872 128.78 102.767 128.778 102.656L128.678 99.1163C128.677 99.0761 128.667 99.0364 128.65 98.9997C128.632 98.963 128.607 98.9301 128.575 98.9028C128.543 98.8755 128.506 98.8545 128.465 98.841C128.424 98.8276 128.381 98.8219 128.337 98.8244C126.126 98.946 122.521 100.284 121.557 97.298C120.89 95.2364 123.089 90.4989 126.233 91.7335C128.379 92.5727 130.532 93.3998 132.691 94.2147C132.898 94.293 133.058 94.4259 133.139 94.5857C134.115 96.556 125.842 92.822 125.458 92.67C125.227 92.5772 124.967 92.5749 124.735 92.6636C124.503 92.7522 124.317 92.9248 124.216 93.1444C123.586 94.5066 122.017 96.3858 123.126 97.7419Z" fill="white"/>
<path d="M14.6648 96.8818C14.7376 96.9462 14.8265 96.9931 14.9236 97.0186C15.0208 97.044 15.1233 97.0471 15.2221 97.0277C15.3208 97.0082 15.4129 96.9668 15.4902 96.907C15.5675 96.8472 15.6277 96.7709 15.6654 96.6848C17.0103 93.7235 20.5578 89.7591 23.1957 94.9832C23.5163 95.624 23.8693 96.2469 24.2548 96.8519C25.8206 99.3416 18.3422 102.219 16.4385 103.246C16.3508 103.293 16.2519 103.316 16.1553 103.312C16.0588 103.308 15.9693 103.276 15.8993 103.222C15.2235 102.725 15.3578 102.259 16.3021 101.825C18.5025 100.818 20.5362 99.8053 22.4031 98.7863C23.1394 98.3843 23.2802 97.849 22.8254 97.1803C22.1302 96.1415 21.6299 94.5295 20.7592 93.9444C18.6931 92.5473 16.9453 96.6072 16.2306 97.7117C15.7238 98.4918 15.1044 98.5993 14.3724 98.0341L11.0718 95.4967C10.9936 95.4354 10.9351 95.3571 10.903 95.2706C10.8708 95.1841 10.8663 95.0928 10.8899 95.0071C11.2147 93.7235 14.3139 96.5773 14.6648 96.8818Z" fill="white"/>
<path d="M112.14 109.637C112.192 109.618 112.239 109.586 112.275 109.543C112.312 109.5 112.337 109.449 112.348 109.393C112.359 109.338 112.355 109.28 112.338 109.226C112.321 109.173 112.29 109.124 112.25 109.086C109.825 106.776 112.288 104.335 114.095 102.354C116.179 100.064 119.144 102.892 121.253 104.841C121.335 104.918 121.395 105.012 121.422 105.108C121.448 105.205 121.441 105.298 121.401 105.372C121.144 105.836 120.37 105.558 119.079 104.539C118.595 104.154 118.125 103.752 117.671 103.332C116.638 102.365 115.641 102.538 114.68 103.85C114.329 104.331 113.947 104.786 113.536 105.215C111.208 107.656 114.513 109.467 116.404 110.93C116.492 110.997 116.564 111.08 116.614 111.171C116.664 111.262 116.691 111.359 116.693 111.455C116.745 113.272 114.076 110.064 112.886 110.713C110.725 111.888 109.889 112.675 111.716 115.188C111.833 115.348 111.9 115.541 111.908 115.741C111.916 115.941 111.865 116.14 111.761 116.31C111.392 116.914 110.824 116.391 110.057 114.742C110.001 114.621 109.921 114.513 109.823 114.424C109.724 114.336 109.609 114.269 109.484 114.229C109.359 114.188 109.227 114.174 109.096 114.188C108.966 114.202 108.839 114.243 108.725 114.309C104.899 116.54 107.754 117.452 107.381 119.906C107.079 121.888 104.513 123.206 102.95 121.678C100.498 119.28 101.156 117.364 104.924 115.93C105.311 115.782 105.632 115.498 105.831 115.129C106.487 113.9 107.527 113.156 108.95 112.898C109.046 112.88 109.136 112.837 109.209 112.774C109.283 112.71 109.338 112.629 109.368 112.537C109.857 111.103 110.781 110.136 112.14 109.637ZM103.252 120.359C104.77 122.367 107.182 119.867 105.6 117.839C105.497 117.707 105.355 117.61 105.194 117.563C105.033 117.516 104.86 117.521 104.699 117.577C102.826 118.228 102.343 119.156 103.252 120.359Z" fill="white"/>
<path d="M24.7478 103.584C22.6755 104.742 20.7053 106.03 18.8372 107.448C17.7489 108.274 16.3543 107.747 17.9183 106.663C18.7698 106.068 20.6097 104.828 23.4379 102.943C26.0707 101.188 28.1821 104.165 29.7331 105.717C29.8077 105.791 29.8612 105.878 29.8876 105.967C29.914 106.057 29.9124 106.146 29.8829 106.226C29.7743 106.521 29.5636 106.659 29.2508 106.639C29.2148 106.636 29.1458 106.606 29.0528 106.553C28.9598 106.499 28.8471 106.425 28.7295 106.34L28.1299 105.914C28.0626 105.865 27.9714 105.844 27.8724 105.856C27.7735 105.869 27.6731 105.912 27.5891 105.98L22.1672 110.341C21.988 110.486 21.7842 110.566 21.6002 110.562C21.1745 110.542 20.9898 110.333 21.0463 109.933C21.0568 109.854 21.0904 109.77 21.1452 109.688C21.2 109.606 21.2749 109.526 21.3656 109.454L26.7875 105.094C26.8551 105.039 26.8973 104.962 26.9058 104.879C26.9142 104.796 26.8883 104.712 26.8331 104.644C26.4334 104.161 25.9317 103.794 25.3278 103.542C25.2376 103.505 25.1377 103.49 25.0366 103.497C24.9356 103.505 24.8365 103.534 24.7478 103.584Z" fill="white"/>
<path d="M118.226 110.27C117.537 109.28 117.709 108.773 118.742 108.75C118.859 108.748 118.974 108.777 119.078 108.835C119.182 108.894 119.271 108.98 119.339 109.087C119.848 109.916 119.678 110.405 118.829 110.555C118.721 110.574 118.608 110.557 118.503 110.507C118.397 110.458 118.302 110.376 118.226 110.27Z" fill="white"/>
<path d="M107.515 110.518C107.399 110.492 107.291 110.438 107.2 110.361C107.11 110.284 107.039 110.187 106.993 110.077C106.948 109.967 106.93 109.848 106.94 109.73C106.951 109.612 106.99 109.498 107.053 109.398C107.61 108.527 108.136 108.534 108.633 109.42C108.699 109.533 108.739 109.656 108.748 109.777C108.757 109.897 108.736 110.012 108.685 110.11C108.487 110.506 108.097 110.642 107.515 110.518Z" fill="white"/>
<path d="M104.989 111.038C105.106 111.492 105.516 111.778 105.903 111.678C106.291 111.578 106.51 111.129 106.392 110.675C106.275 110.221 105.866 109.935 105.478 110.035C105.091 110.135 104.872 110.584 104.989 111.038Z" fill="white"/>
<path d="M36.6135 112.49C38.3782 114.186 39.9883 115.563 38.1657 118.07C37.9403 118.377 32.8394 126.335 32.8652 123.576C32.8651 123.377 32.94 123.164 33.0777 122.969L37.4443 116.823C37.5879 116.622 37.6619 116.377 37.6511 116.14C37.6403 115.902 37.5457 115.688 37.3864 115.542L34.4882 112.878C34.4096 112.806 34.303 112.771 34.1873 112.78C34.0717 112.788 33.9546 112.84 33.857 112.926C33.4255 113.307 31.049 116.646 30.8171 114.718C30.805 114.618 30.8167 114.513 30.8513 114.412C30.8858 114.31 30.9424 114.215 31.0168 114.132C32.833 112.081 34.3014 110.262 36.6135 112.49Z" fill="white"/>
<path d="M29.5235 117.719C29.494 117.741 29.455 117.761 29.4086 117.777C29.3623 117.792 29.3097 117.803 29.2539 117.808C29.1982 117.814 29.1404 117.814 29.0842 117.809C29.028 117.803 28.9744 117.793 28.9267 117.778C26.1675 116.897 31.2984 116.389 29.5235 117.719Z" fill="white"/>
<path d="M50.8122 122.299C52.4708 122.252 53.9104 122.802 55.1312 123.952C55.3567 124.164 55.5005 124.121 55.5624 123.822C56.259 120.322 62.1106 121.545 63.7692 123.496C65.1956 125.168 63.6432 131.335 62.6015 130.405C62.5295 130.341 62.474 130.256 62.4394 130.158C62.4049 130.06 62.3922 129.95 62.4025 129.839C62.5219 128.395 63.391 126.378 63.1721 125.259C62.8337 123.509 60.0008 123.243 58.3422 123.067C57.4046 122.967 56.8207 123.399 56.5907 124.362L55.6354 128.356C55.611 128.455 55.561 128.547 55.4901 128.622C55.4193 128.697 55.33 128.754 55.2307 128.785C53.6384 129.293 55.6951 125.838 54.1028 124.81C51.5419 123.165 50.9515 123.308 49.3924 125.942C49.3419 126.027 49.2679 126.095 49.1809 126.136C49.0939 126.177 48.9985 126.189 48.9081 126.17C46.387 125.643 52.7295 122.631 46.6192 121.89C46.3755 121.859 46.1281 121.899 45.9085 122.005C45.6888 122.112 45.5066 122.28 45.3852 122.488C43.5275 125.656 38.4655 123.6 40.2501 119.775C41.5107 117.086 43.3993 117.16 45.9159 119.997C46.0207 120.116 46.1494 120.213 46.2942 120.282C46.439 120.351 46.5969 120.392 46.7585 120.4C48.51 120.5 49.6954 121.042 50.3146 122.026C50.3688 122.113 50.4436 122.184 50.5311 122.232C50.6186 122.28 50.7156 122.303 50.8122 122.299ZM44.4166 120.439C42.8331 118.912 41.7407 119.077 41.1391 120.933C41.0669 121.155 41.0657 121.393 41.1356 121.617C41.2056 121.84 41.3433 122.037 41.5306 122.182C42.7469 123.123 43.7575 122.839 44.5625 121.33C44.6394 121.186 44.6667 121.021 44.6404 120.861C44.6141 120.7 44.5356 120.552 44.4166 120.439Z" fill="white"/>
<path d="M31.5911 118.328C31.6661 118.404 31.711 118.502 31.7178 118.606C31.7247 118.709 31.6931 118.811 31.6286 118.893C30.8491 119.874 30.2894 119.869 29.9497 118.878C29.9121 118.766 29.8987 118.65 29.9103 118.538C29.922 118.426 29.9584 118.32 30.0171 118.228C30.4019 117.642 30.9265 117.676 31.5911 118.328Z" fill="white"/>
<path d="M50.6403 117.979C50.687 118.005 50.7222 118.049 50.7391 118.1C50.756 118.151 50.7532 118.207 50.7313 118.257C50.524 118.74 50.2725 118.844 49.9768 118.569C49.9327 118.527 49.8981 118.475 49.8752 118.417C49.8523 118.359 49.8417 118.297 49.8441 118.234C49.8643 117.776 50.1297 117.691 50.6403 117.979Z" fill="white"/>
<path d="M52.005 118.097C52.7588 117.568 53.239 117.777 53.4456 118.725C53.4772 118.876 53.4764 119.036 53.4433 119.195C53.4102 119.353 53.3456 119.506 53.2542 119.641C52.2938 121.035 51.7619 120.792 51.6586 118.91C51.6478 118.746 51.6744 118.583 51.7355 118.439C51.7966 118.296 51.8898 118.177 52.005 118.097Z" fill="white"/>
<path d="M93.6007 122.973C93.5702 124.005 95.102 126.686 93.9363 126.818C93.8465 126.828 93.7555 126.807 93.675 126.759C93.5945 126.711 93.5282 126.638 93.4847 126.548C91.5319 122.434 92.2459 121.218 96.1699 119.812C97.4556 119.348 98.4076 119.748 99.026 121.015L102.297 127.718C102.349 127.826 102.383 127.937 102.398 128.045C102.413 128.152 102.408 128.253 102.382 128.343C101.797 130.446 98.3913 122.263 98.1533 121.757C98.0119 121.458 97.778 121.225 97.5005 121.106C97.223 120.987 96.9234 120.992 96.6642 121.12L93.8875 122.48C93.805 122.522 93.7346 122.59 93.684 122.677C93.6334 122.764 93.6046 122.866 93.6007 122.973Z" fill="white"/>
<path d="M82.9923 126.207C82.1994 126.254 81.5635 126.59 81.0845 127.214C81.0259 127.293 80.984 127.385 80.9616 127.484C80.9392 127.584 80.9368 127.69 80.9544 127.794L82.2056 135.1C82.2226 135.203 82.2173 135.305 82.1903 135.398C82.1632 135.492 82.1153 135.574 82.0508 135.636C81.4727 136.201 81.099 135.972 80.9296 134.947C80.5787 132.831 80.207 130.719 79.8147 128.61C79.2201 125.423 82.8622 124.798 85.0549 124.173C85.1485 124.148 85.246 124.151 85.3323 124.183C85.4186 124.216 85.4887 124.275 85.5319 124.352C85.8705 124.96 85.567 125.372 84.6213 125.589C84.5587 125.602 84.4995 125.63 84.4477 125.668C84.3958 125.707 84.3525 125.757 84.3204 125.814C84.2883 125.871 84.2681 125.934 84.2613 126C84.2545 126.065 84.2611 126.131 84.2806 126.194C84.4355 126.679 87.3034 134.673 85.5009 133.774C85.4195 133.735 85.3462 133.672 85.2863 133.592C85.2263 133.511 85.1812 133.415 85.154 133.309L83.3763 126.507C83.3519 126.416 83.3004 126.337 83.2304 126.282C83.1605 126.228 83.0763 126.201 82.9923 126.207Z" fill="white"/>
<path d="M71.2447 133.362C70.0311 131.617 68.1045 129.424 68.7353 127.259C69.2152 125.638 70.6802 124.914 73.1301 125.088C74.1311 125.161 75.1047 125.358 76.0508 125.679C77.9774 126.339 77.8197 133.912 77.9363 135.884C77.9425 136.003 77.9251 136.117 77.8855 136.217C77.846 136.316 77.7857 136.398 77.71 136.455C77.0312 136.963 76.6404 136.221 76.613 135.616C76.5033 132.95 76.3228 130.286 76.0714 127.624C76.0495 127.393 75.943 127.179 75.7722 127.022C75.6015 126.864 75.3785 126.775 75.1458 126.772C73.6991 126.751 71.5463 126.084 70.4151 126.93C68.5433 128.325 71.5189 131.637 72.4788 132.97C73.1141 133.841 72.9564 134.494 72.0057 134.929L67.988 136.778C67.8843 136.824 67.773 136.847 67.6633 136.843C67.5536 136.84 67.4486 136.81 67.3572 136.757C65.8488 135.857 70.5933 134.18 71.1555 133.829C71.1924 133.807 71.2241 133.776 71.2487 133.74C71.2733 133.704 71.2902 133.663 71.2985 133.619C71.3069 133.575 71.3064 133.53 71.2971 133.486C71.2879 133.442 71.27 133.4 71.2447 133.362Z" fill="white"/>
<path d="M97.5443 129.322C97.4795 129.407 97.3951 129.476 97.298 129.523C97.2009 129.57 97.0938 129.594 96.9854 129.594C96.877 129.593 96.7702 129.567 96.6738 129.519C96.5774 129.47 96.494 129.4 96.4304 129.314C94.8323 127.173 99.0502 127.368 97.5443 129.322Z" fill="white"/>
<path d="M96.0248 129.911C96.002 130.021 95.9569 130.124 95.8927 130.212C95.8285 130.301 95.747 130.372 95.654 130.422C95.561 130.472 95.4589 130.499 95.3552 130.5C95.2516 130.501 95.149 130.477 95.0549 130.43C94.1043 129.947 93.9957 129.425 94.7292 128.864C94.8286 128.785 94.9407 128.731 95.0572 128.705C95.1736 128.679 95.2916 128.682 95.4023 128.714C95.9476 128.877 96.1551 129.276 96.0248 129.911Z" fill="white"/>
<path d="M58.2122 129.606C58.3272 129.618 58.4381 129.656 58.5367 129.717C58.6354 129.778 58.7193 129.862 58.7821 129.961C58.845 130.06 58.8853 130.172 58.9 130.289C58.9147 130.406 58.9034 130.525 58.867 130.637C58.6103 131.387 58.1634 131.588 57.5266 131.242C57.4167 131.184 57.3218 131.099 57.2495 130.996C57.1773 130.892 57.1296 130.771 57.1106 130.644C57.0079 129.868 57.3751 129.522 58.2122 129.606Z" fill="white"/>
<path d="M71.5489 56.9271C71.8483 56.0057 73.1517 56.0057 73.4511 56.9271L76.429 66.0922C76.5629 66.5042 76.9468 66.7832 77.3801 66.7832H87.0169C87.9856 66.7832 88.3884 68.0228 87.6046 68.5922L79.8083 74.2566C79.4578 74.5112 79.3112 74.9626 79.445 75.3746L82.423 84.5398C82.7223 85.4611 81.6678 86.2272 80.8841 85.6578L73.0878 79.9934C72.7373 79.7388 72.2627 79.7388 71.9122 79.9934L64.1159 85.6578C63.3322 86.2272 62.2777 85.4611 62.577 84.5398L65.555 75.3746C65.6888 74.9626 65.5422 74.5112 65.1917 74.2566L57.3954 68.5922C56.6116 68.0228 57.0144 66.7832 57.9831 66.7832H67.6199C68.0532 66.7832 68.4371 66.5042 68.571 66.0922L71.5489 56.9271Z" fill="white"/>
</svg>
