<svg width="16" height="14" viewBox="0 0 16 14" fill="none" xmlns="http://www.w3.org/2000/svg">
<path d="M6.40667 0.560108L-2.92988e-07 7.00011L6.40667 13.4401C6.46453 13.5161 6.53804 13.5788 6.62222 13.6239C6.70641 13.669 6.7993 13.6954 6.89461 13.7015C6.98992 13.7076 7.08542 13.6931 7.17466 13.6591C7.26389 13.6251 7.34477 13.5723 7.41182 13.5042C7.47887 13.4362 7.53052 13.3546 7.56328 13.2649C7.59604 13.1752 7.60914 13.0795 7.6017 12.9843C7.59426 12.8891 7.56644 12.7965 7.52014 12.713C7.47384 12.6295 7.41013 12.5569 7.33333 12.5001L2.54 7.66677L15.2933 7.66677C15.4701 7.66677 15.6397 7.59654 15.7647 7.47151C15.8898 7.34649 15.96 7.17692 15.96 7.00011C15.96 6.8233 15.8898 6.65373 15.7647 6.5287C15.6397 6.40368 15.4701 6.33344 15.2933 6.33344L2.54 6.33344L7.33333 1.50011C7.45798 1.37457 7.52766 1.20466 7.52704 1.02775C7.52641 0.85084 7.45554 0.681426 7.33 0.556774C7.20446 0.432122 7.03455 0.362445 6.85764 0.363069C6.68073 0.363694 6.51132 0.434572 6.38667 0.560108L6.40667 0.560108Z" fill="#2E2E2E"/>
</svg>
