<svg width="15" height="15" viewBox="0 0 15 15" fill="none" xmlns="http://www.w3.org/2000/svg">
<path d="M8.39844 6.3999V1.3999C8.39844 1.13469 8.29308 0.880332 8.10554 0.692796C7.91801 0.505259 7.66365 0.399902 7.39844 0.399902C7.13322 0.399902 6.87887 0.505259 6.69133 0.692796C6.50379 0.880332 6.39844 1.13469 6.39844 1.3999V6.3999H1.39844C1.13322 6.3999 0.878867 6.50526 0.691331 6.6928C0.503794 6.88033 0.398438 7.13469 0.398438 7.3999C0.398438 7.66512 0.503794 7.91947 0.691331 8.10701C0.878867 8.29455 1.13322 8.3999 1.39844 8.3999H6.39844V13.3999C6.39844 13.6651 6.50379 13.9195 6.69133 14.107C6.87887 14.2945 7.13322 14.3999 7.39844 14.3999C7.66365 14.3999 7.91801 14.2945 8.10554 14.107C8.29308 13.9195 8.39844 13.6651 8.39844 13.3999V8.3999H13.3984C13.6637 8.3999 13.918 8.29455 14.1055 8.10701C14.2931 7.91947 14.3984 7.66512 14.3984 7.3999C14.3984 7.13469 14.2931 6.88033 14.1055 6.6928C13.918 6.50526 13.6637 6.3999 13.3984 6.3999H8.39844Z" fill="white"/>
</svg>
